<svg xmlns="http://www.w3.org/2000/svg" width="114" height="114" viewBox="0 0 114 114"><g transform="translate(-584 -2682)"><g transform="translate(584 2682)" fill="none" stroke="#1999e3" stroke-width="1"><circle cx="57" cy="57" r="57" stroke="none"/><circle cx="57" cy="57" r="56.5" fill="none"/></g><g transform="translate(593 2691)" fill="none" stroke="#1999e3" stroke-linecap="round" stroke-width="1" stroke-dasharray="31 11"><circle cx="48" cy="48" r="48" stroke="none"/><circle cx="48" cy="48" r="47.5" fill="none"/></g><circle cx="5.5" cy="5.5" r="5.5" transform="translate(626 2723)" fill="none" stroke="#1999e3" stroke-linecap="square" stroke-width="3"/><path d="M48.111,13H2" transform="translate(617.299 2728.66)" fill="none" stroke="#1999e3" stroke-linecap="square" stroke-width="3"/><path d="M23.949,6H13m10.949,6.57H13" transform="translate(632.084 2719.603)" fill="none" stroke="#1999e3" stroke-linecap="square" stroke-width="3"/><path d="M8.917,2H41.194a6.917,6.917,0,0,1,6.917,6.917V48.111H2V8.917A6.917,6.917,0,0,1,8.917,2Z" transform="translate(617.299 2714.299)" fill="none" stroke="#1999e3" stroke-linecap="square" stroke-width="3"/></g></svg>