<svg xmlns="http://www.w3.org/2000/svg" width="114" height="114" viewBox="0 0 114 114"><g transform="translate(-926 -2976)"><g transform="translate(926 2976)" fill="none" stroke="#1999e3" stroke-width="1"><circle cx="57" cy="57" r="57" stroke="none"/><circle cx="57" cy="57" r="56.5" fill="none"/></g><g transform="translate(935 2985)" fill="none" stroke="#1999e3" stroke-linecap="round" stroke-width="1" stroke-dasharray="31 11"><circle cx="48" cy="48" r="48" stroke="none"/><circle cx="48" cy="48" r="47.5" fill="none"/></g><path d="M8,3V44.221" transform="translate(964.84 3011.39)" fill="none" stroke="#1999e3" stroke-linecap="square" stroke-width="3"/><path d="M40.641,3V44.221H8.58A4.58,4.58,0,0,1,4,39.641V7.58A4.58,4.58,0,0,1,8.58,3Z" transform="translate(959.68 3011.39)" fill="none" stroke="#1999e3" stroke-linecap="square" stroke-width="3"/><path d="M8,30.33c0-4.58,7.633-3.817,10.687-6.87,1.527-1.527-3.054-1.527-3.054-9.16q0-7.633,6.107-7.633T27.847,14.3c0,7.633-4.58,7.633-3.054,9.16,3.054,3.053,10.687,2.29,10.687,6.87" transform="translate(964.84 3016.12)" fill="none" stroke="#1999e3" stroke-linecap="square" stroke-width="3"/></g></svg>