<svg xmlns="http://www.w3.org/2000/svg" width="114" height="114" viewBox="0 0 114 114"><g transform="translate(-584 -2976)"><g transform="translate(584 2976)" fill="none" stroke="#1999e3" stroke-width="1"><circle cx="57" cy="57" r="57" stroke="none"/><circle cx="57" cy="57" r="56.5" fill="none"/></g><g transform="translate(593 2985)" fill="none" stroke="#1999e3" stroke-linecap="round" stroke-width="1" stroke-dasharray="31 11"><circle cx="48" cy="48" r="48" stroke="none"/><circle cx="48" cy="48" r="47.5" fill="none"/></g><path d="M21.051,30.893A14.771,14.771,0,0,1,3.439,10.4l10.74,10.74,6.959-6.959L10.4,3.439a14.77,14.77,0,0,1,19.823,19.4L47.73,40.349a4.921,4.921,0,0,1,0,6.959l-1.652,1.652a4.921,4.921,0,0,1-6.959,0Z" transform="translate(616 3008.635)" fill="none" stroke="#1999e3" stroke-linecap="square" stroke-width="3"/></g></svg>