<svg xmlns="http://www.w3.org/2000/svg" width="56" height="56" viewBox="0 0 56 56"><g transform="translate(-1319 -212)"><rect width="56" height="56" rx="4.14" transform="translate(1319 212)" fill="none" opacity="0.7"/><path d="M10.081,87.31l4.156-4.156a1.307,1.307,0,0,0,0-1.847l-.924-.924a1.307,1.307,0,0,0-1.847,0L7.31,84.539,3.154,80.383a1.307,1.307,0,0,0-1.847,0l-.924.924a1.307,1.307,0,0,0,0,1.847L4.539,87.31.383,91.466a1.307,1.307,0,0,0,0,1.847l.924.924a1.306,1.306,0,0,0,1.847,0L7.31,90.081l4.156,4.156a1.306,1.306,0,0,0,1.847,0l.924-.924a1.307,1.307,0,0,0,0-1.847Z" transform="translate(1340.001 152.379)" fill="rgba(31,61,95,0.94)"/></g></svg>