<?xml version="1.0" encoding="utf-8"?>
<!-- Generator: Adobe Illustrator 23.1.0, SVG Export Plug-In . SVG Version: 6.00 Build 0)  -->
<svg version="1.1" id="Layer_1" xmlns="http://www.w3.org/2000/svg" xmlns:xlink="http://www.w3.org/1999/xlink" x="0px" y="0px"
	 viewBox="0 0 603.26 130.25" style="enable-background:new 0 0 603.26 130.25;" xml:space="preserve">
<style type="text/css">
	.st0{fill:#FFFFFF;}
</style>
<g>
	<path class="st0" d="M77.12,111.7c-2.43,4.8-6.25,8.71-11.46,11.72c-5.21,3.01-11.75,4.51-19.61,4.51
		c-7.52,0-14.23-1.45-20.13-4.34c-5.9-2.89-10.59-6.77-14.06-11.63c-3.47-4.86-5.5-10.12-6.08-15.8h8.16
		c0.58,3.71,2.05,7.52,4.43,11.46c2.37,3.93,5.87,7.23,10.5,9.89c4.63,2.66,10.3,3.99,17.01,3.99c8.56,0,15.16-2.37,19.79-7.12
		c4.63-4.74,6.94-10.65,6.94-17.7c0-6.13-1.45-11.05-4.34-14.75c-2.89-3.7-6.45-6.54-10.67-8.51c-4.23-1.97-9.98-4.05-17.27-6.25
		c-7.75-2.31-13.95-4.54-18.57-6.68c-4.63-2.14-8.54-5.41-11.72-9.81c-3.18-4.4-4.77-10.18-4.77-17.36c0-8.79,3.06-16.03,9.2-21.7
		c6.13-5.67,14.64-8.51,25.52-8.51c10.99,0,19.7,2.75,26.12,8.24c6.42,5.5,10.38,12.06,11.89,19.7h-8.33
		c-1.16-5.44-4.23-10.38-9.2-14.84c-4.98-4.45-11.8-6.68-20.48-6.68c-7.98,0-14.38,2.06-19.18,6.16c-4.8,4.11-7.2,9.92-7.2,17.44
		c0,5.79,1.39,10.45,4.17,13.97c2.78,3.53,6.22,6.25,10.33,8.16c4.11,1.91,9.69,3.91,16.75,5.99c7.87,2.32,14.17,4.6,18.92,6.86
		c4.74,2.26,8.77,5.64,12.06,10.15c3.3,4.51,4.95,10.59,4.95,18.23C80.77,101.83,79.55,106.9,77.12,111.7z"/>
	<path class="st0" d="M107.15,73.6v53.12h-7.81V4.34h33.67c13.54,0,23.61,3.07,30.2,9.2c6.6,6.13,9.89,14.7,9.89,25.69
		c0,11.23-3.41,19.76-10.24,25.6c-6.83,5.84-16.78,8.77-29.86,8.77H107.15z M165.13,39.23c0-9.14-2.55-16.08-7.64-20.83
		c-5.09-4.74-13.42-7.12-24.99-7.12h-25.34v55.37h25.34C154.25,66.65,165.13,57.51,165.13,39.23z"/>
	<path class="st0" d="M197.93,10.94v51.38h49.47v6.25h-49.47v51.55h54.68v6.6h-62.49V4.34h62.49v6.6H197.93z"/>
	<path class="st0" d="M277.6,10.94v51.38h49.47v6.25H277.6v51.55h54.68v6.6h-62.49V4.34h62.49v6.6H277.6z"/>
	<path class="st0" d="M363.7,65.44l59.88,61.27h-9.89l-56.41-57.97v57.97h-7.81V4.34h7.81v57.97l56.41-57.97h9.89L363.7,65.44z"/>
	<path class="st0" d="M460.38,4.17v122.55h-19.79V4.17H460.38z"/>
	<path class="st0" d="M570.16,10.59c9.2,5.32,16.43,12.76,21.7,22.31c5.26,9.55,7.9,20.34,7.9,32.37c0,12.04-2.63,22.83-7.9,32.37
		c-5.27,9.55-12.5,17.01-21.7,22.39c-9.2,5.38-19.47,8.07-30.81,8.07c-11.46,0-21.78-2.69-30.98-8.07
		c-9.2-5.38-16.46-12.84-21.78-22.39c-5.32-9.55-7.98-20.34-7.98-32.37c0-12.03,2.66-22.82,7.98-32.37
		c5.32-9.55,12.58-16.98,21.78-22.31c9.2-5.32,19.53-7.98,30.98-7.98C550.69,2.61,560.96,5.27,570.16,10.59z M518.35,26.39
		c-6.13,3.59-10.91,8.74-14.32,15.45c-3.41,6.71-5.12,14.52-5.12,23.43c0,8.91,1.71,16.72,5.12,23.43
		c3.41,6.71,8.19,11.86,14.32,15.45c6.13,3.59,13.13,5.38,21,5.38c7.75,0,14.67-1.79,20.74-5.38c6.08-3.59,10.82-8.74,14.24-15.45
		c3.41-6.71,5.12-14.52,5.12-23.43c0-8.91-1.71-16.72-5.12-23.43c-3.41-6.71-8.16-11.86-14.24-15.45S547.1,21,539.35,21
		C531.48,21,524.48,22.8,518.35,26.39z"/>
</g>
<rect x="-849.87" y="109.95" style="fill:none;" width="589.38" height="226.55"/>
<text transform="matrix(1 0 0 1 -849.8741 180.9464)"><tspan x="0" y="0" style="font-family:'Poppins-ExtraLight'; font-size:100px;">Speek</tspan><tspan x="255.1" y="0" style="font-family:'Poppins-Medium'; font-size:100px;">IO</tspan></text>
<g>
	<path d="M-791.87,648.91c-1.4,2.77-3.6,5.02-6.6,6.75c-3,1.73-6.77,2.6-11.3,2.6c-4.33,0-8.2-0.83-11.6-2.5
		c-3.4-1.67-6.1-3.9-8.1-6.7s-3.17-5.83-3.5-9.1h4.7c0.33,2.13,1.18,4.33,2.55,6.6c1.37,2.27,3.38,4.17,6.05,5.7
		c2.67,1.53,5.93,2.3,9.8,2.3c4.93,0,8.73-1.37,11.4-4.1c2.67-2.73,4-6.13,4-10.2c0-3.53-0.83-6.37-2.5-8.5
		c-1.67-2.13-3.72-3.77-6.15-4.9c-2.43-1.13-5.75-2.33-9.95-3.6c-4.47-1.33-8.03-2.62-10.7-3.85c-2.67-1.23-4.92-3.12-6.75-5.65
		c-1.83-2.53-2.75-5.87-2.75-10c0-5.07,1.77-9.23,5.3-12.5c3.53-3.27,8.43-4.9,14.7-4.9c6.33,0,11.35,1.58,15.05,4.75
		c3.7,3.17,5.98,6.95,6.85,11.35h-4.8c-0.67-3.13-2.43-5.98-5.3-8.55c-2.87-2.57-6.8-3.85-11.8-3.85c-4.6,0-8.28,1.18-11.05,3.55
		c-2.77,2.37-4.15,5.72-4.15,10.05c0,3.33,0.8,6.02,2.4,8.05c1.6,2.04,3.58,3.6,5.95,4.7c2.37,1.1,5.58,2.25,9.65,3.45
		c4.53,1.33,8.17,2.65,10.9,3.95c2.73,1.3,5.05,3.25,6.95,5.85c1.9,2.6,2.85,6.1,2.85,10.5
		C-789.77,643.23-790.47,646.14-791.87,648.91z"/>
	<path d="M-774.57,626.96v30.6h-4.5v-70.5h19.4c7.8,0,13.6,1.77,17.4,5.3c3.8,3.53,5.7,8.47,5.7,14.8c0,6.47-1.97,11.38-5.9,14.75
		c-3.93,3.37-9.67,5.05-17.2,5.05H-774.57z M-741.17,607.16c0-5.27-1.47-9.27-4.4-12c-2.93-2.73-7.73-4.1-14.4-4.1h-14.6v31.9h14.6
		C-747.44,622.96-741.17,617.69-741.17,607.16z"/>
	<path d="M-722.27,590.86v29.6h28.5v3.6h-28.5v29.7h31.5v3.8h-36v-70.5h36v3.8H-722.27z"/>
	<path d="M-676.37,590.86v29.6h28.5v3.6h-28.5v29.7h31.5v3.8h-36v-70.5h36v3.8H-676.37z"/>
	<path d="M-626.77,622.26l34.5,35.3h-5.7l-32.5-33.4v33.4h-4.5v-70.5h4.5v33.4l32.5-33.4h5.7L-626.77,622.26z"/>
	<path d="M-571.08,586.96v70.6h-11.4v-70.6H-571.08z"/>
	<path d="M-507.83,590.66c5.3,3.07,9.46,7.35,12.5,12.85c3.03,5.5,4.55,11.72,4.55,18.65c0,6.93-1.52,13.15-4.55,18.65
		c-3.04,5.5-7.2,9.8-12.5,12.9c-5.3,3.1-11.22,4.65-17.75,4.65c-6.6,0-12.55-1.55-17.85-4.65c-5.3-3.1-9.48-7.4-12.55-12.9
		c-3.07-5.5-4.6-11.72-4.6-18.65c0-6.93,1.53-13.15,4.6-18.65c3.07-5.5,7.25-9.78,12.55-12.85c5.3-3.07,11.25-4.6,17.85-4.6
		C-519.04,586.06-513.13,587.59-507.83,590.66z M-537.68,599.76c-3.53,2.07-6.28,5.03-8.25,8.9c-1.97,3.87-2.95,8.37-2.95,13.5
		c0,5.13,0.98,9.63,2.95,13.5c1.97,3.87,4.72,6.83,8.25,8.9c3.53,2.07,7.56,3.1,12.1,3.1c4.46,0,8.45-1.03,11.95-3.1
		c3.5-2.07,6.23-5.03,8.2-8.9c1.96-3.87,2.95-8.37,2.95-13.5c0-5.13-0.98-9.63-2.95-13.5c-1.97-3.87-4.7-6.83-8.2-8.9
		c-3.5-2.07-7.48-3.1-11.95-3.1C-530.11,596.66-534.14,597.69-537.68,599.76z"/>
</g>
<g>
	<path d="M-791.22,466.09c-1.3,2.67-3.38,4.87-6.25,6.6c-2.87,1.73-6.5,2.6-10.9,2.6c-4.2,0-7.92-0.83-11.15-2.5
		c-3.23-1.67-5.8-3.83-7.7-6.5c-1.9-2.67-3.02-5.53-3.35-8.6h2c0.33,2.27,1.25,4.62,2.75,7.05c1.5,2.43,3.72,4.5,6.65,6.2
		c2.93,1.7,6.53,2.55,10.8,2.55c5.53,0,9.77-1.5,12.7-4.5c2.93-3,4.4-6.77,4.4-11.3c0-3.87-0.88-6.97-2.65-9.3
		c-1.77-2.33-3.93-4.1-6.5-5.3c-2.57-1.2-6.02-2.43-10.35-3.7c-4.4-1.27-7.93-2.52-10.6-3.75c-2.67-1.23-4.92-3.06-6.75-5.5
		c-1.83-2.43-2.75-5.71-2.75-9.85c0-4.87,1.65-8.88,4.95-12.05c3.3-3.17,7.98-4.75,14.05-4.75c6,0,10.77,1.53,14.3,4.6
		c3.53,3.07,5.73,6.6,6.6,10.6h-2c-0.47-2-1.43-4.02-2.9-6.05c-1.47-2.03-3.53-3.77-6.2-5.2c-2.67-1.43-5.93-2.15-9.8-2.15
		c-5.13,0-9.25,1.32-12.35,3.95c-3.1,2.63-4.65,6.32-4.65,11.05c0,3.67,0.85,6.6,2.55,8.8c1.7,2.2,3.78,3.87,6.25,5
		c2.47,1.13,5.87,2.33,10.2,3.6c4.47,1.27,8.07,2.53,10.8,3.8c2.73,1.27,5.05,3.2,6.95,5.8s2.85,6.07,2.85,10.4
		C-789.27,460.62-789.92,463.42-791.22,466.09z"/>
	<path d="M-776.77,442.89v31.7h-2v-70.4h17.8c7.73,0,13.42,1.7,17.05,5.1c3.63,3.4,5.45,8.17,5.45,14.3c0,6.47-1.9,11.3-5.7,14.5
		c-3.8,3.2-9.4,4.8-16.8,4.8H-776.77z M-745.32,436.29c3.23-3,4.85-7.23,4.85-12.7c0-5.73-1.6-10.07-4.8-13s-8.43-4.4-15.7-4.4
		h-15.8v34.6h15.8C-753.77,440.79-748.56,439.29-745.32,436.29z"/>
	<path d="M-725.97,405.99v32.5h29.4v1.8h-29.4v32.5h32.4v1.8h-34.4v-70.4h34.4v1.8H-725.97z"/>
	<path d="M-681.08,405.99v32.5h29.4v1.8h-29.4v32.5h32.4v1.8h-34.4v-70.4h34.4v1.8H-681.08z"/>
	<path d="M-634.98,439.39l35.7,35.2h-2.7l-34.2-33.6v33.6h-2v-70.4h2v33.8l34.2-33.8h2.7L-634.98,439.39z"/>
	<path d="M-578.98,403.99v70.6h-11.4v-70.6H-578.98z"/>
	<path d="M-515.73,407.69c5.3,3.07,9.46,7.35,12.5,12.85c3.03,5.5,4.55,11.72,4.55,18.65s-1.52,13.15-4.55,18.65
		c-3.04,5.5-7.2,9.8-12.5,12.9c-5.3,3.1-11.22,4.65-17.75,4.65c-6.6,0-12.55-1.55-17.85-4.65s-9.48-7.4-12.55-12.9
		c-3.07-5.5-4.6-11.72-4.6-18.65s1.53-13.15,4.6-18.65c3.07-5.5,7.25-9.78,12.55-12.85s11.25-4.6,17.85-4.6
		C-526.94,403.09-521.03,404.62-515.73,407.69z M-545.58,416.79c-3.53,2.07-6.28,5.04-8.25,8.9c-1.97,3.87-2.95,8.37-2.95,13.5
		c0,5.13,0.98,9.63,2.95,13.5c1.97,3.87,4.72,6.83,8.25,8.9c3.53,2.07,7.57,3.1,12.1,3.1c4.46,0,8.45-1.03,11.95-3.1
		s6.23-5.03,8.2-8.9c1.96-3.87,2.95-8.37,2.95-13.5c0-5.13-0.98-9.63-2.95-13.5c-1.97-3.87-4.7-6.83-8.2-8.9
		c-3.5-2.07-7.48-3.1-11.95-3.1C-538.01,413.69-542.05,414.72-545.58,416.79z"/>
</g>
</svg>
