<svg xmlns="http://www.w3.org/2000/svg" xmlns:xlink="http://www.w3.org/1999/xlink" width="230" height="443" viewBox="0 0 230 443"><defs><clipPath id="b"><rect width="230" height="443"/></clipPath></defs><g id="a" clip-path="url(#b)"><rect width="14" height="33" rx="7" transform="translate(79 366)" fill="#1f3d5e"/><rect width="14" height="33" rx="7" transform="translate(139 366)" fill="#1f3d5e"/><g transform="translate(40 66)" fill="rgba(160,192,210,0.28)" stroke="rgba(56,97,142,0.69)" stroke-width="3"><rect width="151" height="104" rx="7" stroke="none"/><rect x="1.5" y="1.5" width="148" height="101" rx="5.5" fill="none"/></g><g transform="translate(55 86)" fill="#fb6e52" stroke="#1f3d5e" stroke-width="3"><rect width="46" height="27" rx="3" stroke="none"/><rect x="1.5" y="1.5" width="43" height="24" rx="1.5" fill="none"/></g><g transform="translate(132 86)" fill="#fb6e52" stroke="#1f3d5e" stroke-width="3"><rect width="46" height="27" rx="3" stroke="none"/><rect x="1.5" y="1.5" width="43" height="24" rx="1.5" fill="none"/></g><g transform="translate(128.5 122.5) rotate(90)" fill="#1f3d5e" stroke="#707070" stroke-width="2"><rect width="34" height="27" rx="3" stroke="none"/><rect x="1" y="1" width="32" height="25" rx="2" fill="none"/></g><g transform="translate(40 195)" fill="rgba(160,192,210,0.28)" stroke="rgba(56,97,142,0.69)" stroke-width="3"><rect width="151" height="167" rx="7" stroke="none"/><rect x="1.5" y="1.5" width="148" height="164" rx="5.5" fill="none"/></g><path d="M7.093,0H18.24a7.047,7.047,0,0,1,7.093,7V64a7.047,7.047,0,0,1-7.093,7s-3.168-7-5.955-7-5.192,7-5.192,7A7.047,7.047,0,0,1,0,64V7A7.047,7.047,0,0,1,7.093,0Z" transform="translate(6 195)" fill="#1999e3"/><path d="M18,0H7A7,7,0,0,0,0,7V64a7,7,0,0,0,7,7s3.127-7,5.877-7S18,71,18,71a7,7,0,0,0,7-7V7A7,7,0,0,0,18,0Z" transform="translate(199.334 195)" fill="#1999e3"/><rect width="7" height="17" rx="3.5" transform="translate(15 264)" fill="#1f3d5e"/><rect width="7" height="27" rx="3.5" transform="translate(38 111) rotate(90)" fill="#1f3d5e"/><rect width="7" height="27" rx="3.5" transform="translate(193 118) rotate(-90)" fill="#1f3d5e"/><rect width="7" height="17" rx="3" transform="translate(22 123) rotate(180)" fill="#1999e3"/><rect width="11" height="17" rx="3" transform="translate(178 62) rotate(180)" fill="#1999e3"/><rect width="11" height="17" rx="3" transform="translate(66 62) rotate(180)" fill="#1999e3"/><rect width="7" height="17" rx="3" transform="translate(209 106)" fill="#1999e3"/><rect width="53" height="17" rx="8.5" transform="translate(89 174)" fill="#1999e3"/><rect width="8" height="17" rx="4" transform="translate(208 264)" fill="#1f3d5e"/><path d="M1.949,0s4.843,3.4,10.2,3.4S23.385,0,23.385,0a1.975,1.975,0,0,1,1.949,2V39a1.975,1.975,0,0,1-1.949,2H13.533S0,22.525,0,21.421V2A1.975,1.975,0,0,1,1.949,0Z" transform="translate(6 279)" fill="#dfdfdf"/><path d="M1.949,0H23.385a1.975,1.975,0,0,1,1.949,2V39a1.975,1.975,0,0,1-1.949,2H13.533a51.5,51.5,0,0,1-8.841-9.246A29.58,29.58,0,0,1,0,21.421V2A1.975,1.975,0,0,1,1.949,0Z" transform="translate(99.167 401.833) rotate(90)" fill="#1999e3"/><path d="M1.946,41H23.354A1.974,1.974,0,0,0,25.3,39V2a1.974,1.974,0,0,0-1.946-2H13.515A51.471,51.471,0,0,0,4.686,9.246,29.6,29.6,0,0,0,0,19.579V39A1.974,1.974,0,0,0,1.946,41Z" transform="translate(172.334 401.399) rotate(90)" fill="#1999e3"/><path d="M23.077,0S18.3,3.4,13.009,3.4,1.923,0,1.923,0A1.963,1.963,0,0,0,0,2V39a1.963,1.963,0,0,0,1.923,2h9.722S25,22.525,25,21.421V2A1.963,1.963,0,0,0,23.077,0Z" transform="translate(199.334 279)" fill="#dfdfdf"/><rect width="4" height="26.334" rx="2" transform="translate(99.167 373.5) rotate(90)" fill="#cecece"/><rect width="4" height="26.334" rx="2" transform="translate(159.167 373.5) rotate(90)" fill="#cecece"/><rect width="4" height="26.334" rx="2" transform="translate(99.167 380.5) rotate(90)" fill="#cecece"/><rect width="4" height="26.334" rx="2" transform="translate(159.167 380.5) rotate(90)" fill="#cecece"/><rect width="4" height="26.334" rx="2" transform="translate(99.167 387.5) rotate(90)" fill="#cecece"/><rect width="4" height="26.334" rx="2" transform="translate(159.167 387.5) rotate(90)" fill="#cecece"/><rect width="4" height="38" rx="2" transform="translate(114 24)" fill="#dfdfdf"/><rect width="2" height="11" rx="1" transform="translate(86.5 39.5) rotate(-90)" fill="#1999e3"/><rect width="2" height="11" rx="1" transform="translate(132.5 39.5) rotate(-90)" fill="#1999e3"/><rect width="2" height="11" rx="1" transform="matrix(-0.695, -0.719, 0.719, -0.695, 130.738, 29.04)" fill="#1999e3"/><rect width="2" height="11" rx="1" transform="translate(117 19) rotate(-180)" fill="#1999e3"/><rect width="2" height="11" rx="1" transform="translate(97.596 27.682) rotate(135)" fill="#1999e3"/><g transform="translate(102 43)" fill="none" stroke="#dfdfdf" stroke-width="2"><ellipse cx="13.5" cy="4" rx="13.5" ry="4" stroke="none"/><ellipse cx="13.5" cy="4" rx="12.5" ry="3" fill="none"/></g><g transform="translate(102 39)" fill="none" stroke="#dfdfdf" stroke-width="2"><ellipse cx="13.5" cy="4" rx="13.5" ry="4" stroke="none"/><ellipse cx="13.5" cy="4" rx="12.5" ry="3" fill="none"/></g><g transform="translate(104 34)" fill="none" stroke="#dfdfdf" stroke-width="2"><ellipse cx="11.5" cy="4" rx="11.5" ry="4" stroke="none"/><ellipse cx="11.5" cy="4" rx="10.5" ry="3" fill="none"/></g><g transform="translate(107 29)" fill="none" stroke="#dfdfdf" stroke-width="2"><ellipse cx="8.5" cy="4" rx="8.5" ry="4" stroke="none"/><ellipse cx="8.5" cy="4" rx="7.5" ry="3" fill="none"/></g><path d="M75.144,58.057a6.337,6.337,0,0,1-5.486,9.5H6.34a6.337,6.337,0,0,1-5.486-9.5L32.514,3.165a6.337,6.337,0,0,1,10.972,0L75.144,58.057ZM38,46.708a6.069,6.069,0,1,0,6.069,6.069A6.069,6.069,0,0,0,38,46.708ZM32.237,24.892l.979,17.944a1.583,1.583,0,0,0,1.581,1.5H41.2a1.583,1.583,0,0,0,1.581-1.5l.979-17.944a1.583,1.583,0,0,0-1.581-1.67H33.818a1.583,1.583,0,0,0-1.581,1.67Z" transform="translate(78 245)" fill="#fb6e52"/></g></svg>