<svg xmlns="http://www.w3.org/2000/svg" width="120" height="120" viewBox="0 0 120 120"><g transform="translate(-856 -41)"><rect width="120" height="120" transform="translate(856 41)" fill="red" opacity="0"/><rect width="5" height="86" rx="2.5" transform="translate(960 96) rotate(90)"/><rect width="5" height="19" rx="2.5" transform="translate(955.5 96.5)"/><rect width="5" height="29" rx="2.5" transform="translate(915.5 86.5)"/><rect width="5" height="19" rx="2.5" transform="translate(873.5 96.5)"/><g transform="translate(898 64)" fill="none" stroke="#000" stroke-width="5"><rect width="39" height="25" rx="3" stroke="none"/><rect x="2.5" y="2.5" width="34" height="20" rx="0.5" fill="none"/></g><g transform="translate(864 111)" fill="none" stroke="#000" stroke-width="5"><rect width="25" height="25" rx="3" stroke="none"/><rect x="2.5" y="2.5" width="20" height="20" rx="0.5" fill="none"/></g><g transform="translate(905 111)" fill="none" stroke="#000" stroke-width="5"><rect width="25" height="25" rx="3" stroke="none"/><rect x="2.5" y="2.5" width="20" height="20" rx="0.5" fill="none"/></g><g transform="translate(945 111)" fill="none" stroke="#000" stroke-width="5"><rect width="25" height="25" rx="3" stroke="none"/><rect x="2.5" y="2.5" width="20" height="20" rx="0.5" fill="none"/></g><rect width="23" height="2" rx="1" transform="translate(906 73)"/><rect width="9" height="2" rx="1" transform="translate(872 121)"/><rect width="9" height="2" rx="1" transform="translate(913 121)"/><rect width="9" height="2" rx="1" transform="translate(953 121)"/><rect width="23" height="2" rx="1" transform="translate(906 77)"/><rect width="9" height="2" rx="1" transform="translate(872 125)"/><rect width="9" height="2" rx="1" transform="translate(913 125)"/><rect width="9" height="2" rx="1" transform="translate(953 125)"/></g></svg>