<?xml version="1.0" encoding="UTF-8" standalone="no"?>
<svg
   xmlns:dc="http://purl.org/dc/elements/1.1/"
   xmlns:cc="http://creativecommons.org/ns#"
   xmlns:rdf="http://www.w3.org/1999/02/22-rdf-syntax-ns#"
   xmlns:svg="http://www.w3.org/2000/svg"
   xmlns="http://www.w3.org/2000/svg"
   xmlns:sodipodi="http://sodipodi.sourceforge.net/DTD/sodipodi-0.dtd"
   xmlns:inkscape="http://www.inkscape.org/namespaces/inkscape"
   version="1.1"
   viewBox="0 0 40.07 28.06"
   id="svg6"
   sodipodi:docname="dashboard.svg"
   inkscape:version="0.92.2 (5c3e80d, 2017-08-06)">
  <metadata
     id="metadata12">
    <rdf:RDF>
      <cc:Work
         rdf:about="">
        <dc:format>image/svg+xml</dc:format>
        <dc:type
           rdf:resource="http://purl.org/dc/dcmitype/StillImage" />
      </cc:Work>
    </rdf:RDF>
  </metadata>
  <defs
     id="defs10" />
  <sodipodi:namedview
     pagecolor="#ffffff"
     bordercolor="#666666"
     borderopacity="1"
     objecttolerance="10"
     gridtolerance="10"
     guidetolerance="10"
     inkscape:pageopacity="0"
     inkscape:pageshadow="2"
     inkscape:window-width="1920"
     inkscape:window-height="1001"
     id="namedview8"
     showgrid="false"
     inkscape:zoom="8.410549"
     inkscape:cx="20.035"
     inkscape:cy="14.03"
     inkscape:window-x="-9"
     inkscape:window-y="-9"
     inkscape:window-maximized="1"
     inkscape:current-layer="svg6" />
  <title
     id="title2">aside</title>
  <path
     d="m 25.332,21.911 a 0.945,0.945 0 0 1 -1,-1 v -9 a 0.945,0.945 0 0 1 1,-1 h 2 a 0.945,0.945 0 0 1 1,1 v 9 a 0.945,0.945 0 0 1 -1,1 z"
     id="path826"
     style="opacity:1" />
  <path
     d="m 19.332,21.911 a 0.944,0.944 0 0 1 -1,-1 v -14 a 0.945,0.945 0 0 1 1,-1 h 2 a 0.945,0.945 0 0 1 1,1 v 14 a 0.944,0.944 0 0 1 -1,1 z"
     id="path824"
     style="opacity:0.7" />
  <path
     d="m 13.332,21.911 a 0.945,0.945 0 0 1 -1,-1 v -4 a 0.945,0.945 0 0 1 1,-1 h 2 a 0.946,0.946 0 0 1 1,1 v 4 a 0.945,0.945 0 0 1 -1,1 z"
     id="path4"
     style="opacity:0.5" />
</svg>
