<?xml version="1.0" encoding="utf-8"?>
<!-- Generator: Adobe Illustrator 24.0.1, SVG Export Plug-In . SVG Version: 6.00 Build 0)  -->
<svg version="1.1"
	 id="svg14" inkscape:version="0.92.4 (5da689c313, 2019-01-14)" sodipodi:docname="drawer-menu.svg" xmlns:cc="http://creativecommons.org/ns#" xmlns:dc="http://purl.org/dc/elements/1.1/" xmlns:inkscape="http://www.inkscape.org/namespaces/inkscape" xmlns:rdf="http://www.w3.org/1999/02/22-rdf-syntax-ns#" xmlns:sodipodi="http://sodipodi.sourceforge.net/DTD/sodipodi-0.dtd" xmlns:svg="http://www.w3.org/2000/svg"
	 xmlns="http://www.w3.org/2000/svg" xmlns:xlink="http://www.w3.org/1999/xlink" x="0px" y="0px" viewBox="0 0 43.7 31.7"
	 style="enable-background:new 0 0 43.7 31.7;" xml:space="preserve">
<style type="text/css">
	.st0{fill:#FFFFFF;}
</style>
<sodipodi:namedview  bordercolor="#666666" borderopacity="1" fit-margin-bottom="0" fit-margin-left="0" fit-margin-right="0" fit-margin-top="0" gridtolerance="10" guidetolerance="10" id="namedview16" inkscape:current-layer="g8" inkscape:cx="-1.9452211" inkscape:cy="9.1689973" inkscape:pageopacity="0" inkscape:pageshadow="2" inkscape:window-height="480" inkscape:window-width="640" inkscape:zoom="6.864" objecttolerance="10" pagecolor="#ffffff" showgrid="false">
	</sodipodi:namedview>
<g id="g8" transform="translate(-18,-26)">
	<path id="path2" inkscape:connector-curvature="0" class="st0" d="M23.3,32.7h28.1c1.1,0,2-0.9,2-1.9c0-1.1-0.9-1.9-2-1.9H23.3
		c-1.1,0-2,0.9-2,1.9C21.3,31.8,22.2,32.7,23.3,32.7z"/>
	<path id="path4" inkscape:connector-curvature="0" class="st0" d="M51.4,38.6H23.3c-1.1,0-2,0.9-2,1.9c0,1.1,0.9,1.9,2,1.9h28.1
		c1.1,0,2-0.9,2-1.9C53.5,39.4,52.5,38.6,51.4,38.6z"/>
	<path id="path6" inkscape:connector-curvature="0" class="st0" d="M51.4,48.3H23.3c-1.1,0-2,0.9-2,1.9s0.9,1.9,2,1.9h28.1
		c1.1,0,2-0.9,2-1.9C53.5,49.2,52.5,48.3,51.4,48.3z"/>
</g>
</svg>
