<?xml version="1.0" encoding="UTF-8" standalone="no"?>
<!-- Generator: Adobe Illustrator 24.0.1, SVG Export Plug-In . SVG Version: 6.00 Build 0)  -->

<svg
   xmlns:dc="http://purl.org/dc/elements/1.1/"
   xmlns:cc="http://creativecommons.org/ns#"
   xmlns:rdf="http://www.w3.org/1999/02/22-rdf-syntax-ns#"
   xmlns:svg="http://www.w3.org/2000/svg"
   xmlns="http://www.w3.org/2000/svg"
   xmlns:sodipodi="http://sodipodi.sourceforge.net/DTD/sodipodi-0.dtd"
   xmlns:inkscape="http://www.inkscape.org/namespaces/inkscape"
   version="1.1"
   id="svg14"
   inkscape:version="0.92.4 (5da689c313, 2019-01-14)"
   sodipodi:docname="drawer-menu.svg"
   x="0px"
   y="0px"
   viewBox="0 0 43.7 31.7"
   style="enable-background:new 0 0 43.7 31.7;"
   xml:space="preserve"><metadata
   id="metadata12"><rdf:RDF><cc:Work
       rdf:about=""><dc:format>image/svg+xml</dc:format><dc:type
         rdf:resource="http://purl.org/dc/dcmitype/StillImage" /><dc:title></dc:title></cc:Work></rdf:RDF></metadata><defs
   id="defs10" />
<style
   type="text/css"
   id="style2">
	.st0{fill:#FFFFFF;}
</style>
<sodipodi:namedview
   bordercolor="#666666"
   borderopacity="1"
   fit-margin-bottom="0"
   fit-margin-left="0"
   fit-margin-right="0"
   fit-margin-top="0"
   gridtolerance="10"
   guidetolerance="10"
   id="namedview16"
   inkscape:current-layer="g8"
   inkscape:cx="3.0810027"
   inkscape:cy="16.162004"
   inkscape:pageopacity="0"
   inkscape:pageshadow="2"
   inkscape:window-height="480"
   inkscape:window-width="640"
   inkscape:zoom="6.864"
   objecttolerance="10"
   pagecolor="#ffffff"
   showgrid="false">
	</sodipodi:namedview>
<g
   id="g8"
   transform="translate(-18,-26)">
	<path
   id="path2"
   inkscape:connector-curvature="0"
   class="st0"
   d="m 23.3,32.7 h 28.1 c 1.1,0 2,-0.9 2,-1.9 0,-1.1 -0.9,-1.9 -2,-1.9 H 23.3 c -1.1,0 -2,0.9 -2,1.9 0,1 0.9,1.9 2,1.9 z"
   style="fill:#b8b8b8;fill-opacity:1" />
	<path
   id="path4"
   inkscape:connector-curvature="0"
   class="st0"
   d="M 51.4,38.6 H 23.3 c -1.1,0 -2,0.9 -2,1.9 0,1.1 0.9,1.9 2,1.9 h 28.1 c 1.1,0 2,-0.9 2,-1.9 0.1,-1.1 -0.9,-1.9 -2,-1.9 z"
   style="fill:#b8b8b8;fill-opacity:1" />
	<path
   id="path6"
   inkscape:connector-curvature="0"
   class="st0"
   d="M 51.4,48.3 H 23.3 c -1.1,0 -2,0.9 -2,1.9 0,1 0.9,1.9 2,1.9 h 28.1 c 1.1,0 2,-0.9 2,-1.9 0.1,-1 -0.9,-1.9 -2,-1.9 z"
   style="fill:#b8b8b8;fill-opacity:1" />
</g>
</svg>