<svg xmlns="http://www.w3.org/2000/svg" width="93.357" height="78.815" viewBox="0 0 93.357 78.815"><g transform="translate(-1140.864 -61.185)"><path d="M42.189,14.9h83.571V45.57h4.9V14.045A4.014,4.014,0,0,0,126.686,10H41.272A4.014,4.014,0,0,0,37.3,14.045V72.77a4.014,4.014,0,0,0,3.972,4.045H58.979v-4.9H42.189Z" transform="translate(1103.564 51.185)"/><rect width="45" height="4" rx="2" transform="translate(1156 75)"/><rect width="52" height="4" rx="2" transform="translate(1167 85)"/><circle cx="3.5" cy="3.5" r="3.5" transform="translate(1156 83)"/><g transform="translate(1167 101)" fill="none" stroke="#000" stroke-width="4"><rect width="67" height="39" rx="4" stroke="none"/><rect x="2" y="2" width="63" height="35" rx="2" fill="none"/></g><path d="M1.433,0H35.814c.791,0,1.433.9,1.433,2S36.6,4,35.814,4H1.433C.641,4,0,3.1,0,2S.641,0,1.433,0Z" transform="translate(1170.059 103.392) rotate(29)"/><path d="M1.422,0H35.539c.785,0,1.422.9,1.422,2s-.636,2-1.422,2H1.422C.636,4,0,3.1,0,2S.636,0,1.422,0Z" transform="translate(1231.67 106.624) rotate(150)"/></g></svg>