<svg xmlns="http://www.w3.org/2000/svg" xmlns:xlink="http://www.w3.org/1999/xlink" width="512" height="380" viewBox="0 0 512 380"><defs><clipPath id="a"><rect width="364" height="215" fill="none"/></clipPath><clipPath id="c"><rect width="512" height="380"/></clipPath></defs><g id="b" clip-path="url(#c)"><rect width="435" height="324" rx="8" transform="translate(10 26)" fill="rgba(0,0,0,0.05)" opacity="0.73"/><g transform="translate(23 13)" fill="#fff" stroke="rgba(112,112,112,0.19)" stroke-width="6"><rect width="434" height="322" rx="8" stroke="none"/><rect x="3" y="3" width="428" height="316" rx="5" fill="none"/></g><rect width="388" height="36" transform="translate(46 37)" fill="#dde2eb"/><rect width="388" height="237" transform="translate(46 73)" fill="#f6f6f6"/><g transform="translate(64 85)" clip-path="url(#a)"><g transform="translate(-124 -186)"><rect width="38" height="9" rx="4.5" transform="translate(124 186)" fill="rgba(139,139,139,0.12)"/></g><g transform="translate(-66 -186)"><rect width="38" height="9" rx="4.5" transform="translate(124 186)" fill="rgba(139,139,139,0.12)"/></g><g transform="translate(-8 -186)"><rect width="38" height="9" rx="4.5" transform="translate(124 186)" fill="rgba(139,139,139,0.12)"/></g><g transform="translate(50 -186)"><rect width="38" height="9" rx="4.5" transform="translate(124 186)" fill="rgba(139,139,139,0.12)"/></g><g transform="translate(108 -186)"><rect width="38" height="9" rx="4.5" transform="translate(124 186)" fill="rgba(139,139,139,0.12)"/></g><g transform="translate(166 -186)"><rect width="38" height="9" rx="4.5" transform="translate(124 186)" fill="rgba(139,139,139,0.12)"/></g><g transform="translate(224 -186)"><rect width="38" height="9" rx="4.5" transform="translate(124 186)" fill="rgba(139,139,139,0.12)"/></g><g transform="translate(-124 -161)"><rect width="38" height="9" rx="4.5" transform="translate(124 186)" fill="rgba(139,139,139,0.12)"/></g><g transform="translate(-66 -161)"><rect width="38" height="9" rx="4.5" transform="translate(124 186)" fill="rgba(139,139,139,0.12)"/></g><g transform="translate(-8 -161)"><rect width="38" height="9" rx="4.5" transform="translate(124 186)" fill="rgba(139,139,139,0.12)"/></g><g transform="translate(50 -161)"><rect width="38" height="9" rx="4.5" transform="translate(124 186)" fill="rgba(139,139,139,0.12)"/></g><g transform="translate(108 -161)"><rect width="38" height="9" rx="4.5" transform="translate(124 186)" fill="rgba(139,139,139,0.12)"/></g><g transform="translate(166 -161)"><rect width="38" height="9" rx="4.5" transform="translate(124 186)" fill="rgba(139,139,139,0.12)"/></g><g transform="translate(224 -161)"><rect width="38" height="9" rx="4.5" transform="translate(124 186)" fill="rgba(139,139,139,0.12)"/></g><g transform="translate(-124 -136)"><rect width="38" height="9" rx="4.5" transform="translate(124 186)" fill="rgba(139,139,139,0.12)"/></g><g transform="translate(-66 -136)"><rect width="38" height="9" rx="4.5" transform="translate(124 186)" fill="rgba(139,139,139,0.12)"/></g><g transform="translate(-8 -136)"><rect width="38" height="9" rx="4.5" transform="translate(124 186)" fill="rgba(139,139,139,0.12)"/></g><g transform="translate(50 -136)"><rect width="38" height="9" rx="4.5" transform="translate(124 186)" fill="rgba(139,139,139,0.12)"/></g><g transform="translate(108 -136)"><rect width="38" height="9" rx="4.5" transform="translate(124 186)" fill="rgba(139,139,139,0.12)"/></g><g transform="translate(166 -136)"><rect width="38" height="9" rx="4.5" transform="translate(124 186)" fill="rgba(139,139,139,0.12)"/></g><g transform="translate(224 -136)"><rect width="38" height="9" rx="4.5" transform="translate(124 186)" fill="rgba(139,139,139,0.12)"/></g><g transform="translate(-124 -111)"><rect width="38" height="9" rx="4.5" transform="translate(124 186)" fill="rgba(139,139,139,0.12)"/></g><g transform="translate(-66 -111)"><rect width="38" height="9" rx="4.5" transform="translate(124 186)" fill="rgba(139,139,139,0.12)"/></g><g transform="translate(-8 -111)"><rect width="38" height="9" rx="4.5" transform="translate(124 186)" fill="rgba(139,139,139,0.12)"/></g><g transform="translate(50 -111)"><rect width="38" height="9" rx="4.5" transform="translate(124 186)" fill="rgba(139,139,139,0.12)"/></g><g transform="translate(108 -111)"><rect width="38" height="9" rx="4.5" transform="translate(124 186)" fill="rgba(139,139,139,0.12)"/></g><g transform="translate(166 -111)"><rect width="38" height="9" rx="4.5" transform="translate(124 186)" fill="rgba(139,139,139,0.12)"/></g><g transform="translate(224 -111)"><rect width="38" height="9" rx="4.5" transform="translate(124 186)" fill="rgba(139,139,139,0.12)"/></g><g transform="translate(-124 -86)"><rect width="38" height="9" rx="4.5" transform="translate(124 186)" fill="rgba(139,139,139,0.12)"/></g><g transform="translate(-66 -86)"><rect width="38" height="9" rx="4.5" transform="translate(124 186)" fill="rgba(139,139,139,0.12)"/></g><g transform="translate(-8 -86)"><rect width="38" height="9" rx="4.5" transform="translate(124 186)" fill="rgba(139,139,139,0.12)"/></g><g transform="translate(50 -86)"><rect width="38" height="9" rx="4.5" transform="translate(124 186)" fill="rgba(139,139,139,0.12)"/></g><g transform="translate(108 -86)"><rect width="38" height="9" rx="4.5" transform="translate(124 186)" fill="rgba(139,139,139,0.12)"/></g><g transform="translate(166 -86)"><rect width="38" height="9" rx="4.5" transform="translate(124 186)" fill="rgba(139,139,139,0.12)"/></g><g transform="translate(224 -86)"><rect width="38" height="9" rx="4.5" transform="translate(124 186)" fill="rgba(139,139,139,0.12)"/></g><g transform="translate(-124 -61)"><rect width="38" height="9" rx="4.5" transform="translate(124 186)" fill="rgba(139,139,139,0.12)"/></g><g transform="translate(-66 -61)"><rect width="38" height="9" rx="4.5" transform="translate(124 186)" fill="rgba(139,139,139,0.12)"/></g><g transform="translate(-8 -61)"><rect width="38" height="9" rx="4.5" transform="translate(124 186)" fill="rgba(139,139,139,0.12)"/></g><g transform="translate(50 -61)"><rect width="38" height="9" rx="4.5" transform="translate(124 186)" fill="rgba(139,139,139,0.12)"/></g><g transform="translate(108 -61)"><rect width="38" height="9" rx="4.5" transform="translate(124 186)" fill="rgba(139,139,139,0.12)"/></g><g transform="translate(166 -61)"><rect width="38" height="9" rx="4.5" transform="translate(124 186)" fill="rgba(139,139,139,0.12)"/></g><g transform="translate(224 -61)"><rect width="38" height="9" rx="4.5" transform="translate(124 186)" fill="rgba(139,139,139,0.12)"/></g><g transform="translate(-124 -36)"><rect width="38" height="9" rx="4.5" transform="translate(124 186)" fill="rgba(139,139,139,0.12)"/></g><g transform="translate(-66 -36)"><rect width="38" height="9" rx="4.5" transform="translate(124 186)" fill="rgba(139,139,139,0.12)"/></g><g transform="translate(-8 -36)"><rect width="38" height="9" rx="4.5" transform="translate(124 186)" fill="rgba(139,139,139,0.12)"/></g><g transform="translate(50 -36)"><rect width="38" height="9" rx="4.5" transform="translate(124 186)" fill="rgba(139,139,139,0.12)"/></g><g transform="translate(108 -36)"><rect width="38" height="9" rx="4.5" transform="translate(124 186)" fill="rgba(139,139,139,0.12)"/></g><g transform="translate(166 -36)"><rect width="38" height="9" rx="4.5" transform="translate(124 186)" fill="rgba(139,139,139,0.12)"/></g><g transform="translate(224 -36)"><rect width="38" height="9" rx="4.5" transform="translate(124 186)" fill="rgba(139,139,139,0.12)"/></g><g transform="translate(-124 -11)"><rect width="38" height="9" rx="4.5" transform="translate(124 186)" fill="rgba(139,139,139,0.12)"/></g><g transform="translate(-66 -11)"><rect width="38" height="9" rx="4.5" transform="translate(124 186)" fill="rgba(139,139,139,0.12)"/></g><g transform="translate(-8 -11)"><rect width="38" height="9" rx="4.5" transform="translate(124 186)" fill="rgba(139,139,139,0.12)"/></g><g transform="translate(50 -11)"><rect width="38" height="9" rx="4.5" transform="translate(124 186)" fill="rgba(139,139,139,0.12)"/></g><g transform="translate(108 -11)"><rect width="38" height="9" rx="4.5" transform="translate(124 186)" fill="rgba(139,139,139,0.12)"/></g><g transform="translate(166 -11)"><rect width="38" height="9" rx="4.5" transform="translate(124 186)" fill="rgba(139,139,139,0.12)"/></g><g transform="translate(224 -11)"><rect width="38" height="9" rx="4.5" transform="translate(124 186)" fill="rgba(139,139,139,0.12)"/></g><g transform="translate(-124 14)"><rect width="38" height="9" rx="4.5" transform="translate(124 186)" fill="rgba(139,139,139,0.12)"/></g><g transform="translate(-66 14)"><rect width="38" height="9" rx="4.5" transform="translate(124 186)" fill="rgba(139,139,139,0.12)"/></g><g transform="translate(-8 14)"><rect width="38" height="9" rx="4.5" transform="translate(124 186)" fill="rgba(139,139,139,0.12)"/></g><g transform="translate(50 14)"><rect width="38" height="9" rx="4.5" transform="translate(124 186)" fill="rgba(139,139,139,0.12)"/></g><g transform="translate(108 14)"><rect width="38" height="9" rx="4.5" transform="translate(124 186)" fill="rgba(139,139,139,0.12)"/></g><g transform="translate(166 14)"><rect width="38" height="9" rx="4.5" transform="translate(124 186)" fill="rgba(139,139,139,0.12)"/></g><g transform="translate(224 14)"><rect width="38" height="9" rx="4.5" transform="translate(124 186)" fill="rgba(139,139,139,0.12)"/></g></g><g transform="translate(175 228)" fill="#fff" stroke="#e4e4e4" stroke-width="3"><rect width="328" height="142" rx="3" stroke="none"/><rect x="1.5" y="1.5" width="325" height="139" rx="1.5" fill="none"/></g><rect width="300" height="18" rx="9" transform="translate(189 244)" fill="#dde2eb"/><rect width="300" height="19" rx="9.5" transform="translate(189 273)" fill="#f1efef"/><rect width="300" height="52" rx="5" transform="translate(189 305)" fill="#f2f2f2"/></g></svg>