<svg xmlns="http://www.w3.org/2000/svg" width="84.417" height="84.851" viewBox="0 0 84.417 84.851"><g transform="translate(-365.583 -38.149)"><rect width="83" height="83" transform="translate(367 40)" fill="red" opacity="0"/><g transform="translate(381.638 50.292)"><ellipse cx="8.135" cy="8.135" rx="8.135" ry="8.135" transform="translate(4.769 0)"/><path d="M13.789,1.558c1.078,0,1.256-1.816,2.988-1.527,4.9.759,9.065,3.995,9.065,7.85,0,4.541-5.785,8.222-12.921,8.222S0,12.422,0,7.881C0,4.512,3.185,1.615,8.458.162,11.09.136,11.948,1.558,13.789,1.558Z" transform="translate(0 16.594)"/></g><g transform="translate(365.583 47.506) rotate(-11)" fill="none" stroke="#000" stroke-width="5"><circle cx="24.519" cy="24.519" r="24.519" stroke="none"/><circle cx="24.519" cy="24.519" r="22.019" fill="none"/></g><rect width="7.519" height="31.746" rx="3.759" transform="translate(411.863 88.663) rotate(-49)"/><rect width="3.342" height="6.683" rx="1.671" transform="translate(409.861 84.6) rotate(-49)"/><rect width="3.453" height="9.67" rx="1.727" transform="translate(447.717 86.048) rotate(180)"/><rect width="3" height="10" rx="1.5" transform="translate(373 96)"/><rect width="3.453" height="9.67" rx="1.727" transform="translate(447.717 73.616) rotate(180)"/><rect width="3.453" height="9.67" rx="1.727" transform="translate(447.717 110.913) rotate(180)"/><rect width="3" height="10" rx="1.5" transform="translate(373 108)"/><rect width="3.453" height="9.67" rx="1.727" transform="translate(447.717 61.184) rotate(180)"/><rect width="3.453" height="9.67" rx="1.727" transform="translate(447.717 98.481) rotate(180)"/><rect width="3.453" height="9.67" rx="1.727" transform="translate(390.39 115.057) rotate(90)"/><rect width="3.453" height="9.67" rx="1.727" transform="translate(404.894 115.057) rotate(90)"/><rect width="4" height="10" rx="2" transform="translate(438 48) rotate(-90)"/><rect width="3.453" height="9.67" rx="1.727" transform="translate(433.903 115.057) rotate(90)"/><rect width="3.453" height="9.67" rx="1.727" transform="translate(447.717 115.057) rotate(90)"/><rect width="3.453" height="9.67" rx="1.727" transform="translate(419.399 115.057) rotate(90)"/><rect width="4" height="10" rx="2" transform="translate(424 48) rotate(-90)"/></g></svg>