<svg xmlns="http://www.w3.org/2000/svg" xmlns:xlink="http://www.w3.org/1999/xlink" width="512" height="512" viewBox="0 0 512 512"><defs><clipPath id="b"><rect width="512" height="512"/></clipPath></defs><g id="a" clip-path="url(#b)"><path d="M203,19c112.114,0,188.333,71.886,188.333,184S315.114,379,203,379,16.667,315.114,16.667,203,90.886,19,203,19Z" transform="translate(58 57)" fill="#1f3d5e" opacity="0.71"/><g transform="translate(11 76)" fill="none" stroke="#fff" stroke-width="2"><circle cx="14" cy="14" r="14" stroke="none"/><circle cx="14" cy="14" r="13" fill="none"/></g><g transform="translate(436 439)" fill="none" stroke="#fff" stroke-width="2"><ellipse cx="8.5" cy="9" rx="8.5" ry="9" stroke="none"/><ellipse cx="8.5" cy="9" rx="7.5" ry="8" fill="none"/></g><g transform="translate(25 309)" fill="none"><path d="M14.5,0,29,26H0Z" stroke="none"/><path d="M 14.5 4.106206893920898 L 3.405384063720703 24 L 25.5946159362793 24 L 14.5 4.106206893920898 M 14.5 0 L 29 26 L 0 26 L 14.5 0 Z" stroke="none" fill="#fff"/></g><g transform="translate(485.701 155.397) rotate(60)" fill="none"><path d="M14.632,0,29.265,25.448H0Z" stroke="none"/><path d="M 14.63249969482422 4.012262344360352 L 3.457050323486328 23.44782257080078 L 25.80794906616211 23.44782257080078 L 14.63249969482422 4.012262344360352 M 14.63249969482422 1.9073486328125e-06 L 29.26499938964844 25.44782257080078 L 0 25.44782257080078 L 14.63249969482422 1.9073486328125e-06 Z" stroke="none" fill="#fff"/></g><g transform="translate(395 50)" fill="none" stroke="#fff" stroke-width="2"><rect width="27" height="26" stroke="none"/><rect x="1" y="1" width="25" height="24" fill="none"/></g><g transform="translate(125.346 227.728)"><path d="M38.062,52.669a12.885,12.885,0,0,1-5.23,5.349,17.679,17.679,0,0,1-8.95,2.058A20.619,20.619,0,0,1,14.694,58.1a16.768,16.768,0,0,1-6.417-5.308A14.828,14.828,0,0,1,5.5,45.577H9.227a14.486,14.486,0,0,0,2.022,5.23,12.985,12.985,0,0,0,4.792,4.514A15.361,15.361,0,0,0,23.8,57.142q5.86,0,9.032-3.249A11.107,11.107,0,0,0,36,45.814a10.641,10.641,0,0,0-1.981-6.732,13.175,13.175,0,0,0-4.87-3.884,61.364,61.364,0,0,0-7.882-2.852A65.09,65.09,0,0,1,12.8,29.3,13.565,13.565,0,0,1,7.447,24.82,13.219,13.219,0,0,1,5.27,16.9a12.886,12.886,0,0,1,4.2-9.9q4.2-3.882,11.647-3.884,7.524,0,11.921,3.761a15.617,15.617,0,0,1,5.426,8.991h-3.8a12.644,12.644,0,0,0-4.2-6.773Q27.053,6.042,21.116,6.04a13.027,13.027,0,0,0-8.754,2.811,9.906,9.906,0,0,0-3.286,7.959,10,10,0,0,0,1.9,6.376,12.759,12.759,0,0,0,4.714,3.724,57.021,57.021,0,0,0,7.645,2.734,60.529,60.529,0,0,1,8.635,3.131,14.46,14.46,0,0,1,5.5,4.632,13.8,13.8,0,0,1,2.259,8.32A15.293,15.293,0,0,1,38.062,52.669Z" transform="translate(-5.27 -2.882)" fill="#fff"/><path d="M102.9,35.949V60.193H99.34V4.34h15.367q9.269,0,13.783,4.2T133,20.263q0,7.688-4.673,11.684t-13.628,4Zm26.461-15.686q0-6.257-3.487-9.507T114.474,7.507H102.909v25.27h11.565Q129.364,32.778,129.366,20.263Z" transform="translate(-56.408 -3.55)" fill="#fff"/><path d="M193.684,7.352V30.8h22.578v2.852H193.684V57.181H218.64v3.012H190.12V4.34h28.52V7.352H193.684Z" transform="translate(-105.757 -3.55)" fill="#fff"/><path d="M273.354,7.352V30.8h22.578v2.852H273.354V57.181H298.31v3.012H269.79V4.34h28.52V7.352H273.354Z" transform="translate(-149.066 -3.55)" fill="#fff"/><path d="M355.964,32.225l27.328,27.963h-4.514L353.034,33.731V60.188H349.47V4.34h3.564V30.8L378.779,4.34h4.514Z" transform="translate(-192.381 -3.55)" fill="#fff"/><path d="M449.622,4.17V60.1H440.59V4.17Z" transform="translate(-241.915 -3.458)" fill="#fff"/><path d="M520.392,6.252a26.046,26.046,0,0,1,9.9,10.182A30.109,30.109,0,0,1,533.9,31.207,30.034,30.034,0,0,1,530.3,45.981a26.327,26.327,0,0,1-9.9,10.219,28.832,28.832,0,0,1-28.2,0,26.576,26.576,0,0,1-9.94-10.219,29.835,29.835,0,0,1-3.642-14.773,29.835,29.835,0,0,1,3.642-14.773,26.322,26.322,0,0,1,9.94-10.182,29.116,29.116,0,0,1,28.2,0Zm-23.646,7.211a16.752,16.752,0,0,0-6.535,7.051,23.3,23.3,0,0,0-2.337,10.693A23.3,23.3,0,0,0,490.211,41.9a16.751,16.751,0,0,0,6.535,7.051,18.608,18.608,0,0,0,9.584,2.455,18.245,18.245,0,0,0,9.465-2.455,16.843,16.843,0,0,0,6.5-7.051,23.3,23.3,0,0,0,2.337-10.693A23.3,23.3,0,0,0,522.3,20.514a16.814,16.814,0,0,0-6.5-7.051A18.26,18.26,0,0,0,506.331,11,18.611,18.611,0,0,0,496.747,13.463Z" transform="translate(-262.583 -2.61)" fill="#fff"/></g></g></svg>