<?xml version="1.0" encoding="utf-8"?><svg xmlns="http://www.w3.org/2000/svg" xmlns:xlink="http://www.w3.org/1999/xlink"><symbol viewBox="0 0 206.384 172" id="auto-icon" xmlns="http://www.w3.org/2000/svg"><path fill="none" d="M.384 0h206v172h-206z"/><path d="M204.86 79.661l-24.121 24.842a5.174 5.174 0 0 1-7.2 0l-24.025-24.842c-2.856-3.432-.936-4.608 1.032-6.576h21.985c-6.072-33.482-34.874-58.828-69.6-58.828a70.685 70.685 0 0 0-62.188 37.49l-12-4.872c13.969-27.17 41.93-45.7 74.164-45.7 41.834 0 76.4 31.2 82.589 71.932h18.241c2.064 1.92 3.1 4.608 1.128 6.552zM32.65 74.405l24.145 24.841c1.968 1.944.936 4.608-1.032 6.576H34.858c8.4 30.194 35.69 52.275 68.092 52.275a70.324 70.324 0 0 0 59-32.234l12.1 4.92a83.15 83.15 0 0 1-71.116 40.37c-39.554 0-72.556-27.938-81.269-65.38H2.48c-1.968-1.944-3.888-3.168-1.032-6.576l24-24.841a5.129 5.129 0 0 1 7.2.048z"/><text transform="translate(67.384 121)" font-size="105" font-family="SegoeUIBlack, Segoe UI"><tspan x="0" y="0">A</tspan></text></symbol><symbol viewBox="0 0 120 120" id="candidate-manager" xmlns="http://www.w3.org/2000/svg"><rect width="74" height="74" x="23" y="23" ry="4.14" opacity=".7" fill="none"/><path d="M51.446 47.652A10.716 10.716 0 0 1 40.73 58.368a10.716 10.716 0 0 1-10.716-10.716A10.716 10.716 0 0 1 40.73 36.937a10.716 10.716 0 0 1 10.716 10.715zM41.896 60.848c1.42 0 1.655-2.392 3.939-2.012 6.448 1 11.942 5.262 11.942 10.341 0 5.982-7.62 10.832-17.02 10.832-9.401 0-17.024-4.85-17.024-10.832 0-4.438 4.195-8.254 11.142-10.168 3.465-.034 4.596 1.839 7.021 1.839z"/><path d="M92.817 35.459a6.922 6.922 0 0 1-6.923 6.922 6.922 6.922 0 0 1-6.922-6.922 6.922 6.922 0 0 1 6.922-6.922 6.922 6.922 0 0 1 6.923 6.922zM86.647 43.982c.917 0 1.069-1.544 2.543-1.299 4.164.646 7.713 3.4 7.713 6.68 0 3.864-4.922 6.996-10.994 6.996-6.071 0-10.995-3.132-10.995-6.996 0-2.868 2.71-5.332 7.198-6.569 2.238-.022 2.968 1.188 4.535 1.188z" opacity=".7"/><path d="M65.507 39.81c.606 0 1.094.51 1.094 1.145v37.101c0 .635-.488 1.145-1.094 1.145-.606 0-1.094-.51-1.094-1.145V40.955c0-.634.488-1.145 1.094-1.145z"/><path d="M64.632 40.726c0-.634.488-1.145 1.094-1.145h6.126c.606 0 1.094.51 1.094 1.145 0 .634-.488 1.145-1.094 1.145h-6.126c-.606 0-1.094-.51-1.094-1.145zM64.632 78.285c0-.634.488-1.145 1.094-1.145h6.126c.606 0 1.094.51 1.094 1.145s-.488 1.145-1.094 1.145h-6.126c-.606 0-1.094-.51-1.094-1.145z"/><path d="M92.093 72.109a6.922 6.922 0 0 1-6.922 6.922 6.922 6.922 0 0 1-6.922-6.922 6.922 6.922 0 0 1 6.922-6.923 6.922 6.922 0 0 1 6.922 6.923zM85.924 80.632c.917 0 1.069-1.545 2.542-1.3 4.164.647 7.714 3.4 7.714 6.68 0 3.864-4.923 6.997-10.994 6.997-6.072 0-10.995-3.133-10.995-6.996 0-2.868 2.71-5.332 7.197-6.57 2.24-.021 2.969 1.189 4.536 1.189z" opacity=".7"/><path d="M56.918 59.022c0-.635.488-1.145 1.094-1.145h6.126c.606 0 1.094.51 1.094 1.145 0 .634-.488 1.145-1.094 1.145h-6.126c-.606 0-1.094-.51-1.094-1.145z"/></symbol><symbol viewBox="0 0 120 120" id="cat-lib" xmlns="http://www.w3.org/2000/svg"><g transform="translate(-856 -41)"><rect width="5" height="86" rx="2.5" transform="rotate(90 432 528)" fill="#404040"/><rect width="5" height="19" rx="2.5" transform="translate(955.5 96.5)" fill="#404040"/><rect width="5" height="29" rx="2.5" transform="translate(915.5 86.5)" fill="#404040"/><rect width="5" height="19" rx="2.5" transform="translate(873.5 96.5)" fill="#404040"/><g transform="translate(898 64)" fill="none" stroke="#404040" stroke-width="5"><rect width="39" height="25" rx="3" stroke="none"/><rect x="2.5" y="2.5" width="34" height="20" rx=".5"/></g><g transform="translate(864 111)" fill="none" stroke="#404040" stroke-width="5"><rect width="25" height="25" rx="3" stroke="none"/><rect x="2.5" y="2.5" width="20" height="20" rx=".5"/></g><g transform="translate(905 111)" fill="none" stroke="#404040" stroke-width="5"><rect width="25" height="25" rx="3" stroke="none"/><rect x="2.5" y="2.5" width="20" height="20" rx=".5"/></g><g transform="translate(945 111)" fill="none" stroke="#404040" stroke-width="5"><rect width="25" height="25" rx="3" stroke="none"/><rect x="2.5" y="2.5" width="20" height="20" rx=".5"/></g><rect width="23" height="2" rx="1" transform="translate(906 73)" fill="#404040"/><rect width="9" height="2" rx="1" transform="translate(872 121)" fill="#404040"/><rect width="9" height="2" rx="1" transform="translate(913 121)" fill="#404040"/><rect width="9" height="2" rx="1" transform="translate(953 121)" fill="#404040"/><rect width="23" height="2" rx="1" transform="translate(906 77)" fill="#404040"/><rect width="9" height="2" rx="1" transform="translate(872 125)" fill="#404040"/><rect width="9" height="2" rx="1" transform="translate(913 125)" fill="#404040"/><rect width="9" height="2" rx="1" transform="translate(953 125)" fill="#404040"/></g></symbol><symbol viewBox="0 0 63 52" id="daily-icon" xmlns="http://www.w3.org/2000/svg"><g transform="translate(-1740 -77)"><g transform="translate(1740 77)" fill="none" stroke="#404040" stroke-width="5"><rect width="63" height="52" rx="3" stroke="none"/><rect x="2.5" y="2.5" width="58" height="47" rx=".5"/></g><rect width="57" height="12" rx="1" transform="translate(1743 81)" fill="#404040"/><text transform="translate(1750 118)" fill="#404040" font-size="26" font-family="Roboto-Black, Roboto" font-weight="800" opacity=".85"><tspan x="0" y="0">9</tspan></text><rect width="26" height="4" rx="2" transform="translate(1769 99)" fill="#404040" opacity=".85"/><rect width="15" height="4" rx="2" transform="translate(1769 107)" fill="#404040" opacity=".85"/><rect width="15" height="4" rx="2" transform="translate(1769 115)" fill="#404040" opacity=".85"/><circle cx="4" cy="4" r="4" transform="translate(1787 109)" fill="#404040" opacity=".85"/></g></symbol><symbol viewBox="0 0 120 120" id="dashboard" xmlns="http://www.w3.org/2000/svg"><rect width="74.955" height="74.955" x="22.522" y="22.522" ry="3.255" fill="none"/><path d="M31.861 45.228h6.421c2.767 0 4.994 2.001 4.994 4.487v44.228c0 2.485-2.227 4.487-4.994 4.487h-6.42c-2.767 0-4.994-2.002-4.994-4.487V49.715c0-2.486 2.227-4.487 4.993-4.487z" opacity=".8"/><path d="M55.404 22.153h7.134c2.767 0 4.994 2 4.994 4.487v67.303c0 2.485-2.227 4.487-4.994 4.487h-7.134c-2.767 0-4.994-2.002-4.994-4.487V26.64c0-2.486 2.227-4.487 4.994-4.487z"/><path d="M79.66 70.867h6.42c2.767 0 4.995 2.002 4.995 4.487v18.589c0 2.485-2.228 4.487-4.994 4.487h-6.42c-2.767 0-4.995-2.002-4.995-4.487V75.354c0-2.485 2.228-4.487 4.994-4.487z" opacity=".6"/></symbol><symbol viewBox="0 0 132 381" id="drag" xmlns="http://www.w3.org/2000/svg"><defs><clipPath id="b"><path fill="none" d="M0 0h137v389H0z"/></clipPath><clipPath id="a"><path d="M0 0h512v512H0z"/></clipPath></defs><g clip-path="url(#a)" transform="matrix(.79326 0 0 .79326 -135.487 -9.797)"><g data-name="Group 1"><g data-name="Repeat Grid 1" transform="translate(188 62)" clip-path="url(#b)"><circle data-name="Ellipse 1" cx="28.5" cy="28.5" r="28.5"/><circle data-name="Ellipse 1" cx="28.5" cy="28.5" r="28.5" transform="translate(75)"/><circle data-name="Ellipse 1" cx="28.5" cy="28.5" r="28.5" transform="translate(0 81)"/><circle data-name="Ellipse 1" cx="28.5" cy="28.5" r="28.5" transform="translate(75 81)"/><circle data-name="Ellipse 1" cx="28.5" cy="28.5" r="28.5" transform="translate(0 162)"/><circle data-name="Ellipse 1" cx="28.5" cy="28.5" r="28.5" transform="translate(75 162)"/><circle data-name="Ellipse 1" cx="28.5" cy="28.5" r="28.5" transform="translate(0 243)"/><circle data-name="Ellipse 1" cx="28.5" cy="28.5" r="28.5" transform="translate(75 243)"/><circle data-name="Ellipse 1" cx="28.5" cy="28.5" r="28.5" transform="translate(0 324)"/><circle data-name="Ellipse 1" cx="28.5" cy="28.5" r="28.5" transform="translate(75 324)"/></g></g></g></symbol><symbol viewBox="0 0 120 120" id="email-lib" xmlns="http://www.w3.org/2000/svg"><path d="M17.753 25.085h83.571v30.67h4.9V24.23a4.014 4.014 0 0 0-3.974-4.045H16.836a4.014 4.014 0 0 0-3.972 4.045v58.725A4.014 4.014 0 0 0 16.836 87h17.707v-4.9h-16.79z" fill="#404040"/><path d="M30 34h41c1.108 0 2 .892 2 2s-.892 2-2 2H30c-1.108 0-2-.892-2-2s.892-2 2-2zM41 44h48c1.108 0 2 .892 2 2s-.892 2-2 2H41c-1.108 0-2-.892-2-2s.892-2 2-2zM35 45.5a3.5 3.5 0 0 1-3.5 3.5 3.5 3.5 0 0 1-3.5-3.5 3.5 3.5 0 0 1 3.5-3.5 3.5 3.5 0 0 1 3.5 3.5z" fill="#404040"/><g fill="none" stroke="#404040" stroke-width="4"><path d="M43 60h59c2.216 0 4 1.784 4 4v31c0 2.216-1.784 4-4 4H43c-2.216 0-4-1.784-4-4V64c0-2.216 1.784-4 4-4z" stroke="none"/><path d="M43 62h59c1.108 0 2 .892 2 2v31c0 1.108-.892 2-2 2H43c-1.108 0-2-.892-2-2V64c0-1.108.892-2 2-2z"/></g><path d="M43.312 63.087l30.07 16.668c.692.383.818 1.482.284 2.444-.533.962-1.535 1.436-2.223 1.054l-30.07-16.668c-.693-.384-.817-1.482-.284-2.444.534-.962 1.53-1.438 2.223-1.054z" fill="#404040"/><path d="M102.439 66.335L72.892 83.393c-.68.393-1.681-.068-2.231-1.02-.55-.953-.45-2.05.231-2.444l29.547-17.058c.68-.393 1.681.068 2.231 1.02.55.954.45 2.051-.231 2.444z" fill="#404040"/></symbol><symbol viewBox="0 0 24 24" id="go-back" xmlns="http://www.w3.org/2000/svg"><path fill="none" d="M0 0h24v24H0V0z"/><path d="M19 11H7.83l4.88-4.88c.39-.39.39-1.03 0-1.42a.996.996 0 0 0-1.41 0l-6.59 6.59a.996.996 0 0 0 0 1.41l6.59 6.59a.996.996 0 1 0 1.41-1.41L7.83 13H19c.55 0 1-.45 1-1s-.45-1-1-1z"/></symbol><symbol viewBox="0 0 120 120" id="hiring-flow" xmlns="http://www.w3.org/2000/svg"><g transform="translate(-344 -19)"><g transform="translate(377.157 46.011)" fill="#404040"><ellipse cx="7.673" cy="7.673" rx="7.673" ry="7.673" transform="translate(4.498)"/><path d="M13.006 17.122c1.016 0 1.185-1.712 2.819-1.44 4.617.716 8.55 3.768 8.55 7.4 0 4.283-5.456 7.755-12.187 7.755S0 27.369 0 23.086c0-3.179 3-5.91 7.978-7.281 2.482-.025 3.291 1.317 5.028 1.317z"/></g><g transform="rotate(-11 406.287 -1858.132)" fill="none" stroke="#404040" stroke-width="5"><ellipse cx="23.127" cy="23.127" rx="23.127" ry="23.127" stroke="none"/><ellipse cx="23.127" cy="23.127" rx="20.627" ry="20.627"/></g><rect width="7.092" height="29.943" rx="3.546" transform="rotate(-49 293.023 -403.973)" fill="#404040"/><rect width="3.152" height="6.304" rx="1.576" transform="rotate(-49 287.874 -403.818)" fill="#404040"/><rect width="3.257" height="9.12" rx="1.629" transform="rotate(180 219.742 39.869)" fill="#404040"/><rect width="3" height="9" rx="1.5" transform="translate(369 89)" fill="#404040"/><rect width="3.257" height="9.12" rx="1.629" transform="rotate(180 219.742 34.006)" fill="#404040"/><rect width="3.257" height="9.12" rx="1.629" transform="rotate(180 219.742 51.595)" fill="#404040"/><rect width="3" height="10" rx="1.5" transform="translate(369 100)" fill="#404040"/><rect width="3.257" height="9.12" rx="1.629" transform="rotate(180 219.742 28.143)" fill="#404040"/><rect width="3.257" height="9.12" rx="1.629" transform="rotate(180 219.742 45.732)" fill="#404040"/><rect width="3.257" height="9.12" rx="1.629" transform="rotate(90 139.156 246.256)" fill="#404040"/><rect width="3.257" height="9.12" rx="1.629" transform="rotate(90 145.997 253.096)" fill="#404040"/><rect width="4" height="8" rx="2" transform="matrix(0 -1 1 0 431 44)" fill="#404040"/><rect width="3.257" height="9.12" rx="1.629" transform="rotate(90 159.678 266.777)" fill="#404040"/><rect width="3.257" height="9.12" rx="1.629" transform="rotate(90 166.192 273.291)" fill="#404040"/><rect width="3.257" height="9.12" rx="1.629" transform="rotate(90 152.837 259.936)" fill="#404040"/><rect width="4" height="9" rx="2" transform="matrix(0 -1 1 0 417 44)" fill="#404040"/></g></symbol><symbol viewBox="0 0 122.417 122.851" id="hiring-flow1" xmlns="http://www.w3.org/2000/svg"><path d="M28.348 24.425h65.72a4.13 4.13 0 0 1 4.14 4.14v65.72a4.13 4.13 0 0 1-4.14 4.14h-65.72a4.13 4.13 0 0 1-4.14-4.14v-65.72a4.13 4.13 0 0 1 4.14-4.14z" opacity=".7" fill="none"/><path d="M47.47 25.857a22.69 22.69 0 0 0-22.689 22.69 22.69 22.69 0 0 0 22.69 22.69 22.69 22.69 0 0 0 22.69-22.69 22.69 22.69 0 0 0-22.69-22.69zm.278 7.264a7.517 7.517 0 0 1 7.518 7.518 7.517 7.517 0 0 1-7.518 7.515 7.517 7.517 0 0 1-7.518-7.515 7.517 7.517 0 0 1 7.518-7.518zm3.043 15.346c.16-.02.337-.018.537.015 4.523.703 8.377 3.692 8.377 7.254 0 4.197-5.345 7.596-11.94 7.596-6.593 0-11.94-3.397-11.94-7.594 0-3.114 2.942-5.79 7.816-7.133 2.431-.024 3.225 1.29 4.925 1.29.872 0 1.107-1.286 2.225-1.428z"/><circle cx="30.326" cy="46.77" r="38.012" transform="rotate(-11)" fill="none"/><path d="M65.57 66.194l.307-.353a2.635 2.635 0 0 1 3.726-.26l14.336 12.462a2.635 2.635 0 0 1 .26 3.726l-.306.353a2.635 2.635 0 0 1-3.726.26L65.83 69.92a2.635 2.635 0 0 1-.26-3.726z"/><path d="M62.918 63.66a1.54 1.54 0 0 1 2.178-.153l2.33 2.026a1.54 1.54 0 0 1 .153 2.178 1.54 1.54 0 0 1-2.178.152l-2.331-2.025a1.54 1.54 0 0 1-.152-2.179zM95.292 66.163a1.592 1.592 0 0 1-1.596-1.596v-5.744c0-.884.712-1.596 1.596-1.596.884 0 1.595.712 1.595 1.596v5.744c0 .884-.711 1.596-1.595 1.596zM29.231 75.418c.884 0 1.596.712 1.596 1.596v5.744c0 .884-.712 1.596-1.596 1.596a1.592 1.592 0 0 1-1.595-1.596v-5.744c0-.884.712-1.596 1.595-1.596zM95.292 54.674a1.592 1.592 0 0 1-1.596-1.595v-5.745c0-.884.712-1.595 1.596-1.595.884 0 1.595.711 1.595 1.595v5.745c0 .884-.711 1.595-1.595 1.595zM95.292 89.14a1.592 1.592 0 0 1-1.596-1.595V81.8c0-.884.712-1.596 1.596-1.596.884 0 1.595.712 1.595 1.596v5.744c0 .884-.711 1.596-1.595 1.596zM29.231 86.907c.884 0 1.596.711 1.596 1.595v5.745c0 .884-.712 1.595-1.596 1.595a1.592 1.592 0 0 1-1.595-1.595v-5.745c0-.884.712-1.595 1.595-1.595zM95.292 43.186a1.592 1.592 0 0 1-1.596-1.596v-5.744c0-.884.712-1.596 1.596-1.596.884 0 1.595.712 1.595 1.596v5.744c0 .884-.711 1.596-1.595 1.596zM95.292 77.652a1.592 1.592 0 0 1-1.596-1.596v-5.744c0-.884.712-1.596 1.596-1.596.884 0 1.595.712 1.595 1.596v5.744c0 .884-.711 1.596-1.595 1.596zM43.912 94.566c0 .884-.712 1.595-1.596 1.595h-5.744a1.592 1.592 0 0 1-1.596-1.595c0-.884.712-1.596 1.596-1.596h5.744c.884 0 1.596.712 1.596 1.596zM57.315 94.566c0 .884-.712 1.595-1.596 1.595h-5.744a1.592 1.592 0 0 1-1.596-1.595c0-.884.712-1.596 1.596-1.596h5.744c.884 0 1.596.712 1.596 1.596zM88.27 29.144c0-.884.712-1.596 1.596-1.596h5.745c.884 0 1.595.712 1.595 1.596 0 .884-.711 1.596-1.595 1.596h-5.745a1.592 1.592 0 0 1-1.595-1.596zM84.122 94.566c0 .884-.712 1.595-1.596 1.595h-5.744a1.592 1.592 0 0 1-1.596-1.595c0-.884.712-1.596 1.596-1.596h5.744c.884 0 1.596.712 1.596 1.596zM96.887 94.566c0 .884-.711 1.595-1.595 1.595h-5.745a1.592 1.592 0 0 1-1.595-1.595c0-.884.711-1.596 1.595-1.596h5.745c.884 0 1.595.712 1.595 1.596zM70.719 94.566c0 .884-.712 1.595-1.596 1.595h-5.744a1.592 1.592 0 0 1-1.596-1.595c0-.884.712-1.596 1.596-1.596h5.744c.884 0 1.596.712 1.596 1.596zM74.867 29.144c0-.884.712-1.596 1.596-1.596h5.744c.884 0 1.596.712 1.596 1.596 0 .884-.712 1.596-1.596 1.596h-5.744a1.592 1.592 0 0 1-1.596-1.596z"/></symbol><symbol viewBox="0 0 220.046 213.861" id="import" xmlns="http://www.w3.org/2000/svg"><path d="M13.325 196.106V50.326h83.469V37.001H11.008A10.923 10.923 0 0 0 0 47.811v150.792a10.923 10.923 0 0 0 11.008 10.808h159.8a10.923 10.923 0 0 0 11.008-10.808v-75.4H168.5v72.9z"/><path d="M113.116 0l106.93 106.93-106.93 106.932L6.186 106.93z" fill="none"/><path d="M168.177 46.77l-78.095 74.284.001-43.483a6.351 6.351 0 0 0-6.326-6.327 6.275 6.275 0 0 0-6.282 6.282v58.723a6.275 6.275 0 0 0 6.282 6.281h58.72a6.282 6.282 0 0 0 .003-12.563l-43.487-.003 78.094-74.284a6.319 6.319 0 0 0 0-8.91 6.319 6.319 0 0 0-8.91 0z"/></symbol><symbol viewBox="0 0 120 120" id="intro-lib" xmlns="http://www.w3.org/2000/svg"><g transform="translate(-991 -34)"><g transform="translate(1009 61)" fill="none" stroke="#404040" stroke-width="5"><rect width="83" height="51" rx="3" stroke="none"/><rect x="2.5" y="2.5" width="78" height="46" rx=".5"/></g><rect width="63" height="4" rx="2" transform="translate(1019 76)" fill="#404040"/><rect width="45" height="4" rx="2" transform="translate(1019 85)" fill="#404040"/><rect width="25" height="4" rx="2" transform="translate(1019 94)" fill="#404040"/><rect width="7" height="18" rx="2" transform="translate(1076 110)" fill="#404040"/><rect width="7" height="18" rx="2" transform="translate(1019 110)" fill="#404040"/><path d="M1073.5 87l6.5 10h-13z" fill="#404040"/></g></symbol><symbol viewBox="0 0 74 74" id="invoice" xmlns="http://www.w3.org/2000/svg"><g transform="translate(-1403 -46)"><rect width="74" height="74" rx="4.14" transform="translate(1403 46)" fill="none" opacity=".7"/><rect width="45" height="52" rx="2" transform="translate(1418 57)" opacity=".82"/><rect width="39" height="46" rx="2" transform="translate(1421 60)" fill="#fff"/><rect width="35" height="5" rx="2.5" transform="translate(1423 82)" opacity=".8"/><rect width="22" height="5" rx="2.5" transform="translate(1436 64)"/><rect width="22" height="5" rx="2.5" transform="translate(1436 72)"/><rect width="23" height="5" rx="2.5" transform="translate(1423 90)" opacity=".8"/><rect width="23" height="5" rx="2.5" transform="translate(1423 98)" opacity=".68"/><circle cx="5" cy="5" r="5" transform="translate(1448 92)" opacity=".68"/><text transform="translate(1423 76)" font-size="18" font-family="IBMPlexSans-Bold, IBM Plex Sans" font-weight="700"><tspan x="0" y="0">$</tspan></text></g></symbol><symbol viewBox="0 0 120.082 120" id="job-manager" xmlns="http://www.w3.org/2000/svg"><path d="M20.544 16.084h78.994a4.13 4.13 0 0 1 4.14 4.14v79.552a4.13 4.13 0 0 1-4.14 4.14H20.544a4.13 4.13 0 0 1-4.14-4.14V20.224a4.13 4.13 0 0 1 4.14-4.14z" fill="none"/><path d="M23.215 73.585c9.07-6.634 28.303-14.292 28.303-14.292S47.456 70.075 49.6 80.8a112.408 112.408 0 0 1 1.918 21.438H17.622s-3.477-22.023 5.593-28.653z" opacity=".9"/><path d="M96.974 73.585c-8.6-6.634-26.833-14.292-26.833-14.292S73.992 70.075 71.96 80.8a118.437 118.437 0 0 0-1.818 21.438h32.138s3.293-22.023-5.305-28.653z" opacity=".5"/><path d="M57.824 63.587h5.01c1.186 0 1.968.83 2.148 2.147.18 1.317-1.432 3.12-1.432 3.12s.8 30.802-2.362 30.802-3.979-30.802-3.979-30.802-1.686-1.803-1.532-3.12a2.159 2.159 0 0 1 2.147-2.147z"/><path d="M60.146 17.063a5 5 0 0 0-5.01 5.01v1.28a16.462 16.104 0 0 0-6.368 3.295l-1.229-.71a5 5 0 0 0-6.844 1.834l-.02.033a5 5 0 0 0 1.835 6.844l.92.532a16.462 16.104 0 0 0-.462 3.713 16.462 16.104 0 0 0 .468 3.734l-.926.535a5 5 0 0 0-1.835 6.844l.02.034a5 5 0 0 0 6.844 1.833l1.233-.712a16.462 16.104 0 0 0 6.364 3.259v1.293a5 5 0 0 0 5.01 5.01h.716a5 5 0 0 0 5.01-5.01v-2.019a16.462 16.104 0 0 0 4.615-2.894l1.858 1.074a5 5 0 0 0 6.844-1.834l.02-.034a5 5 0 0 0-1.834-6.844l-1.815-1.047a16.462 16.104 0 0 0 .333-3.222 16.462 16.104 0 0 0-.344-3.192l1.826-1.054a4.998 4.998 0 0 0 1.834-6.843l-.02-.033a5 5 0 0 0-6.844-1.835l-1.843 1.064a16.462 16.104 0 0 0-4.63-2.927v-2a5 5 0 0 0-5.01-5.01zm-.204 14.315a7.873 7.873 0 0 1 7.873 7.874 7.873 7.873 0 0 1-7.873 7.873 7.873 7.873 0 0 1-7.873-7.873 7.873 7.873 0 0 1 7.873-7.874z" opacity=".85"/></symbol><symbol viewBox="0 0 120 120" id="library" xmlns="http://www.w3.org/2000/svg"><rect width="74" height="74" x="23" y="23" ry="4.14" opacity=".85" fill="none"/><rect y="26.135" x="24.164" rx="2.522" height="68.73" width="12.611" opacity=".9"/><rect y="41.899" x="39.297" rx="2.522" height="52.966" width="12.611" opacity=".5"/><rect y="26.135" x="54.43" rx="2.522" height="68.73" width="12.611" opacity=".7"/><path d="M83.862 46.659c-.167.007-.337.03-.507.072L71.12 49.783a2.516 2.516 0 0 0-1.838 3.057l9.916 39.769a2.515 2.515 0 0 0 3.057 1.836l12.237-3.05a2.516 2.516 0 0 0 1.837-3.057l-9.915-39.77a2.516 2.516 0 0 0-2.55-1.91zm1.113 7.51c.88-.039 1.69.543 1.912 1.433a1.887 1.887 0 0 1-1.377 2.293L75.11 60.488a1.888 1.888 0 0 1-2.293-1.378 1.886 1.886 0 0 1 1.378-2.292l10.401-2.594c.127-.032.254-.05.38-.055zm1.26 5.044c.881-.038 1.691.544 1.913 1.434a1.887 1.887 0 0 1-1.377 2.293L76.37 65.532a1.888 1.888 0 0 1-2.293-1.378 1.886 1.886 0 0 1 1.378-2.292l10.401-2.594c.127-.031.254-.05.38-.055z"/></symbol><symbol viewBox="0 0 163.136 172.333" id="manual-icon" xmlns="http://www.w3.org/2000/svg"><path fill="none" d="M.136 7.815h163v163h-163z"/><path d="M161.623 104.244l-9.355-9.232a3.752 3.752 0 0 0-5.311.035L143 99.056a3.752 3.752 0 0 0 .035 5.311l9.355 9.232a3.752 3.752 0 0 0 5.311-.035l3.957-4.009a3.752 3.752 0 0 0-.035-5.311zM139.924 107.515a3.752 3.752 0 0 0-5.311.035l-42.379 42.978c-.053.053-.088.105-.141.158l-2.5 2.532-4.359 19.115 5.012-5.082 2.444-10.709 4.115 4.062 4.115 4.062-10.674 2.585-5.012 5.082 19.08-4.625 2.5-2.532c.053-.053.105-.088.158-.141l42.38-42.978a3.752 3.752 0 0 0-.035-5.311zM11.712 11.729H140.03V85.2h11.729V9.689A9.615 9.615 0 0 0 142.245 0H9.513A9.615 9.615 0 0 0 0 9.689v140.663a9.615 9.615 0 0 0 9.513 9.689h66.366v-11.729H11.712z"/><text transform="translate(32.136 108.815)" font-size="89" font-family="SegoeUIBlack, Segoe UI"><tspan x="0" y="0">M</tspan></text></symbol><symbol viewBox="0 0 206 206.001" id="medal" xmlns="http://www.w3.org/2000/svg"><path d="M90.024 52.607L62.21 6.252A12.874 12.874 0 0 0 51.17 0H6.449a6.439 6.439 0 0 0-5.275 10.131l44.769 63.957a83.269 83.269 0 0 1 44.081-21.481zM199.55 0h-44.72a12.874 12.874 0 0 0-11.04 6.252l-27.815 46.355a83.292 83.292 0 0 1 44.081 21.477l44.769-63.953A6.439 6.439 0 0 0 199.55 0zm-96.551 64.375a70.813 70.813 0 1 0 70.813 70.813 70.814 70.814 0 0 0-70.813-70.813zm37.225 63.273l-15.261 14.871 3.609 21.01a4.62 4.62 0 0 1-6.7 4.864l-18.873-9.917-18.87 9.918a4.618 4.618 0 0 1-6.7-4.864l3.609-21.01-15.259-14.872a4.621 4.621 0 0 1 2.555-7.882l21.095-3.074 9.427-19.119a4.629 4.629 0 0 1 8.292 0l9.427 19.119 21.095 3.074a4.621 4.621 0 0 1 2.555 7.882z"/></symbol><symbol viewBox="0 0 63 52" id="month-icon" xmlns="http://www.w3.org/2000/svg"><g transform="translate(-1649 -77)"><g transform="translate(1649 77)" fill="none" stroke="#404040" stroke-width="5"><rect width="63" height="52" rx="3" stroke="none"/><rect x="2.5" y="2.5" width="58" height="47" rx=".5"/></g><rect width="10" height="4" rx="2" transform="translate(1659 98)" fill="#404040" opacity=".85"/><rect width="57" height="12" rx="1" transform="translate(1652 81)" fill="#404040"/><rect width="10" height="4" rx="2" transform="translate(1676 98)" fill="#404040" opacity=".85"/><rect width="10" height="4" rx="2" transform="translate(1692 98)" fill="#404040" opacity=".85"/><rect width="10" height="4" rx="2" transform="translate(1659 107)" fill="#404040" opacity=".85"/><rect width="10" height="4" rx="2" transform="translate(1676 107)" fill="#404040" opacity=".85"/><rect width="10" height="4" rx="2" transform="translate(1692 107)" fill="#404040" opacity=".85"/><rect width="10" height="4" rx="2" transform="translate(1659 116)" fill="#404040" opacity=".85"/><rect width="10" height="4" rx="2" transform="translate(1676 116)" fill="#404040" opacity=".85"/><rect width="10" height="4" rx="2" transform="translate(1692 116)" fill="#404040" opacity=".85"/></g></symbol><symbol viewBox="0 0 120 120" id="placeholder-lib" xmlns="http://www.w3.org/2000/svg"><g transform="translate(-1379 -37)"><rect width="45" height="4" rx="2" transform="translate(1406 77)" fill="#404040"/><rect width="52" height="4" rx="2" transform="translate(1422 87)" fill="#404040"/><rect width="35" height="4" rx="2" transform="translate(1422 97)" fill="#404040"/><rect width="35" height="4" rx="2" transform="translate(1422 106)" fill="#404040"/><g transform="translate(1389 61)" fill="none" stroke="#404040" stroke-width="5"><rect width="99" height="67" rx="3" stroke="none"/><rect x="2.5" y="2.5" width="94" height="62" rx=".5"/></g><circle cx="6.5" cy="6.5" r="6.5" transform="translate(1461 97)" fill="#404040"/><rect width="2" height="28" rx="1" transform="translate(1408 88)" fill="#404040"/><rect width="2" height="12" rx="1" transform="rotate(90 664 751)" fill="#404040"/><rect width="2" height="12" rx="1" transform="rotate(90 650 765)" fill="#404040"/></g></symbol><symbol viewBox="0 0 74 74" id="reports" xmlns="http://www.w3.org/2000/svg"><g transform="translate(-23 -23)"><rect width="74" height="74" rx="4.14" transform="translate(23 23)" fill="none"/><rect width="7.317" height="25.329" rx="2.522" transform="translate(36 56.154)"/><rect width="7.32" height="18.329" rx="2.522" transform="translate(50 63.154)" opacity=".8"/><rect width="7.32" height="21.329" rx="2.522" transform="translate(63 60.154)" opacity=".9"/><rect width="7.32" height="32.329" rx="2.522" transform="translate(77 49.154)"/><path d="M40.862 50.714l10.759 6.27" fill="none" stroke="#000" stroke-width=".896" opacity=".631"/><path d="M64.737 54.22l-9.423 2.861" fill="none" stroke="#000" stroke-width=".694" opacity=".631"/><path d="M78.932 43.79l-10.735 8.506" fill="none" stroke="#000" stroke-width=".77" opacity=".631"/><g fill="none" stroke="#000" opacity=".631"><path d="M42 49.5a2.5 2.5 0 0 1-2.5 2.5 2.5 2.5 0 0 1-2.5-2.5 2.5 2.5 0 0 1 2.5-2.5 2.5 2.5 0 0 1 2.5 2.5z"/><path d="M41.5 49.5a2 2 0 0 1-2 2 2 2 0 0 1-2-2 2 2 0 0 1 2-2 2 2 0 0 1 2 2z"/></g><g fill="none" stroke="#000" opacity=".631"><path d="M56 57.5a2.5 2.5 0 0 1-2.5 2.5 2.5 2.5 0 0 1-2.5-2.5 2.5 2.5 0 0 1 2.5-2.5 2.5 2.5 0 0 1 2.5 2.5z"/><path d="M55.5 57.5a2 2 0 0 1-2 2 2 2 0 0 1-2-2 2 2 0 0 1 2-2 2 2 0 0 1 2 2z"/></g><g fill="none" stroke="#000" opacity=".631"><path d="M69 53.5a2.5 2.5 0 0 1-2.5 2.5 2.5 2.5 0 0 1-2.5-2.5 2.5 2.5 0 0 1 2.5-2.5 2.5 2.5 0 0 1 2.5 2.5z"/><path d="M68.5 53.5a2 2 0 0 1-2 2 2 2 0 0 1-2-2 2 2 0 0 1 2-2 2 2 0 0 1 2 2z"/></g><g fill="none" stroke="#000" opacity=".631"><path d="M83 42.5a2.5 2.5 0 0 1-2.5 2.5 2.5 2.5 0 0 1-2.5-2.5 2.5 2.5 0 0 1 2.5-2.5 2.5 2.5 0 0 1 2.5 2.5z"/><path d="M82.5 42.5a2 2 0 0 1-2 2 2 2 0 0 1-2-2 2 2 0 0 1 2-2 2 2 0 0 1 2 2z"/></g></g></symbol><symbol viewBox="0 0 74 74" id="settings" xmlns="http://www.w3.org/2000/svg"><g transform="translate(-967 -207)"><path d="M993.146 214a5 5 0 0 0-5.01 5.01v1.279a16.586 16.586 0 0 0-6.368 3.295l-1.229-.71a5 5 0 0 0-6.844 1.834l-.02.034a5 5 0 0 0 1.834 6.844l.921.531a15.124 15.124 0 0 0 .006 7.447l-.927.535a5 5 0 0 0-1.834 6.844l.02.034a5 5 0 0 0 6.844 1.833l1.233-.712a16.59 16.59 0 0 0 6.363 3.259v1.293a5 5 0 0 0 5.01 5.01h.716a5 5 0 0 0 5.01-5.01v-2.013a16.511 16.511 0 0 0 4.616-2.9l1.858 1.074a5 5 0 0 0 6.844-1.834l.02-.034a5 5 0 0 0-1.834-6.844l-1.815-1.046a15.368 15.368 0 0 0-.011-6.414l1.826-1.054a5 5 0 0 0 1.834-6.843l-.02-.034a5 5 0 0 0-6.844-1.834l-1.845 1.063a16.507 16.507 0 0 0-4.63-2.927v-2a5 5 0 0 0-5.01-5.01zm-.2 14.315a7.873 7.873 0 1 1-7.873 7.873 7.873 7.873 0 0 1 7.873-7.873z"/><path d="M1018.494 246.43a3.167 3.167 0 0 0-2.244 3.887l.21.783a10.51 10.51 0 0 0-3.356 3.06l-.868-.232a3.167 3.167 0 0 0-3.888 2.245l-.006.023a3.167 3.167 0 0 0 2.244 3.885l.651.175a9.583 9.583 0 0 0 1.222 4.557l-.48.48a3.167 3.167 0 0 0 .001 4.49l.017.016a3.167 3.167 0 0 0 4.49-.001l.637-.638a10.511 10.511 0 0 0 4.43.95l.212.79a3.167 3.167 0 0 0 3.888 2.245l.438-.118a3.167 3.167 0 0 0 2.244-3.888l-.33-1.23a10.461 10.461 0 0 0 2.35-2.527l1.313.352a3.167 3.167 0 0 0 3.888-2.246l.006-.023a3.167 3.167 0 0 0-2.242-3.888l-1.282-.343a9.737 9.737 0 0 0-1.06-3.923l.945-.945a3.166 3.166 0 0 0 0-4.488l-.017-.017a3.167 3.167 0 0 0-4.49 0l-.952.954a10.46 10.46 0 0 0-3.317-1.04l-.327-1.22a3.167 3.167 0 0 0-3.888-2.243zm2.225 8.793a4.989 4.989 0 1 1-3.527 6.11 4.989 4.989 0 0 1 3.527-6.11z" opacity=".75"/><rect width="74" height="74" rx="4.14" transform="translate(967 207)" fill="none" opacity=".7"/></g></symbol><symbol class="vsvg-inline--fa vfa-trash-alt vfa-w-14" viewBox="0 0 448 512" id="trash" xmlns="http://www.w3.org/2000/svg"><path fill="currentColor" d="M32 464a48 48 0 0 0 48 48h288a48 48 0 0 0 48-48V128H32zm272-256a16 16 0 0 1 32 0v224a16 16 0 0 1-32 0zm-96 0a16 16 0 0 1 32 0v224a16 16 0 0 1-32 0zm-96 0a16 16 0 0 1 32 0v224a16 16 0 0 1-32 0zM432 32H312l-9.4-18.7A24 24 0 0 0 281.1 0H166.8a23.72 23.72 0 0 0-21.4 13.3L136 32H16A16 16 0 0 0 0 48v32a16 16 0 0 0 16 16h416a16 16 0 0 0 16-16V48a16 16 0 0 0-16-16z"/></symbol><symbol viewBox="0 0 74 74" id="users" xmlns="http://www.w3.org/2000/svg"><g transform="translate(-23 -23)"><rect width="74" height="74" rx="4.14" transform="translate(23 23)" opacity=".7" fill="none"/><path d="M57.872 50.497a8.75 8.903 0 1 1-8.75-8.903 8.75 8.903 0 0 1 8.75 8.903z"/><path d="M50.074 61.46c1.159 0 1.35-1.985 3.216-1.667 5.265.831 9.75 4.372 9.75 8.591 0 4.97-6.222 9-13.897 9s-13.9-4.034-13.9-9.004c0-3.687 3.426-6.857 9.098-8.447 2.83-.029 3.753 1.528 5.733 1.528z"/><path d="M80.526 54.462a8.124 8.267 0 1 1-8.124-8.267 8.124 8.267 0 0 1 8.124 8.267z" opacity=".7" fill-opacity=".748"/><path d="M73.285 64.637c1.076 0 1.254-1.844 2.984-1.551 4.887.77 9.053 4.06 9.053 7.976 0 4.614-5.775 8.356-12.903 8.356-4.354 0-6.754-.25-9.28-2.566-1.3-1.184 3.115-3.995 3.115-5.79 0-1.89-3.273-4.839-1.327-6.425 1.228-1.007.673-.757 3.032-1.42 2.63-.025 3.487 1.42 5.326 1.42z" opacity=".7" fill-opacity=".748"/></g></symbol><symbol viewBox="0 0 74 74" id="video-interview" xmlns="http://www.w3.org/2000/svg"><g transform="translate(-23 -23)"><rect width="74" height="74" rx="4.14" transform="translate(23 23)" fill="none" opacity=".7"/><path d="M53.872 54.5a8.751 8.751 0 1 1-8.749-8.9 8.827 8.827 0 0 1 8.749 8.9zM46.074 65.461c1.159 0 1.351-1.985 3.216-1.668 5.265.831 11.6 3.948 11.6 8.168 0 4.97-8.071 9.422-15.746 9.422s-13.9-4.033-13.9-9c0-3.688 3.425-6.857 9.1-8.448 2.83-.029 3.753 1.528 5.733 1.528z"/><path d="M77.866 49.333H59.717A2.717 2.717 0 0 0 57 52.05v11.209a21.725 21.725 0 0 1 5.444 3.588 8.447 8.447 0 0 1 2.233 4.315h11.435a2.717 2.717 0 0 0 2.717-2.717V52.05c0-1.5.538-2.717-.963-2.717zm9.013 2.143a8.978 8.978 0 0 0-4.278 4.4 10.958 10.958 0 0 0-1.168 4.421 9.864 9.864 0 0 0 1.167 4.529 7.981 7.981 0 0 0 4.278 4.188 1.823 1.823 0 0 0 2.865-1.467V52.943a1.824 1.824 0 0 0-2.864-1.467z" opacity=".7"/></g></symbol></svg>