<svg xmlns="http://www.w3.org/2000/svg" width="180.949" height="38.196" viewBox="0 0 180.949 38.196"><g transform="translate(-5.27 -2.61)"><path d="M27.139,36.162a8.594,8.594,0,0,1-3.488,3.567A11.79,11.79,0,0,1,17.682,41.1a13.751,13.751,0,0,1-6.127-1.321,11.183,11.183,0,0,1-4.28-3.54,9.889,9.889,0,0,1-1.851-4.809H7.909A9.661,9.661,0,0,0,9.257,34.92a8.66,8.66,0,0,0,3.2,3.01,10.245,10.245,0,0,0,5.177,1.214,8.029,8.029,0,0,0,6.024-2.167,7.408,7.408,0,0,0,2.112-5.387,7.1,7.1,0,0,0-1.321-4.49,8.786,8.786,0,0,0-3.248-2.59,40.924,40.924,0,0,0-5.257-1.9,43.411,43.411,0,0,1-5.652-2.033,9.047,9.047,0,0,1-3.567-2.986A8.816,8.816,0,0,1,5.27,12.305a8.594,8.594,0,0,1,2.8-6.6q2.8-2.589,7.768-2.59a11.831,11.831,0,0,1,7.95,2.508,10.415,10.415,0,0,1,3.619,6H24.872a8.433,8.433,0,0,0-2.8-4.517,9.016,9.016,0,0,0-6.234-2.033A8.688,8.688,0,0,0,10,6.939a6.606,6.606,0,0,0-2.192,5.308A6.667,6.667,0,0,0,9.078,16.5a8.509,8.509,0,0,0,3.144,2.484,38.028,38.028,0,0,0,5.1,1.823,40.368,40.368,0,0,1,5.759,2.088,9.644,9.644,0,0,1,3.671,3.089,9.206,9.206,0,0,1,1.507,5.549A10.2,10.2,0,0,1,27.139,36.162Z" transform="translate(0 -0.348)" fill="#1999e3"/><path d="M101.717,25.421V41.59H99.34V4.34h10.248q6.182,0,9.192,2.8a10.146,10.146,0,0,1,3.01,7.819q0,5.127-3.117,7.792t-9.089,2.669h-7.868ZM119.365,14.96q0-4.173-2.325-6.34t-7.606-2.167H101.72V23.306h7.713Q119.363,23.306,119.365,14.96Z" transform="translate(-65.437 -1.203)" fill="#1999e3"/><path d="M192.5,6.349V21.988h15.057v1.9H192.5V39.581H209.14V41.59H190.12V4.34h19.02V6.349H192.5Z" transform="translate(-128.586 -1.203)" fill="#1999e3"/><path d="M272.167,6.349V21.988h15.057v1.9H272.167V39.581H288.81V41.59H269.79V4.34h19.02V6.349H272.167Z" transform="translate(-184.006 -1.203)" fill="#1999e3"/><path d="M353.8,22.937l18.226,18.649h-3.01l-17.17-17.645V41.587H349.47V4.34h2.377V21.985L369.017,4.34h3.01Z" transform="translate(-239.434 -1.203)" fill="#1999e3"/><path d="M446.614,4.17v37.3H440.59V4.17Z" transform="translate(-302.819 -1.085)" fill="#1999e3"/><path d="M506.476,5.039a17.371,17.371,0,0,1,6.6,6.791,20.081,20.081,0,0,1,2.4,9.853,20.031,20.031,0,0,1-2.4,9.853,17.558,17.558,0,0,1-6.6,6.815,19.229,19.229,0,0,1-18.807,0,17.725,17.725,0,0,1-6.629-6.815,19.9,19.9,0,0,1-2.429-9.853,19.9,19.9,0,0,1,2.429-9.853,17.556,17.556,0,0,1,6.629-6.791,19.418,19.418,0,0,1,18.807,0Zm-15.77,4.809a11.172,11.172,0,0,0-4.359,4.7,15.541,15.541,0,0,0-1.558,7.132,15.541,15.541,0,0,0,1.558,7.132,11.172,11.172,0,0,0,4.359,4.7,12.41,12.41,0,0,0,6.392,1.638,12.168,12.168,0,0,0,6.313-1.638,11.233,11.233,0,0,0,4.334-4.7,15.54,15.54,0,0,0,1.558-7.132,15.54,15.54,0,0,0-1.558-7.132,11.213,11.213,0,0,0-4.334-4.7A12.178,12.178,0,0,0,497.1,8.207,12.412,12.412,0,0,0,490.706,9.848Z" transform="translate(-329.267)" fill="#1999e3"/></g></svg>