<svg xmlns="http://www.w3.org/2000/svg" xmlns:xlink="http://www.w3.org/1999/xlink" width="512" height="512" viewBox="0 0 512 512"><defs><filter id="a" x="138.5" y="110.833" width="235" height="304.333" filterUnits="userSpaceOnUse"><feOffset dy="7" input="SourceAlpha"/><feGaussianBlur stdDeviation="4.5" result="b"/><feFlood flood-opacity="0.161"/><feComposite operator="in" in2="b"/><feComposite in="SourceGraphic"/></filter><clipPath id="d"><rect width="512" height="512"/></clipPath></defs><g id="c" clip-path="url(#d)"><rect width="512" height="512" fill="rgba(31,61,94,0.76)"/><g transform="matrix(1, 0, 0, 1, 0, 0)" filter="url(#a)"><path d="M208,66.051v3.282H138.667V0h3.282a13,13,0,0,1,9.193,3.807l53.051,53.051A13,13,0,0,1,208,66.051Zm-86.667,7.615V0H13A13,13,0,0,0,0,13V264.333a13,13,0,0,0,13,13H195a13,13,0,0,0,13-13V86.667H134.333A13.038,13.038,0,0,1,121.333,73.667Zm52,78.009v60.647a13.008,13.008,0,0,1-22.193,9.193l-29.807-29.8v20.615a13,13,0,0,1-13,13H47.667a13,13,0,0,1-13-13V151.667a13,13,0,0,1,13-13h60.667a13,13,0,0,1,13,13v20.615l29.807-29.8A13.009,13.009,0,0,1,173.333,151.675Z" transform="translate(152 117.33)" fill="#fff"/></g></g></svg>