<svg xmlns="http://www.w3.org/2000/svg" xmlns:xlink="http://www.w3.org/1999/xlink" width="100" height="100" viewBox="0 0 100 100"><defs><clipPath id="b"><rect width="100" height="100"/></clipPath></defs><g id="a" clip-path="url(#b)"><rect width="100" height="100" fill="#1f3d5e" opacity="0.76"/><g transform="translate(25.368 25.368)"><path d="M28.659,25.58H27.037l-.575-.554a13.363,13.363,0,1,0-1.437,1.437l.554.575v1.622L35.843,38.9,38.9,35.843Zm-12.316,0a9.237,9.237,0,1,1,9.237-9.237A9.225,9.225,0,0,1,16.343,25.58Z" transform="translate(3.158 3.158)" fill="#fff"/><path d="M0,0H49.265V49.265H0Z" fill="none"/><path d="M17.264,13.158H13.158v4.105H11.105V13.158H7V11.105h4.105V7h2.053v4.105h4.105Z" transform="translate(7.369 7.369)" fill="#fff"/></g></g></svg>