<?xml version="1.0" encoding="UTF-8" standalone="no"?>
<svg
   xmlns:dc="http://purl.org/dc/elements/1.1/"
   xmlns:cc="http://creativecommons.org/ns#"
   xmlns:rdf="http://www.w3.org/1999/02/22-rdf-syntax-ns#"
   xmlns:svg="http://www.w3.org/2000/svg"
   xmlns="http://www.w3.org/2000/svg"
   xmlns:sodipodi="http://sodipodi.sourceforge.net/DTD/sodipodi-0.dtd"
   xmlns:inkscape="http://www.inkscape.org/namespaces/inkscape"
   height="23.200001"
   width="32.106915"
   xml:space="preserve"
   viewBox="0 0 32.106914 23.2"
   y="0px"
   x="0px"
   sodipodi:docname="drawer-menu.svg"
   inkscape:version="1.0 (4035a4fb49, 2020-05-01)"
   id="svg14"
   version="1.1"><metadata
   id="metadata12"><rdf:RDF><cc:Work
       rdf:about=""><dc:format>image/svg+xml</dc:format><dc:type
         rdf:resource="http://purl.org/dc/dcmitype/StillImage" /><dc:title></dc:title></cc:Work></rdf:RDF></metadata><defs
   id="defs10" />
<style
   id="style2"
   type="text/css">
	.st0{fill:#FFFFFF;}
</style>
<sodipodi:namedview
   inkscape:document-rotation="0"
   showgrid="false"
   pagecolor="#ffffff"
   objecttolerance="10"
   inkscape:zoom="6.864"
   inkscape:window-width="640"
   inkscape:window-height="480"
   inkscape:pageshadow="2"
   inkscape:pageopacity="0"
   inkscape:cy="11.65944"
   inkscape:cx="-2.9870623"
   inkscape:current-layer="svg14"
   id="namedview16"
   guidetolerance="10"
   gridtolerance="10"
   fit-margin-top="0"
   fit-margin-right="0"
   fit-margin-left="0"
   fit-margin-bottom="0"
   borderopacity="1"
   bordercolor="#666666">
	</sodipodi:namedview>
<g
   style="fill:#ffffff;fill-opacity:1"
   transform="translate(-24.068065,-30.502564)"
   id="g8">
	<path
   style="fill:#ffffff;fill-opacity:1"
   d="m 26.068065,34.302564 h 28.1 c 1.1,0 2,-0.9 2,-1.9 0,-1.1 -0.9,-1.9 -2,-1.9 h -28.1 c -1.1,0 -2,0.9 -2,1.9 0,1 0.9,1.9 2,1.9 z"
   class="st0"
   inkscape:connector-curvature="0"
   id="path2" />
	<path
   style="fill:#ffffff;fill-opacity:1"
   d="m 54.168065,40.202564 h -28.1 c -1.1,0 -2,0.9 -2,1.9 0,1.1 0.9,1.9 2,1.9 h 28.1 c 1.1,0 2,-0.9 2,-1.9 0.1,-1.1 -0.9,-1.9 -2,-1.9 z"
   class="st0"
   inkscape:connector-curvature="0"
   id="path4" />
	<path
   style="fill:#ffffff;fill-opacity:1"
   d="m 54.168065,49.902564 h -28.1 c -1.1,0 -2,0.9 -2,1.9 0,1 0.9,1.9 2,1.9 h 28.1 c 1.1,0 2,-0.9 2,-1.9 0.1,-1 -0.9,-1.9 -2,-1.9 z"
   class="st0"
   inkscape:connector-curvature="0"
   id="path6" />
</g>
</svg>
