<?xml version="1.0" encoding="UTF-8" standalone="no"?><!DOCTYPE svg PUBLIC "-//W3C//DTD SVG 1.1//EN" "http://www.w3.org/Graphics/SVG/1.1/DTD/svg11.dtd"><svg xmlns="http://www.w3.org/2000/svg" xmlns:xlink="http://www.w3.org/1999/xlink"><symbol viewBox="0 0 12.548 12.548" id="add-icon" xmlns="http://www.w3.org/2000/svg"><g fill="none" stroke="#fff" stroke-width="3"><path d="M6.338 1.497v9.683M11.18 6.337H1.497" stroke-width="2.31504"/></g></symbol><symbol viewBox="0 0 24 23.476" id="card-view" xmlns="http://www.w3.org/2000/svg"><path d="M0 0h24v23.476H0z" fill="none"/><path d="M4 21.952h16.318a.99.99 0 001-.974v-18a.99.99 0 00-1-.974H4a.99.99 0 00-1 .974v18a.99.99 0 001 .974z" fill="#9a9a9a"/></symbol><symbol viewBox="0 0 24 24" id="classes" xmlns="http://www.w3.org/2000/svg"><path d="M0 0h24v24H0z" fill="none"/><path d="M5 13.18v4L12 21l7-3.82v-4L12 17zM12 3L1 9l11 6 9-4.91V17h2V9z" fill="#fff"/></symbol><symbol viewBox="0 0 14 14" id="close" xmlns="http://www.w3.org/2000/svg"><path d="M11.042 3.772l-.814-.814L7 6.186 3.772 2.958l-.814.814L6.186 7l-3.228 3.228.814.814L7 7.814l3.228 3.228.814-.814L7.814 7z"/></symbol><symbol viewBox="0 0 10 6" id="collapse-close" xmlns="http://www.w3.org/2000/svg"><path d="M5 6L0 0h10z" fill="#333"/></symbol><symbol viewBox="0 0 10 6" id="collapse-open" xmlns="http://www.w3.org/2000/svg"><path d="M5 0l5 6H0z" fill="#333"/></symbol><symbol viewBox="0 0 20 20" id="config" xmlns="http://www.w3.org/2000/svg"><path d="M0 0h20v20H0z" fill="none"/><path d="M15.95 10.78A6.527 6.527 0 0016 10a4.932 4.932 0 00-.06-.78l1.69-1.32a.413.413 0 00.1-.51l-1.6-2.77a.407.407 0 00-.49-.18l-1.99.8a5.859 5.859 0 00-1.35-.78L12 2.34a.4.4 0 00-.4-.34H8.4a.389.389 0 00-.39.34l-.3 2.12a6.015 6.015 0 00-1.35.78l-1.99-.8a.4.4 0 00-.49.18l-1.6 2.77a.388.388 0 00.1.51l1.69 1.32a4.713 4.713 0 00-.01 1.56L2.37 12.1a.413.413 0 00-.1.51l1.6 2.77a.407.407 0 00.49.18l1.99-.8a5.859 5.859 0 001.35.78l.3 2.12a.407.407 0 00.4.34h3.2a.382.382 0 00.39-.34l.3-2.12a6.015 6.015 0 001.35-.78l1.99.8a.4.4 0 00.49-.18l1.6-2.77a.388.388 0 00-.1-.51l-1.67-1.32zM10 13a3 3 0 113-3 3.009 3.009 0 01-3 3z" fill="#fff"/></symbol><symbol viewBox="0 0 40.07 28.06" id="filters" xmlns="http://www.w3.org/2000/svg"><path d="M18.13 13.587c.168.183.26.422.26.669v7.275c0 .438.528.66.841.353l2.03-2.326c.271-.326.421-.488.421-.81v-4.49c0-.248.094-.486.26-.669l5.824-6.32a.741.741 0 00-.545-1.242h-14.37a.74.74 0 00-.545 1.243z"/></symbol><symbol viewBox="0 0 20 20" id="help" xmlns="http://www.w3.org/2000/svg"><path fill="#FFF" d="M14.09 2.233C12.95 1.411 11.518 1 9.794 1c-1.311 0-2.418.289-3.317.868C5.05 2.774 4.292 4.313 4.2 6.483h3.307c0-.633.185-1.24.553-1.828.369-.586.995-.879 1.878-.879.898 0 1.517.238 1.854.713.339.477.508 1.004.508 1.582 0 .504-.252.965-.557 1.383a2.88 2.88 0 01-.661.674s-1.793 1.15-2.58 2.074c-.456.535-.497 1.338-.538 2.488-.002.082.029.252.315.252h2.571c.256 0 .309-.189.312-.274.018-.418.064-.633.141-.875.144-.457.538-.855.979-1.199l.91-.627c.822-.641 1.477-1.166 1.767-1.578.494-.676.842-1.51.842-2.5-.001-1.615-.571-2.832-1.711-3.656zM9.741 14.924c-1.139-.035-2.079.754-2.115 1.99-.035 1.234.858 2.051 1.998 2.084 1.189.035 2.104-.727 2.141-1.963.034-1.236-.834-2.076-2.024-2.111z"/></symbol><symbol viewBox="0 0 20 20" id="pencil" xmlns="http://www.w3.org/2000/svg"><path fill="#FFF" d="M14.69 2.661c-1.894-1.379-3.242-1.349-3.754-1.266a.538.538 0 00-.35.223l-4.62 6.374-2.263 3.123a2.447 2.447 0 00-.462 1.307l-.296 5.624a.56.56 0 00.76.553l5.256-2.01c.443-.17.828-.465 1.106-.849l1.844-2.545 5.036-6.949a.56.56 0 00.1-.423c-.084-.526-.487-1.802-2.357-3.162zM8.977 15.465l-2.043.789a.19.19 0 01-.221-.062 5.145 5.145 0 00-1.075-1.03 5.217 5.217 0 00-1.31-.706.192.192 0 01-.126-.192l.122-2.186.549-.755s1.229-.169 2.833.998c1.602 1.166 1.821 2.388 1.821 2.388l-.55.756z"/></symbol><symbol viewBox="0 0 6 6" id="sort-down" xmlns="http://www.w3.org/2000/svg"><path d="M3 6L0 0h6z"/></symbol><symbol viewBox="0 0 6 14" id="sort-icon" xmlns="http://www.w3.org/2000/svg"><g fill="#999"><path d="M3 0l3 6H0zM3 14L0 8h6z"/></g></symbol><symbol viewBox="0 0 6 6" id="sort-up" xmlns="http://www.w3.org/2000/svg"><path d="M3 0l3 6H0z"/></symbol><symbol viewBox="0 0 24 24" id="table-view" xmlns="http://www.w3.org/2000/svg"><path fill="none" d="M0 0h24v24H0z"/><path d="M20 7H4a2.006 2.006 0 01-2-2V4a2.006 2.006 0 012-2h16a2.006 2.006 0 012 2v1a2.006 2.006 0 01-2 2zm0 2.5H4a2.006 2.006 0 00-2 2v1a2.006 2.006 0 002 2h16a2.006 2.006 0 002-2v-1a2.006 2.006 0 00-2-2zm0 7.5H4a2.006 2.006 0 00-2 2v1a2.006 2.006 0 002 2h16a2.006 2.006 0 002-2v-1a2.006 2.006 0 00-2-2z" fill="#009aad"/></symbol><symbol viewBox="0 0 15.75 18" id="trash" xmlns="http://www.w3.org/2000/svg"><path d="M9.422 14.625h.844a.422.422 0 00.422-.422V6.609a.422.422 0 00-.422-.422h-.844A.422.422 0 009 6.609V14.2a.422.422 0 00.422.425zm5.765-11.813h-2.9L11.095.819A1.687 1.687 0 009.647 0H6.1a1.688 1.688 0 00-1.444.819L3.46 2.812H.563A.562.562 0 000 3.375v.563a.562.562 0 00.563.562h.563v11.812A1.688 1.688 0 002.813 18h10.125a1.688 1.688 0 001.688-1.688V4.5h.562a.562.562 0 00.563-.563v-.562a.562.562 0 00-.564-.563zM6.041 1.79a.211.211 0 01.181-.1h3.3a.211.211 0 01.181.1l.614 1.023H5.428zm6.9 14.523H2.813V4.5h10.125zm-7.457-1.688h.844a.422.422 0 00.422-.425V6.609a.422.422 0 00-.422-.422h-.844a.422.422 0 00-.422.422V14.2a.422.422 0 00.422.425z" fill="#fff"/></symbol></svg>