<?xml version="1.0" encoding="UTF-8" standalone="no"?>
<!-- Generator: Adobe Illustrator 24.0.3, SVG Export Plug-In . SVG Version: 6.00 Build 0)  -->

<svg
   xmlns:dc="http://purl.org/dc/elements/1.1/"
   xmlns:cc="http://creativecommons.org/ns#"
   xmlns:rdf="http://www.w3.org/1999/02/22-rdf-syntax-ns#"
   xmlns:svg="http://www.w3.org/2000/svg"
   xmlns="http://www.w3.org/2000/svg"
   xmlns:sodipodi="http://sodipodi.sourceforge.net/DTD/sodipodi-0.dtd"
   xmlns:inkscape="http://www.inkscape.org/namespaces/inkscape"
   version="1.1"
   id="Layer_1"
   x="0px"
   y="0px"
   viewBox="0 0 840 571.83197"
   xml:space="preserve"
   sodipodi:docname="Studi.ly_logo.svg"
   width="840"
   height="571.83197"
   inkscape:version="0.92.4 (5da689c313, 2019-01-14)"><metadata
   id="metadata57"><rdf:RDF><cc:Work
       rdf:about=""><dc:format>image/svg+xml</dc:format><dc:type
         rdf:resource="http://purl.org/dc/dcmitype/StillImage" /><dc:title></dc:title></cc:Work></rdf:RDF></metadata><defs
   id="defs55" /><sodipodi:namedview
   pagecolor="#ffffff"
   bordercolor="#666666"
   borderopacity="1"
   objecttolerance="10"
   gridtolerance="10"
   guidetolerance="10"
   inkscape:pageopacity="0"
   inkscape:pageshadow="2"
   inkscape:window-width="2560"
   inkscape:window-height="1361"
   id="namedview53"
   showgrid="false"
   inkscape:zoom="0.19666667"
   inkscape:cx="179.66102"
   inkscape:cy="600"
   inkscape:window-x="2551"
   inkscape:window-y="-9"
   inkscape:window-maximized="1"
   inkscape:current-layer="Layer_1" />
<style
   type="text/css"
   id="style2">
	.st0{opacity:0.2;fill:#0082C5;}
	.st1{fill:#0082C5;}
	.st2{fill:#011D34;}
	.st3{fill:#0099AC;}
	.st4{fill:#5AC3B0;}
	.st5{fill:#533694;}
	.st6{fill:#B055BE;}
</style>
<rect
   x="269.99899"
   y="134.89983"
   class="st0"
   width="93"
   height="93"
   id="rect4"
   style="opacity:0.2;fill:#0082c5" />
<rect
   x="225.99899"
   y="194.89983"
   class="st0"
   width="93"
   height="93"
   id="rect6"
   style="opacity:0.2;fill:#0082c5" />
<polygon
   class="st0"
   points="952,372 777,483 777,390 876,342 "
   id="polygon8"
   style="opacity:0.2;fill:#0082c5"
   transform="translate(-380.001,-317.10017)" />
<path
   class="st1"
   d="m 632.519,146.77983 v -0.02 c -1.87,27.27 -13.89,52.85 -33.69,71.7 27.66,-34.56 17.57,-96.14 16.48,-102.29 -16.27,-67.420005 -84.11,-108.890005 -151.53,-92.630005 -30.82,7.43 -57.68,26.25 -75.2,52.67 -34.25,-21.29 -78.86,-14.8 -105.62,15.38 13.8,6.7 30,6.27 43.44,-1.14 -14.62,10.310005 -32.9,13.970005 -50.36,10.100005 -8.61,12.84 -13.43,27.84 -13.92,43.28 h -0.07 c -33.24,0 -63.26,19.86 -76.26,50.44 15.4,0.92 30.28,-5.69 39.91,-17.74 -8.24,17.06 -25.01,28.38 -43.92,29.63 -11.29,44.36 15.52,89.48 59.89,100.77 6.66,1.7 13.51,2.56 20.38,2.56 1.9,0 3.78,-0.09 5.65,-0.21 h 337.32 c 1.87,0.13 3.75,0.21 5.65,0.21 45.74,0 82.83,-37.08 82.83,-82.82 0,-37.33 -24.97,-70.05 -60.98,-79.89 z m -383.23,135.4 c -9.05,0 -16.39,-7.34 -16.39,-16.39 0,-9.05 7.34,-16.39 16.39,-16.39 9.05,0 16.39,7.34 16.39,16.39 0,9.05 -7.34,16.39 -16.39,16.39 z m 47.34,-92.85 c -13.07,0 -23.67,-10.6 -23.67,-23.67 0,-13.07 10.6,-23.67 23.67,-23.67 13.07,0 23.67,10.6 23.67,23.67 -0.01,13.07 -10.6,23.67 -23.67,23.67 z m 100.12,-92.850005 c 0,0 60.08,-92.85 165.67,-38.23 -57.98,-20.21 -122.41,-5.34 -165.67,38.23 z"
   id="path10"
   inkscape:connector-curvature="0"
   style="fill:#0082c5" />
<g
   id="Group_264_1_"
   transform="translate(-0.05,65.491825)">
	<g
   id="Group_262_1_">
		<g
   id="Group_261_1_">
			<path
   id="Path_552_1_"
   class="st2"
   d="m 111.43,322.35 c -5.66,-9.44 -21.24,-18.41 -39.17,-18.41 -23.12,0 -34.21,9.68 -34.21,21.95 0,14.39 16.99,18.41 36.81,20.77 34.44,4.25 66.54,13.21 66.54,52.63 0,36.81 -32.57,52.62 -69.38,52.62 -33.74,0 -59.7,-10.38 -71.97,-40.59 l 25.96,-13.45 c 7.31,18.17 26.43,26.19 46.49,26.19 19.59,0 37.99,-6.84 37.99,-24.78 0,-15.57 -16.28,-21.95 -38.23,-24.3 C 38.52,370.97 7.36,362 7.36,324.95 c 0,-33.98 33.51,-47.9 63.95,-48.14 25.72,0 52.39,7.31 64.9,32.8 z"
   inkscape:connector-curvature="0"
   style="fill:#011d34" />
			<path
   id="Path_553_1_"
   class="st2"
   d="m 206.51,298.52 v 33.04 h 32.09 v 24.78 h -32.33 v 50.26 c 0,11.09 6.13,16.52 15.1,16.52 4.85,-0.14 9.6,-1.35 13.92,-3.54 l 8.02,24.53 c -7.56,3.15 -15.64,4.84 -23.83,4.96 -25.25,0.94 -41.75,-13.45 -41.75,-42.48 v -50.26 h -21.71 v -24.78 h 21.71 v -29.97 z"
   inkscape:connector-curvature="0"
   style="fill:#011d34" />
			<path
   id="Path_554_1_"
   class="st2"
   d="m 289.57,331.32 v 60.88 c 0,17.7 9.68,31.15 28.08,31.15 17.7,0 29.75,-14.86 29.75,-32.57 v -59.47 h 28.55 v 116.55 h -25.72 l -1.89,-15.81 c -12.03,11.8 -23.12,17.46 -39.41,17.46 -27.85,0 -48.14,-21 -48.14,-57.1 v -61.09 z"
   inkscape:connector-curvature="0"
   style="fill:#011d34" />
			<path
   id="Path_555_1_"
   class="st2"
   d="m 522.22,282.71 v 164.94 h -26.9 l -1.88,-16.04 c -8.34,12.4 -22.6,19.48 -37.52,18.64 -34.22,0 -59.94,-22.65 -59.94,-60.88 0,-40.12 25.25,-60.88 59.23,-60.88 12.27,0 31.39,6.61 38.23,18.64 v -64.42 z m -97.46,106.66 c -0.03,18.45 14.91,33.42 33.35,33.45 18.45,0.03 33.42,-14.91 33.45,-33.35 0,-0.03 0,-0.06 0,-0.09 0.43,-18.33 -14.07,-33.54 -32.4,-33.97 -0.45,-0.01 -0.9,-0.01 -1.34,0 -17.71,-0.56 -32.53,13.34 -33.09,31.06 -0.03,0.95 -0.02,1.92 0.03,2.9 z"
   inkscape:connector-curvature="0"
   style="fill:#011d34" />
			<path
   id="Path_556_1_"
   class="st2"
   d="m 578.61,298.52 c 0,22.44 -33.98,22.44 -33.98,0 0,-22.44 33.98,-22.42 33.98,0 z m -31.38,32.33 v 116.81 h 28.79 V 330.85 Z"
   inkscape:connector-curvature="0"
   style="fill:#011d34" />
			<path
   id="Path_557_1_"
   class="st2"
   d="m 635.24,432.79 c 0,22.44 -33.98,22.44 -33.98,0 0,-22.44 33.98,-22.42 33.98,0 z"
   inkscape:connector-curvature="0"
   style="fill:#011d34" />
			<path
   id="Path_558_1_"
   class="st2"
   d="M 695.16,282.71 V 447.65 H 666.6 V 282.71 Z"
   inkscape:connector-curvature="0"
   style="fill:#011d34" />
			<path
   id="Path_559_1_"
   class="st2"
   d="M 840.05,331.32 765.02,504.43 H 733.4 l 25.71,-58.66 -46.49,-114.45 h 33.51 l 17.7,50.26 11.09,32.8 12.03,-32.1 21.24,-50.97 z"
   inkscape:connector-curvature="0"
   style="fill:#011d34" />
		</g>
	</g>
	<g
   id="Group_263_1_"
   transform="translate(0.933,38.112)">
		<path
   id="Path_560_1_"
   class="st1"
   d="m 26.67,458.26 c -1.99,1.96 -4.64,3.09 -7.43,3.17 -5.15,0.12 -9.43,-3.96 -9.55,-9.11 -0.12,-5.15 3.96,-9.43 9.11,-9.55 0.15,0 0.29,0 0.44,0 2.83,0.07 5.51,1.3 7.41,3.39 l 0.4,0.43 3.39,-4.23 -0.32,-0.32 c -2.95,-2.84 -6.87,-4.43 -10.96,-4.45 -8.07,-0.04 -14.65,6.46 -14.69,14.53 -0.04,8.07 6.46,14.65 14.53,14.69 4.19,-0.09 8.18,-1.78 11.16,-4.73 l 0.34,-0.33 -3.45,-3.85 z"
   inkscape:connector-curvature="0"
   style="fill:#0082c5" />
		<path
   id="Path_561_1_"
   class="st1"
   d="m 52.43,437.6 c -8.06,-0.37 -14.9,5.86 -15.28,13.92 -0.01,0.22 -0.02,0.43 -0.02,0.65 -0.41,8.44 6.11,15.62 14.55,16.02 8.44,0.4 15.62,-6.11 16.02,-14.55 0.41,-8.44 -6.11,-15.62 -14.55,-16.02 -0.23,-0.02 -0.47,-0.02 -0.72,-0.02 z m 9.47,14.57 c 0.07,5.24 -4.11,9.55 -9.35,9.62 -5.24,0.07 -9.55,-4.11 -9.62,-9.35 -0.07,-5.24 4.11,-9.55 9.35,-9.62 0.07,0 0.13,0 0.2,0 5.13,-0.08 9.35,4.02 9.42,9.15 0,0.07 0,0.13 0,0.2 z"
   inkscape:connector-curvature="0"
   style="fill:#0082c5" />
		<path
   id="Path_562_1_"
   class="st1"
   d="m 83.41,437.72 h -5.7 v 28.91 H 95.5 v -5.27 H 83.41 Z"
   inkscape:connector-curvature="0"
   style="fill:#0082c5" />
		<path
   id="Path_563_1_"
   class="st1"
   d="m 110.67,437.72 h -5.74 v 28.91 h 17.79 v -5.27 h -12.04 v -23.64 z"
   inkscape:connector-curvature="0"
   style="fill:#0082c5" />
		<path
   id="Path_564_1_"
   class="st1"
   d="m 141.32,437.72 -12.76,28.91 h 6 l 2.67,-6.3 h 13.41 l 2.67,6.3 h 6.12 l -12.64,-28.91 z m 7.1,17.42 h -9.01 l 4.51,-10.62 z"
   inkscape:connector-curvature="0"
   style="fill:#0082c5" />
		<path
   id="Path_565_1_"
   class="st1"
   d="m 186.61,451.34 c 2.35,-1.13 3.81,-3.55 3.72,-6.15 0,-4.61 -3.78,-7.48 -9.87,-7.48 h -12.62 v 28.91 h 12.9 c 6.58,0 10.67,-3.13 10.67,-8.16 0.14,-3.17 -1.81,-6.05 -4.8,-7.12 z m -1.04,6.53 c 0,3.1 -3.36,3.56 -5.36,3.56 h -6.67 v -7.01 h 6.67 c 3.35,0.01 5.38,1.29 5.38,3.45 z m -5.37,-8.59 h -6.67 v -6.37 h 6.67 c 1.6,0 4.28,0.41 4.28,3.13 0.01,2.06 -1.55,3.22 -4.27,3.22 z"
   inkscape:connector-curvature="0"
   style="fill:#0082c5" />
		<path
   id="Path_566_1_"
   class="st1"
   d="m 214.92,437.6 c -8.06,-0.37 -14.9,5.86 -15.28,13.92 -0.01,0.22 -0.02,0.43 -0.02,0.65 -0.41,8.45 6.11,15.63 14.55,16.04 8.45,0.41 15.63,-6.11 16.04,-14.55 0.41,-8.45 -6.11,-15.63 -14.55,-16.04 -0.24,-0.02 -0.49,-0.02 -0.74,-0.02 z m 9.47,14.57 c 0.07,5.24 -4.11,9.55 -9.35,9.62 -5.24,0.07 -9.55,-4.11 -9.62,-9.35 -0.07,-5.24 4.11,-9.55 9.35,-9.62 0.07,0 0.13,0 0.2,0 5.13,-0.07 9.35,4.02 9.42,9.15 0,0.07 0,0.13 0,0.2 z"
   inkscape:connector-curvature="0"
   style="fill:#0082c5" />
		<path
   id="Path_567_1_"
   class="st1"
   d="m 263.76,447.75 c 0,-6.38 -4.28,-10.03 -11.74,-10.03 H 240.2 v 28.91 h 5.7 v -8.41 h 6.12 c 0.33,0 0.68,0 1.01,0 l 5.09,8.43 h 6.57 l -6.45,-9.6 c 3.58,-1.66 5.79,-5.36 5.52,-9.3 z m -5.47,0.11 c 0,3.4 -2.09,5.12 -6.26,5.12 h -6.12 v -10.05 h 6.12 c 4.15,0.02 6.26,1.67 6.26,4.93 z"
   inkscape:connector-curvature="0"
   style="fill:#0082c5" />
		<path
   id="Path_568_1_"
   class="st1"
   d="m 283.85,437.72 -12.76,28.91 h 6 l 2.67,-6.3 h 13.41 l 2.67,6.3 h 6.12 l -12.64,-28.91 z m 7.11,17.42 h -9.01 l 4.51,-10.62 z"
   inkscape:connector-curvature="0"
   style="fill:#0082c5" />
		<path
   id="Path_569_1_"
   class="st1"
   d="m 304.31,442.94 h 8.81 v 23.68 h 5.7 v -23.68 h 8.87 v -5.22 h -23.36 z"
   inkscape:connector-curvature="0"
   style="fill:#0082c5" />
		<rect
   id="Rectangle_331_1_"
   x="336.66"
   y="437.72"
   class="st1"
   width="5.6999998"
   height="28.91"
   style="fill:#0082c5" />
		<path
   id="Path_570_1_"
   class="st1"
   d="m 365.3,459.5 -8.27,-21.78 h -6.15 l 11.52,28.91 h 5.54 l 11.68,-28.91 h -5.99 z"
   inkscape:connector-curvature="0"
   style="fill:#0082c5" />
		<path
   id="Path_571_1_"
   class="st1"
   d="m 393.84,454.7 h 13.64 v -5.22 h -13.64 v -6.54 h 15.23 v -5.22 h -20.94 v 28.91 h 21.4 v -5.22 h -15.71 z"
   inkscape:connector-curvature="0"
   style="fill:#0082c5" />
		<path
   id="Path_572_1_"
   class="st1"
   d="m 442.24,454.7 h 13.64 v -5.22 h -13.64 v -6.54 h 15.23 v -5.22 H 436.5 v 28.91 h 21.4 v -5.22 h -15.66 z"
   inkscape:connector-curvature="0"
   style="fill:#0082c5" />
		<path
   id="Path_573_1_"
   class="st1"
   d="m 480.58,437.72 h -11.95 v 28.91 h 11.83 c 7.98,0.37 14.75,-5.8 15.12,-13.78 0.37,-7.98 -5.8,-14.75 -13.78,-15.12 -0.4,-0.03 -0.81,-0.03 -1.22,-0.01 z m 9.19,14.49 c 0.2,4.87 -3.59,8.98 -8.46,9.18 -0.2,0.01 -0.4,0.01 -0.61,0 h -6.36 v -18.45 h 6.16 c 5.01,-0.11 9.15,3.85 9.27,8.86 0,0.14 0,0.27 0,0.41 z"
   inkscape:connector-curvature="0"
   style="fill:#0082c5" />
		<path
   id="Path_574_1_"
   class="st1"
   d="m 524.51,454.56 c 0,3.83 -3.11,6.94 -6.94,6.94 -3.83,0 -6.94,-3.11 -6.94,-6.94 v -16.85 h -5.7 v 16.85 c 0.2,6.98 6.02,12.48 13,12.28 6.7,-0.19 12.08,-5.58 12.28,-12.28 v -16.85 h -5.7 z"
   inkscape:connector-curvature="0"
   style="fill:#0082c5" />
		<path
   id="Path_575_1_"
   class="st1"
   d="m 562.28,458.26 c -1.99,1.96 -4.64,3.09 -7.43,3.17 -5.15,0.12 -9.43,-3.96 -9.55,-9.11 -0.12,-5.15 3.96,-9.43 9.11,-9.55 0.15,0 0.29,0 0.44,0 2.83,0.07 5.51,1.3 7.41,3.39 l 0.4,0.43 3.39,-4.23 -0.32,-0.32 c -2.95,-2.84 -6.87,-4.43 -10.96,-4.45 -8.07,-0.04 -14.65,6.46 -14.69,14.53 -0.04,8.07 6.46,14.65 14.53,14.69 4.19,-0.09 8.18,-1.78 11.16,-4.73 l 0.34,-0.33 -3.45,-3.85 z"
   inkscape:connector-curvature="0"
   style="fill:#0082c5" />
		<path
   id="Path_576_1_"
   class="st1"
   d="m 584.32,437.72 -12.76,28.91 h 6 l 2.67,-6.3 h 13.41 l 2.67,6.3 h 6.12 L 589.8,437.72 Z m 7.11,17.42 h -9.01 l 4.51,-10.62 z"
   inkscape:connector-curvature="0"
   style="fill:#0082c5" />
		<path
   id="Path_577_1_"
   class="st1"
   d="m 604.78,442.94 h 8.81 v 23.68 h 5.7 v -23.68 h 8.87 v -5.22 H 604.8 Z"
   inkscape:connector-curvature="0"
   style="fill:#0082c5" />
		<rect
   id="Rectangle_332_1_"
   x="637.14001"
   y="437.72"
   class="st1"
   width="5.6999998"
   height="28.91"
   style="fill:#0082c5" />
		<path
   id="Path_578_1_"
   class="st1"
   d="m 668.13,437.6 c -8.06,-0.37 -14.9,5.86 -15.28,13.92 -0.01,0.22 -0.02,0.44 -0.02,0.65 -0.41,8.45 6.11,15.63 14.55,16.04 8.45,0.41 15.63,-6.11 16.03,-14.55 0.41,-8.45 -6.11,-15.63 -14.55,-16.04 -0.24,-0.02 -0.48,-0.02 -0.73,-0.02 z m 9.46,14.57 c 0.08,5.24 -4.11,9.55 -9.35,9.62 -5.24,0.07 -9.55,-4.11 -9.62,-9.35 -0.08,-5.24 4.11,-9.55 9.35,-9.62 0.06,0 0.13,0 0.19,0 5.13,-0.08 9.35,4.01 9.43,9.14 0.01,0.07 0.01,0.14 0,0.21 z"
   inkscape:connector-curvature="0"
   style="fill:#0082c5" />
		<path
   id="Path_579_1_"
   class="st1"
   d="m 712.98,437.72 v 19.05 l -14.19,-19.05 h -5.38 v 28.91 h 5.7 v -19 l 14.12,19 h 5.38 v -28.91 z"
   inkscape:connector-curvature="0"
   style="fill:#0082c5" />
	</g>
</g>
<circle
   id="Ellipse_34_1_"
   class="st5"
   cx="302.98898"
   cy="48.239822"
   r="48.240002"
   style="fill:#533694" />
<circle
   id="Ellipse_35_1_"
   class="st3"
   cx="211.05899"
   cy="65.529831"
   r="23.67"
   style="fill:#0099ac" />
<circle
   id="Ellipse_38_1_"
   class="st4"
   cx="189.20901"
   cy="149.27983"
   r="45.509998"
   style="fill:#5ac3b0" />
<circle
   id="Ellipse_39_1_"
   class="st6"
   cx="140.96896"
   cy="239.38982"
   r="26.4"
   style="fill:#b055be" />
<circle
   id="Ellipse_40_1_"
   class="st3"
   cx="52.678993"
   cy="196.60985"
   r="27.309999"
   style="fill:#0099ac" />
<circle
   id="Ellipse_41_1_"
   class="st6"
   cx="111.839"
   cy="37.30983"
   r="20.940001"
   style="fill:#b055be" />
</svg>