<?xml version="1.0" encoding="UTF-8" standalone="no"?>
<!-- Generator: Adobe Illustrator 17.1.0, SVG Export Plug-In . SVG Version: 6.00 Build 0)  -->

<svg
   xmlns:dc="http://purl.org/dc/elements/1.1/"
   xmlns:cc="http://creativecommons.org/ns#"
   xmlns:rdf="http://www.w3.org/1999/02/22-rdf-syntax-ns#"
   xmlns:svg="http://www.w3.org/2000/svg"
   xmlns="http://www.w3.org/2000/svg"
   xmlns:sodipodi="http://sodipodi.sourceforge.net/DTD/sodipodi-0.dtd"
   xmlns:inkscape="http://www.inkscape.org/namespaces/inkscape"
   version="1.1"
   id="Layer_1"
   x="0px"
   y="0px"
   width="25"
   height="25"
   viewBox="0 0 25 25"
   enable-background="new 0 0 16 16"
   xml:space="preserve"
   sodipodi:docname="calendar-alt-regular.svg"
   inkscape:version="0.92.4 (5da689c313, 2019-01-14)"><metadata
   id="metadata9"><rdf:RDF><cc:Work
       rdf:about=""><dc:format>image/svg+xml</dc:format><dc:type
         rdf:resource="http://purl.org/dc/dcmitype/StillImage" /><dc:title></dc:title></cc:Work></rdf:RDF></metadata><defs
   id="defs7" /><sodipodi:namedview
   pagecolor="#ffffff"
   bordercolor="#666666"
   borderopacity="1"
   objecttolerance="10"
   gridtolerance="10"
   guidetolerance="10"
   inkscape:pageopacity="0"
   inkscape:pageshadow="2"
   inkscape:window-width="1920"
   inkscape:window-height="1001"
   id="namedview5"
   showgrid="false"
   inkscape:zoom="20.85965"
   inkscape:cx="4.1522816"
   inkscape:cy="8.6760879"
   inkscape:window-x="-9"
   inkscape:window-y="-9"
   inkscape:window-maximized="1"
   inkscape:current-layer="Layer_1" />

<path
   style="fill:#ffffff;fill-opacity:1;stroke-width:0.04892461"
   d="m 6.6482385,0.43657396 c -0.3362331,0 -0.6107963,0.25278282 -0.6107963,0.5628942 V 3.4447298 H 3.5909575 c -1.3500264,0 -2.4431835,1.0095101 -2.4431835,2.2546036 V 22.238138 c 0,1.245095 1.0931571,2.254605 2.4431835,2.254605 H 21.525243 c 1.350024,0 2.443184,-1.00951 2.443184,-2.254605 V 5.6993334 c 0,-1.2450935 -1.09316,-2.2546036 -2.443184,-2.2546036 H 19.078758 V 0.99946816 c 0,-0.31011138 -0.274557,-0.5628942 -0.610792,-0.5628942 h -2.037091 c -0.336229,0 -0.614097,0.25278282 -0.614097,0.5628942 V 3.4447298 H 9.2961208 V 0.99946816 c 0,-0.31011138 -0.2745638,-0.5628942 -0.6107956,-0.5628942 z M 3.5909575,7.9539365 H 21.525243 V 21.956688 c 0,0.155004 -0.138937,0.28145 -0.307048,0.28145 H 3.8980063 c -0.1681164,0 -0.3070488,-0.126414 -0.3070488,-0.28145 z m 3.057281,3.0081585 c -0.3362331,0 -0.6107963,0.252798 -0.6107963,0.562894 v 1.87934 c 0,0.310096 0.2745642,0.562894 0.6107963,0.562894 h 2.0370867 c 0.3362308,0 0.6107956,-0.252798 0.6107956,-0.562894 v -1.87934 c 0,-0.310096 -0.2745638,-0.562894 -0.6107956,-0.562894 z m 4.8896685,0 c -0.336233,0 -0.610796,0.252798 -0.610797,0.562894 v 1.87934 c 0,0.310096 0.274565,0.562894 0.610797,0.562894 h 2.037086 c 0.336229,0 0.614098,-0.252798 0.614098,-0.562894 v -1.87934 c 0,-0.310096 -0.277869,-0.562894 -0.614098,-0.562894 z m 4.892968,0 c -0.336229,0 -0.614097,0.252798 -0.614097,0.562894 v 1.87934 c 0,0.310096 0.277868,0.562894 0.614097,0.562894 h 2.037091 c 0.33623,0 0.610792,-0.252798 0.610792,-0.562894 v -1.87934 c 0,-0.310096 -0.274557,-0.562894 -0.610792,-0.562894 z m -9.7826365,4.509207 c -0.3362331,0 -0.6107963,0.252796 -0.6107963,0.562893 v 1.879343 c 0,0.310096 0.2745642,0.565919 0.6107963,0.565919 h 2.0370867 c 0.3362308,0 0.6107956,-0.255823 0.6107956,-0.565919 v -1.879343 c 0,-0.310097 -0.2745638,-0.562893 -0.6107956,-0.562893 z m 4.8896685,0 c -0.336233,0 -0.610796,0.252796 -0.610797,0.562893 v 1.879343 c 0,0.310096 0.274565,0.565919 0.610797,0.565919 h 2.037086 c 0.336229,0 0.614098,-0.255823 0.614098,-0.565919 v -1.879343 c 0,-0.310097 -0.277869,-0.562893 -0.614098,-0.562893 z m 4.892968,0 c -0.336229,0 -0.614097,0.252796 -0.614097,0.562893 v 1.879343 c 0,0.310096 0.277868,0.565919 0.614097,0.565919 h 2.037091 c 0.33623,0 0.610792,-0.255823 0.610792,-0.565919 v -1.879343 c 0,-0.310097 -0.274557,-0.562893 -0.610792,-0.562893 z"
   id="path2"
   inkscape:connector-curvature="0" /></svg>