<svg id="Layer_1" data-name="Layer 1" xmlns="http://www.w3.org/2000/svg" viewBox="0 0 883 639.22"><defs><style>.cls-1{fill:#ffc541;}.cls-2{fill:#0071b8;}</style></defs><title>Artboard 1</title><path class="cls-1" d="M507.55,413.81a98.55,98.55,0,0,1,54.92,35.56,97,97,0,0,1,21.44,61.71v38.7A50,50,0,0,1,533.7,600H98.6a50,50,0,0,1-50.21-50.2v-38.7a97,97,0,0,1,21.44-61.71,98.56,98.56,0,0,1,54.91-35.56L199,395q49.16,35.56,110.86,37.65,68,2.1,123.42-37.65ZM316.15,64.46A163.69,163.69,0,0,0,232.48,87a166.14,166.14,0,0,0-61.19,61.19,166.9,166.9,0,0,0,0,167.35,166.12,166.12,0,0,0,61.19,61.18,166.88,166.88,0,0,0,167.34,0A166.12,166.12,0,0,0,461,315.49a166.9,166.9,0,0,0,0-167.35A166.14,166.14,0,0,0,399.82,87,163.71,163.71,0,0,0,316.15,64.46Z"/><path class="cls-2" d="M570.17,386.75a98.58,98.58,0,0,1,54.91,35.56A97,97,0,0,1,646.52,484v38.7a50,50,0,0,1-50.2,50.21H161.21A50,50,0,0,1,111,522.72V484a97,97,0,0,1,21.44-61.71,98.58,98.58,0,0,1,54.91-35.56l74.26-18.83q49.15,35.57,110.87,37.66,68,2.09,123.42-37.66ZM378.76,37.41A163.71,163.71,0,0,0,295.09,59.9a166.22,166.22,0,0,0-61.19,61.19,166.95,166.95,0,0,0,0,167.34,166.22,166.22,0,0,0,61.19,61.19,166.9,166.9,0,0,0,167.35,0,166.22,166.22,0,0,0,61.19-61.19,166.95,166.95,0,0,0,0-167.34A166.22,166.22,0,0,0,462.44,59.9,163.72,163.72,0,0,0,378.76,37.41Z"/><path class="cls-1" d="M636.55,272a29.05,29.05,0,1,1,20.26,8.23A27.56,27.56,0,0,1,636.55,272Zm80.81,71.23a8.16,8.16,0,0,0,5.34-2.45,130.7,130.7,0,0,0,30-57,133.68,133.68,0,0,0,0-64.11,130.67,130.67,0,0,0-30-57,8.11,8.11,0,0,0-5.34-2.45,6.57,6.57,0,0,0-5.34,2l-15.14,15.14a7.62,7.62,0,0,0,0,9.79,99.16,99.16,0,0,1,0,129.11,7.63,7.63,0,0,0,0,9.8L712,341.25A6.54,6.54,0,0,0,717.36,343.26Zm50.75,49.86a6.56,6.56,0,0,0,4.9-2.45,196,196,0,0,0,48.53-89.48,199.05,199.05,0,0,0,0-98.84A196.06,196.06,0,0,0,773,112.86a7,7,0,0,0-10.24-.44l-15.14,15.14a9.11,9.11,0,0,0-2,5.12,5.14,5.14,0,0,0,2,4.67,166.18,166.18,0,0,1,39.62,73.9,162.78,162.78,0,0,1,0,81,166.16,166.16,0,0,1-39.62,73.91,5.13,5.13,0,0,0-2,4.67,9.11,9.11,0,0,0,2,5.12l15.14,15.14A6.57,6.57,0,0,0,768.11,393.12Z"/><path class="cls-2" d="M649.3,251.08a29,29,0,1,1,20.26,8.24A27.53,27.53,0,0,1,649.3,251.08Zm80.81,71.23a8.14,8.14,0,0,0,5.34-2.44,130.7,130.7,0,0,0,30-57,133.93,133.93,0,0,0,0-64.11,130.76,130.76,0,0,0-30-57,8.14,8.14,0,0,0-5.34-2.44,6.57,6.57,0,0,0-5.35,2l-15.13,15.14a7.62,7.62,0,0,0,0,9.79,99.19,99.19,0,0,1,0,129.11,7.62,7.62,0,0,0,0,9.79l15.13,15.14A6.57,6.57,0,0,0,730.11,322.31Zm50.75,49.87a6.59,6.59,0,0,0,4.9-2.45,196,196,0,0,0,48.52-89.49,199,199,0,0,0,0-98.83,196,196,0,0,0-48.52-89.49,7,7,0,0,0-10.24-.44l-15.14,15.13a9.13,9.13,0,0,0-2,5.12,5.16,5.16,0,0,0,2,4.68A166.12,166.12,0,0,1,800,190.31a162.78,162.78,0,0,1,0,81,166.12,166.12,0,0,1-39.62,73.9,5.16,5.16,0,0,0-2,4.68,9.13,9.13,0,0,0,2,5.12l15.14,15.13A6.54,6.54,0,0,0,780.86,372.18Z"/></svg>