<?xml version="1.0" encoding="UTF-8" standalone="no"?>
<!-- Created with Inkscape (http://www.inkscape.org/) -->

<svg
   xmlns:dc="http://purl.org/dc/elements/1.1/"
   xmlns:cc="http://creativecommons.org/ns#"
   xmlns:rdf="http://www.w3.org/1999/02/22-rdf-syntax-ns#"
   xmlns:svg="http://www.w3.org/2000/svg"
   xmlns="http://www.w3.org/2000/svg"
   xmlns:sodipodi="http://sodipodi.sourceforge.net/DTD/sodipodi-0.dtd"
   xmlns:inkscape="http://www.inkscape.org/namespaces/inkscape"
   width="65mm"
   height="22.5mm"
   viewBox="0 0 64.999994 22.5"
   version="1.1"
   id="svg8"
   inkscape:version="0.92.2 (5c3e80d, 2017-08-06)"
   sodipodi:docname="optimentor-logo-svg.svg">
  <defs
     id="defs2">
    <clipPath
       id="clipPath4763"
       clipPathUnits="userSpaceOnUse">
      <path
         inkscape:connector-curvature="0"
         id="path4761"
         d="M 0,0 H 595.276 V 841.89 H 0 Z" />
    </clipPath>
    <linearGradient
       id="linearGradient4777"
       spreadMethod="pad"
       gradientTransform="matrix(0,301.796,-301.796,0,-368.86304,594.81944)"
       gradientUnits="userSpaceOnUse"
       y2="0"
       x2="1"
       y1="0"
       x1="0">
      <stop
         id="stop4767"
         offset="0"
         style="stop-opacity:1;stop-color:#0e88d3" />
      <stop
         id="stop4769"
         offset="0.83082572"
         style="stop-opacity:1;stop-color:#ffffff" />
      <stop
         id="stop4771"
         offset="0.879105"
         style="stop-opacity:1;stop-color:#ffffff" />
      <stop
         id="stop4773"
         offset="0.88805131"
         style="stop-opacity:1;stop-color:#ffffff" />
      <stop
         id="stop4775"
         offset="1"
         style="stop-opacity:1;stop-color:#ffffff" />
    </linearGradient>
    <clipPath
       id="clipPath4807"
       clipPathUnits="userSpaceOnUse">
      <path
         inkscape:connector-curvature="0"
         id="path4805"
         d="M 0,0 H 595.276 V 841.89 H 0 Z" />
    </clipPath>
    <clipPath
       id="clipPath4833"
       clipPathUnits="userSpaceOnUse">
      <path
         inkscape:connector-curvature="0"
         id="path4831"
         d="M 0,0 H 595.276 V 841.89 H 0 Z" />
    </clipPath>
    <linearGradient
       id="linearGradient4859"
       spreadMethod="pad"
       gradientTransform="matrix(0,-226.2953,-226.2953,0,601.04198,785.96643)"
       gradientUnits="userSpaceOnUse"
       y2="0"
       x2="1"
       y1="0"
       x1="0">
      <stop
         id="stop4855"
         offset="0"
         style="stop-opacity:1;stop-color:#cce1f5" />
      <stop
         id="stop4857"
         offset="1"
         style="stop-opacity:1;stop-color:#ffffff" />
    </linearGradient>
    <clipPath
       id="clipPath4869"
       clipPathUnits="userSpaceOnUse">
      <path
         inkscape:connector-curvature="0"
         id="path4867"
         d="M 0,0 H 595.276 V 841.89 H 0 Z" />
    </clipPath>
    <clipPath
       id="clipPath4901"
       clipPathUnits="userSpaceOnUse">
      <path
         inkscape:connector-curvature="0"
         id="path4899"
         d="M 0,0 H 595.276 V 841.89 H 0 Z" />
    </clipPath>
    <clipPath
       id="clipPath4927"
       clipPathUnits="userSpaceOnUse">
      <path
         inkscape:connector-curvature="0"
         id="path4925"
         d="M 0,0 H 595.276 V 841.89 H 0 Z" />
    </clipPath>
    <clipPath
       id="clipPath4947"
       clipPathUnits="userSpaceOnUse">
      <path
         inkscape:connector-curvature="0"
         id="path4945"
         d="M 420.426,653.473 C 255.376,588.785 116.708,505.916 29.706,426.446 v 0 h 0.492 c 87.017,79.398 225.574,162.168 390.463,226.792 v 0 c 4.502,1.766 7.234,2.832 13.648,5.29 v 0 l -0.73,0.044 c -4.379,-1.679 -8.762,-3.379 -13.153,-5.099" />
    </clipPath>
  </defs>
  <sodipodi:namedview
     id="base"
     pagecolor="#ffffff"
     bordercolor="#666666"
     borderopacity="1.0"
     inkscape:pageopacity="0.0"
     inkscape:pageshadow="2"
     inkscape:zoom="1.4"
     inkscape:cx="162.73216"
     inkscape:cy="-24.311369"
     inkscape:document-units="mm"
     inkscape:current-layer="g4765"
     showgrid="false"
     fit-margin-top="0"
     fit-margin-left="0.7"
     fit-margin-right="10"
     fit-margin-bottom="0"
     scale-x="0.9"
     inkscape:window-width="1920"
     inkscape:window-height="1057"
     inkscape:window-x="1358"
     inkscape:window-y="-8"
     inkscape:window-maximized="1" />
  <metadata
     id="metadata5">
    <rdf:RDF>
      <cc:Work
         rdf:about="">
        <dc:format>image/svg+xml</dc:format>
        <dc:type
           rdf:resource="http://purl.org/dc/dcmitype/StillImage" />
        <dc:title></dc:title>
      </cc:Work>
    </rdf:RDF>
  </metadata>
  <g
     inkscape:label="Layer 1"
     inkscape:groupmode="layer"
     id="layer1"
     transform="translate(-4.8621858,-84.206124)">
    <g
       transform="matrix(0.35277777,0,0,-0.35277777,-10.506022,300.92384)"
       inkscape:label="grafiske_elementer"
       id="g4755">
      <g
         id="g4757"
         transform="translate(29.546962,493.96461)">
        <g
           clip-path="url(#clipPath4763)"
           id="g4759">
          <g
             transform="translate(566.7026,349.6913)"
             id="g4765">
            <path
               inkscape:connector-curvature="0"
               id="path4779"
               style="fill:none;stroke:url(#linearGradient4777);stroke-width:0.2;stroke-linecap:butt;stroke-linejoin:miter;stroke-miterlimit:4;stroke-dasharray:none;stroke-opacity:1"
               d="m -398.57144,-238.39287 c 9.946,3.018 19.818,5.909 29.608,8.67 M -758.2856,-419.31092 c 85.451,81.20199 167.35514,112.28075 195.74316,122.60305 12.983,5.375 25.922,10.565 38.802,15.569"
               sodipodi:nodetypes="ccccc" />
          </g>
          <g
             transform="translate(136.55796,112.13334)"
             id="g4781">
            <path
               inkscape:connector-curvature="0"
               id="path4783"
               style="fill:#0e88d3;fill-opacity:1;fill-rule:nonzero;stroke:none"
               d="M 0,0 V -3.455 H -47.039 V -6.911 H -59.192 V -10.22 H -94.02 V -42.88 C -31.539,-16.966 -8.128,-10.994 31.627,0 Z" />
          </g>
          <g
             transform="translate(42.538259,68.476642)"
             id="g4785">
            <path
               inkscape:connector-curvature="0"
               id="path4787"
               style="fill:#0e88d3;fill-opacity:1;fill-rule:nonzero;stroke:none"
               d="M 0,0 H 34.827 V 3.309 H 46.981 V 6.764 H 94.02 v 3.456 h 31.65 V 42.962 C 85.873,31.954 60.231,25.238 0,0" />
          </g>
          <g
             transform="translate(53.450459,81.220342)"
             id="g4789">
            <path
               inkscape:connector-curvature="0"
               id="path4791"
               style="fill:#ffffff;fill-opacity:1;fill-rule:nonzero;stroke:none"
               d="m 0,0 c 3.675,0 6.625,2.924 6.625,6.625 0,3.702 -2.924,6.681 -6.625,6.681 -3.703,0 -6.627,-2.979 -6.627,-6.681 C -6.627,2.924 -3.676,0 0,0 M 0,11.32 C 2.656,11.32 4.479,9.201 4.479,6.653 4.479,4.078 2.656,1.985 0,1.985 c -2.656,0 -4.48,2.093 -4.48,4.668 0,2.548 1.824,4.667 4.48,4.667" />
          </g>
          <g
             transform="translate(68.471959,92.540142)"
             id="g4793">
            <path
               inkscape:connector-curvature="0"
               id="path4795"
               style="fill:#ffffff;fill-opacity:1;fill-rule:nonzero;stroke:none"
               d="m 0,0 c 2.655,0 4.238,-2.038 4.238,-4.56 0,-2.549 -1.449,-4.775 -4.212,-4.775 -2.682,0 -4.131,2.334 -4.131,4.803 C -4.105,-2.172 -2.495,0 0,0 m -3.998,1.637 h -2.146 v -19.69 h 2.146 v 8.852 h 0.055 c 1.018,-1.368 2.601,-2.119 4.318,-2.119 3.782,0 6.063,3.032 6.063,6.626 0,3.487 -2.335,6.68 -6.037,6.68 -1.743,0 -3.299,-0.752 -4.344,-2.146 h -0.055 z" />
          </g>
        </g>
      </g>
      <g
         transform="translate(109.12642,586.15665)"
         id="g4797">
        <path
           inkscape:connector-curvature="0"
           id="path4799"
           style="fill:#ffffff;fill-opacity:1;fill-rule:nonzero;stroke:none"
           d="M 0,0 H 2.252 V 1.985 H 0 V 6.519 H -2.147 V 1.985 H -3.462 V 0 h 1.315 V -10.623 H 0 Z" />
      </g>
      <g
         id="g4801"
         transform="translate(-369.02447,255.57175)">
        <g
           clip-path="url(#clipPath4807)"
           id="g4803">
          <path
             inkscape:connector-curvature="0"
             id="path4809"
             style="fill:#ffffff;fill-opacity:1;fill-rule:nonzero;stroke:none"
             d="m 484.836,332.57 h -2.146 v -12.608 h 2.146 z m -1.072,6.277 c -0.831,0 -1.529,-0.697 -1.529,-1.529 0,-0.858 0.698,-1.529 1.529,-1.529 0.832,0 1.529,0.671 1.529,1.529 0,0.832 -0.697,1.529 -1.529,1.529" />
          <g
             transform="translate(490.3364,332.5702)"
             id="g4811">
            <path
               inkscape:connector-curvature="0"
               id="path4813"
               style="fill:#ffffff;fill-opacity:1;fill-rule:nonzero;stroke:none"
               d="M 0,0 H -2.146 V -12.608 H 0 v 6.518 c 0,1.905 0.27,4.453 2.791,4.453 2.065,0 2.253,-2.253 2.253,-3.809 v -7.162 H 7.19 v 6.679 c 0,1.906 0.269,4.292 2.736,4.292 2.2,0 2.306,-2.011 2.306,-3.648 v -7.323 h 2.148 v 7.671 c 0,2.657 -0.806,5.286 -4.025,5.286 -1.529,0 -3.031,-0.698 -3.782,-2.093 -0.67,1.315 -2.012,2.093 -3.487,2.093 -1.288,0 -2.361,-0.671 -3.031,-1.717 H 0 Z" />
          </g>
          <g
             transform="translate(518.9037,325.81)"
             id="g4815">
            <path
               inkscape:connector-curvature="0"
               id="path4817"
               style="fill:#ffffff;fill-opacity:1;fill-rule:nonzero;stroke:none"
               d="m 0,0 c 0.214,3.755 -1.933,7.109 -5.982,7.109 -3.944,0 -6.117,-3.086 -6.117,-6.814 0,-3.621 2.414,-6.492 6.17,-6.492 2.576,0 4.614,1.289 5.822,3.541 l -1.826,1.046 c -0.83,-1.502 -2.011,-2.602 -3.836,-2.602 -2.441,0 -4.103,1.878 -4.13,4.212 z m -9.792,1.824 c 0.268,1.824 1.985,3.299 3.836,3.299 1.879,0 3.407,-1.475 3.702,-3.299 z" />
          </g>
          <g
             transform="translate(523.6782,332.5702)"
             id="g4819">
            <path
               inkscape:connector-curvature="0"
               id="path4821"
               style="fill:#ffffff;fill-opacity:1;fill-rule:nonzero;stroke:none"
               d="M 0,0 H -2.146 V -12.608 H 0 v 5.982 c 0,2.253 0.189,4.989 3.139,4.989 2.495,0 2.656,-1.824 2.656,-3.863 v -7.108 h 2.146 v 7.484 c 0,2.952 -0.805,5.473 -4.293,5.473 -1.556,0 -2.708,-0.671 -3.594,-1.878 H 0 Z" />
          </g>
        </g>
      </g>
      <g
         transform="translate(168.33332,586.15665)"
         id="g4823">
        <path
           inkscape:connector-curvature="0"
           id="path4825"
           style="fill:#ffffff;fill-opacity:1;fill-rule:nonzero;stroke:none"
           d="M 0,0 H 2.253 V 1.985 H 0 V 6.519 H -2.146 V 1.985 H -3.461 V 0 h 1.315 V -10.623 H 0 Z" />
      </g>
      <g
         id="g4827"
         transform="translate(-369.02447,255.57175)">
        <g
           clip-path="url(#clipPath4833)"
           id="g4829">
          <g
             transform="translate(546.9966,319.6132)"
             id="g4835">
            <path
               inkscape:connector-curvature="0"
               id="path4837"
               style="fill:#ffffff;fill-opacity:1;fill-rule:nonzero;stroke:none"
               d="m 0,0 c 3.674,0 6.625,2.924 6.625,6.625 0,3.702 -2.924,6.681 -6.625,6.681 -3.703,0 -6.627,-2.979 -6.627,-6.681 C -6.627,2.924 -3.676,0 0,0 M 0,11.32 C 2.654,11.32 4.479,9.201 4.479,6.653 4.479,4.078 2.654,1.985 0,1.985 c -2.656,0 -4.481,2.093 -4.481,4.668 0,2.548 1.825,4.667 4.481,4.667" />
          </g>
          <g
             transform="translate(557.8071,332.5702)"
             id="g4839">
            <path
               inkscape:connector-curvature="0"
               id="path4841"
               style="fill:#ffffff;fill-opacity:1;fill-rule:nonzero;stroke:none"
               d="M 0,0 H -2.147 V -12.608 H 0 v 6.304 c 0,1.636 0.107,4.667 2.469,4.667 0.562,0 0.857,-0.268 1.287,-0.563 l 1.019,1.958 C 4.158,0.107 3.568,0.349 2.844,0.349 1.447,0.349 0.805,-0.376 0.053,-1.368 H 0 Z" />
          </g>
        </g>
      </g>
    </g>
  </g>
</svg>
