<?xml version="1.0" encoding="UTF-8" standalone="no"?>
<!-- Generator: Adobe Illustrator 19.0.0, SVG Export Plug-In . SVG Version: 6.00 Build 0)  -->

<svg
   xmlns:dc="http://purl.org/dc/elements/1.1/"
   xmlns:cc="http://creativecommons.org/ns#"
   xmlns:rdf="http://www.w3.org/1999/02/22-rdf-syntax-ns#"
   xmlns:svg="http://www.w3.org/2000/svg"
   xmlns="http://www.w3.org/2000/svg"
   xmlns:sodipodi="http://sodipodi.sourceforge.net/DTD/sodipodi-0.dtd"
   xmlns:inkscape="http://www.inkscape.org/namespaces/inkscape"
   version="1.1"
   id="Layer_1"
   x="0px"
   y="0px"
   viewBox="0 0 512 512"
   style="enable-background:new 0 0 512 512;"
   xml:space="preserve"
   inkscape:version="0.48.5 r10040"
   width="100%"
   height="100%"
   sodipodi:docname="blank-company.svg"><metadata
   id="metadata53"><rdf:RDF><cc:Work
       rdf:about=""><dc:format>image/svg+xml</dc:format><dc:type
         rdf:resource="http://purl.org/dc/dcmitype/StillImage" /></cc:Work></rdf:RDF></metadata><defs
   id="defs51" /><sodipodi:namedview
   pagecolor="#ffffff"
   bordercolor="#666666"
   borderopacity="1"
   objecttolerance="10"
   gridtolerance="10"
   guidetolerance="10"
   inkscape:pageopacity="0"
   inkscape:pageshadow="2"
   inkscape:window-width="1366"
   inkscape:window-height="705"
   id="namedview49"
   showgrid="false"
   inkscape:zoom="0.921875"
   inkscape:cx="219.59895"
   inkscape:cy="238.17909"
   inkscape:window-x="-8"
   inkscape:window-y="-8"
   inkscape:window-maximized="1"
   inkscape:current-layer="g7" />
<path
   style="fill:#eeeeee;fill-opacity:1"
   d="M121.018,134.982c0,10.264,8.354,18.618,18.618,18.618c10.264,0,18.618-8.354,18.618-18.618  s-8.354-18.618-18.618-18.618C129.373,116.364,121.018,124.718,121.018,134.982z"
   id="path3" />
<path
   style="fill:#eeeeee;fill-opacity:1"
   d="M381.673,246.691c-61.6,0-111.709,50.109-111.709,111.709s50.109,111.709,111.709,111.709  S493.382,420,493.382,358.4S443.273,246.691,381.673,246.691z M456.145,367.709h-65.164v65.164h-18.618v-65.164H307.2v-18.618  h65.164v-65.164h18.618v65.164h65.164V367.709z"
   id="path5" />
<g
   id="g7">
	<path
   style="fill:#cccccc;fill-opacity:1"
   d="M214.109,349.091H18.618v-307.2H409.6v153.6c0,5.145,4.164,9.309,9.309,9.309   s9.309-4.164,9.309-9.309V32.582c0-5.145-4.164-9.309-9.309-9.309H9.309C4.164,23.273,0,27.436,0,32.582V358.4   c0,5.145,4.164,9.309,9.309,9.309h204.8c5.145,0,9.309-4.164,9.309-9.309S219.254,349.091,214.109,349.091z"
   id="path9" />
	<path
   style="fill:#cccccc;fill-opacity:1"
   d="M214.109,311.855H55.855V255.2l47.482-47.482l63.373,46.482c3.573,2.627,8.509,2.364,11.782-0.636   L277.8,162.9l40.445,56.618c2.982,4.182,8.8,5.154,12.982,2.164c4.182-2.982,5.154-8.8,2.164-12.982l-46.545-65.164   c-1.546-2.173-3.945-3.573-6.591-3.845c-2.618-0.282-5.291,0.582-7.255,2.382l-101.427,92.6l-63.664-46.691   c-3.709-2.718-8.845-2.327-12.091,0.927l-39.964,39.964V79.127h316.509v116.364c0,5.145,4.164,9.309,9.309,9.309   c5.145,0,9.309-4.164,9.309-9.309V69.818c0-5.145-4.164-9.309-9.309-9.309H46.545c-5.145,0-9.309,4.164-9.309,9.309v251.345   c0,5.145,4.164,9.309,9.309,9.309h167.564c5.145,0,9.309-4.164,9.309-9.309S219.254,311.855,214.109,311.855z"
   id="path11" />
	<path
   style="fill:#cccccc;fill-opacity:1"
   d="M381.673,228.073c-71.864,0-130.327,58.464-130.327,130.327s58.464,130.327,130.327,130.327   S512,430.264,512,358.4S453.536,228.073,381.673,228.073z M381.673,470.109c-61.6,0-111.709-50.109-111.709-111.709   s50.109-111.709,111.709-111.709S493.382,296.8,493.382,358.4S443.273,470.109,381.673,470.109z"
   id="path13" />
	<polygon
   style="fill:#cccccc;fill-opacity:1"
   points="390.982,283.927 372.364,283.927 372.364,349.091 307.2,349.091 307.2,367.709    372.364,367.709 372.364,432.873 390.982,432.873 390.982,367.709 456.145,367.709 456.145,349.091 390.982,349.091  "
   id="polygon15" />
	<path
   style="fill:#cccccc;fill-opacity:1"
   d="M102.4,134.982c0,20.536,16.7,37.236,37.236,37.236c20.536,0,37.236-16.7,37.236-37.236   s-16.7-37.236-37.236-37.236S102.4,114.445,102.4,134.982z M158.255,134.982c0,10.264-8.354,18.618-18.618,18.618   c-10.264,0-18.618-8.354-18.618-18.618s8.354-18.618,18.618-18.618C149.9,116.364,158.255,124.718,158.255,134.982z"
   id="path17" />
</g>
<g
   id="g19">
</g>
<g
   id="g21">
</g>
<g
   id="g23">
</g>
<g
   id="g25">
</g>
<g
   id="g27">
</g>
<g
   id="g29">
</g>
<g
   id="g31">
</g>
<g
   id="g33">
</g>
<g
   id="g35">
</g>
<g
   id="g37">
</g>
<g
   id="g39">
</g>
<g
   id="g41">
</g>
<g
   id="g43">
</g>
<g
   id="g45">
</g>
<g
   id="g47">
</g>
</svg>