<svg id="Layer_2" data-name="Layer 2" xmlns="http://www.w3.org/2000/svg" viewBox="0 0 520 527.27"><defs><style>.cls-1{fill:#4285f4;}.cls-2{fill:#bdcde5;}.cls-3{fill:#fff;}.cls-4{fill:#a5b2c4;}.cls-5{fill:#00b99d;}.cls-6{fill:#ff733e;}.cls-7{fill:#ff2c55;}.cls-8{fill:#cde2dd;}.cls-9{fill:#d9e7e3;}.cls-10{fill:#92a1b7;}.cls-11{fill:#b5cae8;}.cls-12{fill:#c0d7d1;}.cls-13{fill:#00534a;}.cls-14{fill:#f65d33;}.cls-15{fill:#00bca0;}.cls-16{fill:#93e9bb;}.cls-17{fill:#ff6a31;}.cls-18{fill:#ff1a51;}.cls-19{fill:#fffdfd;}.cls-20{fill:#e0b3aa;}</style></defs><title>easy_config</title><rect class="cls-1" x="267" y="295.27" width="218" height="149.33"/><polygon class="cls-2" points="478 437.61 274 437.61 274 302.27 478 302.27 478 437.61 478 437.61"/><polygon class="cls-3" points="463 422.61 289 422.61 289 317.27 463 317.27 463 422.61 463 422.61"/><path class="cls-4" d="M385.74,561.33a17.32,17.32,0,0,0,17.27,16H637a17.32,17.32,0,0,0,17.27-16Z" transform="translate(-142.67 -116.73)"/><path class="cls-3" d="M650.08,571.33a17.38,17.38,0,0,0,3.38-6H386.54a17.38,17.38,0,0,0,3.38,6Z" transform="translate(-142.67 -116.73)"/><rect class="cls-1" x="359.5" y="449.27" width="44" height="4.67"/><rect class="cls-5" x="298.71" y="359.43" width="45.24" height="41.7"/><rect class="cls-6" x="352.8" y="359.43" width="45.24" height="41.7"/><rect class="cls-7" x="407.86" y="359.43" width="45.24" height="41.7"/><rect class="cls-5" x="294.33" y="321.27" width="41" height="4"/><rect class="cls-5" x="294.33" y="411.27" width="162" height="4"/><path class="cls-8" d="M149.51,533H430.88a9,9,0,0,0,5.31-8.21V411h-292V524.8A9,9,0,0,0,149.51,533Z" transform="translate(-142.67 -116.73)"/><rect class="cls-9" x="108.19" y="410.4" width="69.33" height="32.67"/><rect class="cls-10" x="108.19" y="387.4" width="69.33" height="32.67"/><rect class="cls-1" x="1.53" y="215.07" width="292" height="201" rx="9" ry="9"/><rect class="cls-1" x="1.53" y="203.74" width="292" height="201" rx="9" ry="9"/><path class="cls-11" d="M427.2,516.46h-274a4,4,0,0,1-4-4v-183a4,4,0,0,1,4-4h274a4,4,0,0,1,4,4v183a4,4,0,0,1-4,4Z" transform="translate(-142.67 -116.73)"/><polygon class="cls-3" points="278.53 389.74 16.52 389.74 16.52 218.74 278.53 218.74 278.53 389.74 278.53 389.74"/><polygon class="cls-12" points="108.19 443.07 62.19 459.73 146.19 459.73 146.19 443.07 108.19 443.07"/><polygon class="cls-12" points="176.53 443.07 222.53 459.73 138.53 459.73 138.53 443.07 176.53 443.07"/><rect class="cls-3" x="62.19" y="459.73" width="159.33" height="3.33"/><rect class="cls-12" x="26.19" y="369.73" width="240.67" height="2"/><rect class="cls-13" x="26.19" y="369.73" width="58.67" height="2"/><rect class="cls-5" x="27.57" y="266.4" width="70.88" height="65.33"/><rect class="cls-6" x="112.32" y="266.4" width="70.88" height="65.33"/><rect class="cls-7" x="198.59" y="266.4" width="70.88" height="65.33"/><path class="cls-6" d="M165.33,583.59A3.37,3.37,0,0,1,162,587h0a3.37,3.37,0,0,1-3.33-3.41V505.08a3.37,3.37,0,0,1,3.33-3.41h0a3.37,3.37,0,0,1,3.33,3.41Z" transform="translate(-142.67 -116.73)"/><path class="cls-6" d="M195,512H162v6.67h33a3.33,3.33,0,1,0,0-6.67Z" transform="translate(-142.67 -116.73)"/><path class="cls-6" d="M195,533.33H162V540h33a3.33,3.33,0,0,0,0-6.67Z" transform="translate(-142.67 -116.73)"/><path class="cls-6" d="M195,554H162v6.67h33a3.33,3.33,0,1,0,0-6.67Z" transform="translate(-142.67 -116.73)"/><path class="cls-6" d="M195,572H162v6.67h33a3.33,3.33,0,1,0,0-6.67Z" transform="translate(-142.67 -116.73)"/><path class="cls-6" d="M198.67,583.59a3.37,3.37,0,0,1-3.33,3.41h0a3.37,3.37,0,0,1-3.33-3.41V505.08a3.37,3.37,0,0,1,3.33-3.41h0a3.37,3.37,0,0,1,3.33,3.41Z" transform="translate(-142.67 -116.73)"/><path class="cls-6" d="M296.21,304.79h24.1c.16-2,.21-4.13.21-6.33l12-101.33a21,21,0,0,0-21-21h-5.33a21,21,0,0,0-21,21l11,101.33C296.19,300.66,296.17,302.79,296.21,304.79Z" transform="translate(-142.67 -116.73)"/><path class="cls-14" d="M311.52,176.12H309.2V304.79h11.12c.16-2,.21-4.13.21-6.33l12-101.33A21,21,0,0,0,311.52,176.12Z" transform="translate(-142.67 -116.73)"/><path class="cls-13" d="M325.19,305.45a3.33,3.33,0,0,1-3.33,3.33H295.19a3.33,3.33,0,0,1-3.33-3.33h0a3.33,3.33,0,0,1,3.33-3.33h26.67a3.33,3.33,0,0,1,3.33,3.33Z" transform="translate(-142.67 -116.73)"/><path class="cls-13" d="M318,305.45H299.07s-7.21,6.67-7.21,15.33,16.67,26.12,16.67,26.12,15.33-16.12,16.67-24.79S318,305.45,318,305.45Z" transform="translate(-142.67 -116.73)"/><circle class="cls-3" cx="166.18" cy="203.72" r="2.67"/><polyline class="cls-3" points="166.53 229.46 166.53 204.57 165.69 204.57 165.69 230.01"/><path class="cls-13" d="M303.7,356.46v-10h10v10Zm9-1v0Zm-7-1h6v-6h-6v6Z" transform="translate(-142.67 -116.73)"/><path class="cls-13" d="M263.53,382V372h10v10Zm9-1v0Zm-7-1h6v-6h-6v6Z" transform="translate(-142.67 -116.73)"/><path class="cls-13" d="M344.69,382.46v-10h10v10Zm9-1v0Zm-7-1h6v-6h-6v6Z" transform="translate(-142.67 -116.73)"/><polygon class="cls-13" points="120.53 235.74 120.53 233.74 162.03 233.74 162.03 235.74 120.53 235.74 120.53 235.74"/><path class="cls-13" d="M254.69,350.46a5,5,0,0,1,5-5h0a5,5,0,0,1,5,5h0a5,5,0,0,1-5,5h0a5,5,0,0,1-5-5Zm2,0a3,3,0,0,0,3,3h0a3,3,0,0,0,3-3h0a3,3,0,0,0-3-3h0a3,3,0,0,0-3,3Z" transform="translate(-142.67 -116.73)"/><polygon class="cls-13" points="170.03 235.74 170.03 233.74 211.53 233.74 211.53 235.74 170.03 235.74 170.03 235.74"/><path class="cls-13" d="M352.69,350.46a5,5,0,0,1,5-5h0a5,5,0,0,1,5,5h0a5,5,0,0,1-5,5h0a5,5,0,0,1-5-5Zm5,3a3,3,0,0,0,3-3h0a3,3,0,0,0-3-3h0a3,3,0,0,0-3,3h0a3,3,0,0,0,3,3Z" transform="translate(-142.67 -116.73)"/><path class="cls-13" d="M312.56,352.68l.22-2c14.51,1.62,31.52,8.83,37.75,21.9h0l-1.81.85c-5.63-12-22.08-19.25-36.16-20.77Z" transform="translate(-142.67 -116.73)"/><path class="cls-13" d="M267.27,372.25c5.33-12.59,22.71-20,37.33-21.58h0l.2,2c-14.17,1.41-31,8.95-35.69,20.35h0l-1.85-.77Z" transform="translate(-142.67 -116.73)"/><path class="cls-1" d="M550.63,327.37c0,4.43-3.17,8-7.07,8H445.32c-3.91,0-7.07-3.59-7.07-8V159.12c0-4.43,3.17-8,7.07-8h98.24c3.91,0,7.07,3.59,7.07,8Z" transform="translate(-142.67 -116.73)"/><polygon class="cls-3" points="399.69 210.39 303.84 210.39 303.84 42.65 399.69 42.65 399.69 210.39 399.69 210.39"/><rect class="cls-15" x="312.1" y="50.08" width="42.97" height="10.74"/><path class="cls-16" d="M454.36,244.07V190.36h79.33v53.71Zm78.92-.41v0Zm-78.09-.41h77.68V191.19H455.18v52.06Z" transform="translate(-142.67 -116.73)"/><polygon class="cls-16" points="311.87 126.59 390.37 73.7 390.83 74.39 312.33 127.27 311.87 126.59 311.87 126.59"/><polygon class="cls-16" points="311.87 74.39 312.33 73.7 390.83 126.59 390.37 127.27 311.87 74.39 311.87 74.39"/><rect class="cls-15" x="310.45" y="136.02" width="80.16" height="10.74"/><rect class="cls-17" x="310.45" y="160.81" width="80.16" height="10.74"/><rect class="cls-18" x="310.45" y="187.25" width="80.16" height="10.74"/><rect class="cls-3" x="312.1" y="190.56" width="28.92" height="2.48"/><rect class="cls-3" x="312.1" y="164.94" width="28.92" height="2.48"/><rect class="cls-3" x="312.1" y="140.7" width="28.92" height="2.48"/><path class="cls-1" d="M597.09,359v-2h10v2Zm-20,0v-2h10v2Zm-20,0v-2h10v2Zm-20,0v-2h10v2Zm-20,0v-2h10v2Zm-20,0v-2h10v2Zm-20,0v-2h10v2Zm-20,0v-2h10v2Zm-20,0v-2h10v2Zm-20,0v-2h10v2Zm-20,0v-2h10v2Zm-16.32,0v-5.69h2V357h4.32v2Zm225.32-8.8v-10h2v10Zm-225.32-6.89v-10h2v10Zm225.32-13.11v-10h2v10Zm-225.32-6.89v-10h2v10Zm225.32-13.11v-10h2v10Zm-225.32-6.89v-10h2v10Zm225.32-13.11v-10h2v10Zm-225.32-6.89v-10h2v10Zm225.32-13.11v-10h2v10Zm-225.32-6.89v-10h2v10Zm225.32-13.11v-10h2v10Zm-225.32-6.89v-10h2v10Zm225.32-13.11v-10h2v10Zm-225.32-6.89v-10h2v10Zm225.32-13.11v-10h2v10Zm-225.32-6.89v-10h2v10Zm225.32-13.11v-10h2v10Zm-225.32-6.89v-10h2v10Zm225.32-13.11v-10h2v10Zm-225.32-6.89v-10h2v10Zm225.32-13.11v-10h2v10Zm-225.32-6.89v-10h2v10Zm225.32-13.11v-4.78h-3.21v-2h5.21v6.79Zm-23.21-4.78v-2h10v2Zm-20,0v-2h10v2Zm-20,0v-2h10v2Zm-20,0v-2h10v2Zm-20,0v-2h10v2Zm-20,0v-2h10v2Zm-20,0v-2h10v2Zm-20,0v-2h10v2Zm-20,0v-2h10v2Zm-20,0v-2h10v2Zm-20,0v-2h10v2Z" transform="translate(-142.67 -116.73)"/><rect class="cls-19" x="229.74" y="0.5" width="22.04" height="22.04"/><path class="cls-13" d="M371.91,139.76v-23h23v23Zm22.54-.5v0Zm-21.54-.5h21v-21h-21v21Z" transform="translate(-142.67 -116.73)"/><rect class="cls-19" x="229.74" y="225.82" width="22.04" height="22.04"/><path class="cls-13" d="M371.91,365.08V342h23v23Zm22.54-.5v0Zm-21.54-.5h21V343h-21v21Z" transform="translate(-142.67 -116.73)"/><rect class="cls-19" x="452.58" y="3.81" width="22.04" height="22.04"/><path class="cls-13" d="M594.75,143.07V120h23v23Zm22.54-.5v0Zm-21.54-.5h21V121h-21v21Z" transform="translate(-142.67 -116.73)"/><polygon class="cls-1" points="468.49 232.02 455.7 233.6 457.28 246.39 460.17 242.68 480.35 258.42 485.43 251.91 465.26 236.16 468.49 232.02"/><polygon class="cls-20" points="498 292.61 509 266.27 519.33 293.94 508.67 298.94 498 292.61"/><polygon class="cls-13" points="511.34 272.55 509 266.27 506.38 272.55 511.34 272.55"/><polygon class="cls-6" points="508.67 405.11 508.67 296.27 498 292.61 498 405.11 508.67 405.11"/><polygon class="cls-14" points="519.33 405.11 519.33 293.94 508.67 296.27 508.67 405.11 519.33 405.11"/><rect class="cls-3" x="498" y="405.11" width="21.33" height="10.83"/><rect class="cls-7" x="498" y="415.94" width="21.5" height="14.5"/><rect class="cls-1" y="477.94" width="520" height="49.33"/><rect class="cls-1" y="519.27" width="520" height="8"/><circle class="cls-3" cx="20.67" cy="497.27" r="9.33"/><rect class="cls-3" x="16.83" y="519.27" width="1.5" height="8"/><rect class="cls-3" x="40.03" y="519.27" width="1.5" height="8"/><rect class="cls-3" x="63.24" y="519.27" width="1.5" height="8"/><rect class="cls-3" x="86.44" y="519.27" width="1.5" height="8"/><rect class="cls-3" x="109.64" y="519.27" width="1.5" height="8"/><rect class="cls-3" x="132.84" y="519.27" width="1.5" height="8"/><rect class="cls-3" x="156.05" y="519.27" width="1.5" height="8"/><rect class="cls-3" x="179.25" y="519.27" width="1.5" height="8"/><rect class="cls-3" x="202.45" y="519.27" width="1.5" height="8"/><rect class="cls-3" x="225.65" y="519.27" width="1.5" height="8"/><rect class="cls-3" x="248.86" y="519.27" width="1.5" height="8"/><rect class="cls-3" x="272.06" y="519.27" width="1.5" height="8"/><rect class="cls-3" x="295.26" y="519.27" width="1.5" height="8"/><rect class="cls-3" x="318.46" y="519.27" width="1.5" height="8"/><rect class="cls-3" x="341.67" y="519.27" width="1.5" height="8"/><rect class="cls-3" x="364.87" y="519.27" width="1.5" height="8"/><rect class="cls-3" x="388.07" y="519.27" width="1.5" height="8"/><rect class="cls-3" x="411.27" y="519.27" width="1.5" height="8"/><rect class="cls-3" x="434.47" y="519.27" width="1.5" height="8"/><rect class="cls-3" x="457.68" y="519.27" width="1.5" height="8"/><rect class="cls-3" x="480.88" y="519.27" width="1.5" height="8"/><rect class="cls-3" x="504.08" y="519.27" width="1.5" height="8"/></svg>