<?xml version="1.0" encoding="UTF-8" standalone="no"?>
<!-- Created with Inkscape (http://www.inkscape.org/) -->

<svg
   xmlns:dc="http://purl.org/dc/elements/1.1/"
   xmlns:cc="http://creativecommons.org/ns#"
   xmlns:rdf="http://www.w3.org/1999/02/22-rdf-syntax-ns#"
   xmlns:svg="http://www.w3.org/2000/svg"
   xmlns="http://www.w3.org/2000/svg"
   xmlns:sodipodi="http://sodipodi.sourceforge.net/DTD/sodipodi-0.dtd"
   xmlns:inkscape="http://www.inkscape.org/namespaces/inkscape"
   width="140.10715mm"
   height="140.60715mm"
   viewBox="0 0 140.10717 140.60717"
   version="1.1"
   id="svg8"
   inkscape:version="0.92.1 r15371"
   sodipodi:docname="how-step-2.svg">
  <defs
     id="defs2">
    <filter
       style="color-interpolation-filters:sRGB"
       inkscape:label="Drop Shadow"
       id="filter9137">
      <feFlood
         flood-opacity="0.498039"
         flood-color="rgb(142,147,144)"
         result="flood"
         id="feFlood9127" />
      <feComposite
         in="flood"
         in2="SourceGraphic"
         operator="in"
         result="composite1"
         id="feComposite9129" />
      <feGaussianBlur
         in="composite1"
         stdDeviation="1.6"
         result="blur"
         id="feGaussianBlur9131" />
      <feOffset
         dx="0"
         dy="3.1"
         result="offset"
         id="feOffset9133" />
      <feComposite
         in="SourceGraphic"
         in2="offset"
         operator="over"
         result="composite2"
         id="feComposite9135" />
    </filter>
  </defs>
  <sodipodi:namedview
     id="base"
     pagecolor="#ffffff"
     bordercolor="#666666"
     borderopacity="1.0"
     inkscape:pageopacity="0.0"
     inkscape:pageshadow="2"
     inkscape:zoom="1.979899"
     inkscape:cx="220.25173"
     inkscape:cy="309.98733"
     inkscape:document-units="mm"
     inkscape:current-layer="layer9"
     showgrid="false"
     inkscape:window-width="1920"
     inkscape:window-height="1057"
     inkscape:window-x="1358"
     inkscape:window-y="-8"
     inkscape:window-maximized="1"
     inkscape:measure-start="0,0"
     inkscape:measure-end="0,0"
     fit-margin-top="0"
     fit-margin-left="-0.5"
     fit-margin-right="0"
     fit-margin-bottom="0" />
  <metadata
     id="metadata5">
    <rdf:RDF>
      <cc:Work
         rdf:about="">
        <dc:format>image/svg+xml</dc:format>
        <dc:type
           rdf:resource="http://purl.org/dc/dcmitype/StillImage" />
        <dc:title />
      </cc:Work>
    </rdf:RDF>
  </metadata>
  <g
     inkscape:label="Layer 1"
     inkscape:groupmode="layer"
     id="layer1"
     transform="translate(-32.62798,-34.306554)"
     style="display:inline">
    <circle
       style="opacity:1;fill:#f6f6ff;fill-opacity:1;stroke:none;stroke-width:1.26499999;stroke-linecap:round;stroke-linejoin:round;stroke-miterlimit:4;stroke-dasharray:none;stroke-dashoffset:0;stroke-opacity:0.94117647;paint-order:stroke markers fill;filter:url(#filter9137)"
       id="path8417"
       cx="102.43155"
       cy="104.61012"
       r="58.586308"
       transform="matrix(1.0722313,0,0,1.0722313,-7.3987679,-7.5561292)" />
    <rect
       style="display:inline;opacity:1;fill:#000000;fill-opacity:1;stroke:none;stroke-width:1.82391226;stroke-miterlimit:4;stroke-dasharray:none;stroke-dashoffset:0;stroke-opacity:1"
       id="rect8580-01"
       width="2.3057802"
       height="0.47802758"
       x="77.996254"
       y="-104.04658"
       transform="rotate(90)" />
    <rect
       style="display:inline;opacity:1;fill:#000000;fill-opacity:1;stroke:none;stroke-width:1.82391226;stroke-miterlimit:4;stroke-dasharray:none;stroke-dashoffset:0;stroke-opacity:1"
       id="rect8580-0-4"
       width="2.3057802"
       height="0.47802758"
       x="83.396538"
       y="-104.01891"
       transform="rotate(90)" />
    <rect
       style="display:inline;opacity:1;fill:#000000;fill-opacity:1;stroke:none;stroke-width:1.82391226;stroke-miterlimit:4;stroke-dasharray:none;stroke-dashoffset:0;stroke-opacity:1"
       id="rect8580-3-2"
       width="2.3057802"
       height="0.47802758"
       x="88.684616"
       y="-104.04253"
       transform="rotate(90)" />
  </g>
  <g
     inkscape:groupmode="layer"
     id="layer9"
     inkscape:label="Layer 2">
    <g
       style="fill:#000000"
       id="g9154"
       transform="matrix(2.8225268,0,0,2.8225268,37.307027,-10.286934)">
      <path
         id="path9140"
         d="M 0,0 H 24 V 24 H 0 Z"
         inkscape:connector-curvature="0"
         style="fill:none" />
      <path
         id="path9142"
         d="M 17.906773,9.497684 C 17.352683,6.6864894 14.88372,4.5760563 11.917706,4.5760563 c -2.3548847,0 -4.4001307,1.336336 -5.4186796,3.2919498 -2.4526655,0.2607485 -4.3593889,2.3385879 -4.3593889,4.8564409 0,2.697117 2.191917,4.889034 4.8890343,4.889034 H 17.621579 c 2.248956,0 4.074196,-1.825239 4.074196,-4.074195 0,-2.151175 -1.67042,-3.894931 -3.789002,-4.041602 z m -1.914872,2.411924 -4.074195,4.074195 -4.0741951,-4.074195 H 10.288028 V 8.6502515 h 3.259356 v 3.2593565 z"
         inkscape:connector-curvature="0"
         style="fill:#aa001d;fill-opacity:1;stroke:none;stroke-width:0.17562538;stroke-miterlimit:4;stroke-dasharray:none;stroke-opacity:1" />
    </g>
  </g>
  <g
     inkscape:groupmode="layer"
     id="layer11"
     inkscape:label="Layer 3"
     style="display:inline">
    <rect
       style="display:inline;opacity:1;fill:#ffffff;fill-opacity:1;stroke:none;stroke-width:2.54775167;stroke-miterlimit:4;stroke-dasharray:none;stroke-dashoffset:0;stroke-opacity:1"
       id="rect8425"
       width="70.625565"
       height="43.584248"
       x="34.711834"
       y="62.021393"
       rx="2.8616974" />
    <rect
       style="display:inline;opacity:1;fill:none;fill-opacity:1;stroke:#20292d;stroke-width:2.54775167;stroke-miterlimit:4;stroke-dasharray:none;stroke-dashoffset:0;stroke-opacity:1"
       id="rect8422"
       width="70.625565"
       height="43.584251"
       x="34.711834"
       y="62.021393"
       rx="2.1756732" />
    <rect
       style="display:inline;opacity:1;fill:#20292d;fill-opacity:1;stroke:none;stroke-width:2.12615657;stroke-miterlimit:4;stroke-dasharray:none;stroke-dashoffset:0;stroke-opacity:1"
       id="rect8428"
       width="8.7732124"
       height="7.4234867"
       x="66.530022"
       y="105.22384" />
    <rect
       style="display:inline;opacity:1;fill:#20292d;fill-opacity:1;stroke:none;stroke-width:2.54775167;stroke-miterlimit:4;stroke-dasharray:none;stroke-dashoffset:0;stroke-opacity:1"
       id="rect8430"
       width="19.72426"
       height="1.1134663"
       x="60.957813"
       y="112.4455" />
    <g
       transform="matrix(0.59740472,0,0,0.59740472,28.520324,-83.364041)"
       id="layer1-6"
       inkscape:label="Layer 1">
      <g
         transform="matrix(0.3315903,0,0,0.3315903,6.4875763,245.91217)"
         inkscape:label="Layer 1"
         id="layer1-9">
        <g
           transform="matrix(0.36088791,0,0,0.34503181,10.860508,-148.88706)"
           id="g3229">
          <g
             id="g3133"
             transform="matrix(3.7212317,0,0,3.7212317,109.40245,588.22933)">
            <g
               id="New_x5F_York_x5F_Times_x5F_Books">
              <path
                 id="path3120"
                 d="M 31.094,37.11 C 29.843,36.693 28.841,35.948 27.801,35.315 26.747,34.672 25.68,34.092 24.609,33.469 19.364,30.416 13.975,27.345 8.648,24.192 7.582,23.561 6.27,22.985 5.606,22.196 4.818,21.262 4.431,19.171 5.207,17.807 5.762,16.832 6.968,16.254 8.05,15.662 8.657,15.331 9.258,14.955 9.846,14.615 13.53,12.489 17.072,10.475 20.769,8.38 25.142,5.902 29.098,3.521 33.488,1.048 c 0.578,-0.326 1.5,-1.057 2.095,-1.047 0.618,0.01 1.166,0.463 1.746,0.798 0.579,0.335 1.138,0.623 1.596,0.898 1.001,0.602 2.052,1.285 3.093,1.895 1.057,0.62 2.043,1.3 3.092,1.896 4.696,2.664 9.465,5.391 14.266,8.229 0.331,0.196 1.413,0.731 1.446,1.048 0.05,0.468 -1.09,0.97 -1.646,1.297 -1.877,1.101 -3.685,2.096 -5.537,3.142 -2.503,1.414 -4.903,3.01 -7.232,4.34 -2.32,1.324 -5.069,2.808 -7.382,4.239 -1.145,0.708 -2.367,1.449 -3.641,2.145 -2.105,1.15 -5.338,2.204 -4.689,5.636 0.103,0.549 0.464,1.019 0.399,1.546 z"
                 style="fill:#ff9f1c;fill-opacity:1;fill-rule:evenodd"
                 inkscape:connector-curvature="0" />
              <path
                 id="path3122"
                 d="m 37.079,37.858 c 0.066,-0.57 0.857,-0.81 1.347,-1.097 1.538,-0.903 3.105,-1.907 4.738,-2.843 5.258,-3.014 10.618,-6.149 15.962,-9.277 1.256,-0.735 2.381,-1.631 3.791,-1.945 1.805,-0.403 3.865,1.032 4.19,2.444 0.285,1.236 0.1,2.835 0.1,4.34 0.001,10.194 0.082,20.744 -0.049,30.476 -0.222,0.641 -0.926,0.857 -1.447,1.147 -1.591,0.886 -3.179,1.9 -4.788,2.843 -5.345,3.13 -10.798,6.204 -16.211,9.327 -0.523,0.302 -1.076,0.612 -1.596,0.948 -0.465,0.3 -0.956,0.835 -1.596,0.748 -0.361,-0.581 -0.139,-1.285 -0.149,-1.945 -0.146,-9.08 -0.051,-18.505 -0.05,-27.833 0,-1.417 0.191,-2.894 0,-4.09 -0.304,-1.883 -1.917,-3.32 -4.242,-3.243 z"
                 style="fill:#aa001d;fill-opacity:1;fill-rule:evenodd"
                 inkscape:connector-curvature="0" />
              <path
                 id="path3124"
                 d="m 0.268,27.732 c 7.328,3.988 14.293,8.338 21.498,12.42 1.697,0.962 3.596,2.056 5.337,3.143 1.271,0.793 2.88,1.938 4.838,0.898 0.385,-0.24 0.736,-0.504 1.047,-0.848 0.282,-0.312 0.475,-0.828 0.898,-0.848 0.19,8.671 0.1,18.262 0.1,27.234 0,1.346 0.179,3.129 -0.1,4.04 -0.476,1.556 -2.579,2.997 -4.789,2.195 C 27.809,75.498 26.696,74.56 25.456,73.871 19.347,70.476 13.553,66.824 7.25,63.396 5.414,62.397 3.692,61.382 1.763,60.254 1.138,59.888 0.215,59.515 0.067,59.107 c -0.128,-0.354 -0.034,-1.24 -0.05,-1.896 -0.045,-1.879 0.05,-4.008 0.05,-5.936 0,-5.328 -0.045,-10.252 0,-15.812 0.014,-1.773 -0.023,-3.876 -0.05,-5.736 -0.009,-0.633 -0.012,-1.55 0.1,-1.845 0.029,-0.071 0.079,-0.122 0.151,-0.15 z"
                 style="fill:#4285f4;fill-opacity:1;fill-rule:evenodd"
                 inkscape:connector-curvature="0" />
            </g>
            <g
               id="Layer_1-7" />
          </g>
        </g>
      </g>
    </g>
    <rect
       style="display:inline;opacity:1;fill:#000000;fill-opacity:1;stroke:none;stroke-width:1.82391226;stroke-miterlimit:4;stroke-dasharray:none;stroke-dashoffset:0;stroke-opacity:1"
       id="rect8580"
       width="2.3057802"
       height="0.47802758"
       x="65.21286"
       y="84.064705" />
    <rect
       style="display:inline;opacity:1;fill:#000000;fill-opacity:1;stroke:none;stroke-width:1.82391226;stroke-miterlimit:4;stroke-dasharray:none;stroke-dashoffset:0;stroke-opacity:1"
       id="rect8580-0"
       width="2.3057802"
       height="0.47802758"
       x="70.613129"
       y="84.092377" />
    <rect
       style="display:inline;opacity:1;fill:#000000;fill-opacity:1;stroke:none;stroke-width:1.82391226;stroke-miterlimit:4;stroke-dasharray:none;stroke-dashoffset:0;stroke-opacity:1"
       id="rect8580-3"
       width="2.3057802"
       height="0.47802758"
       x="75.901215"
       y="84.068756" />
    <g
       style="fill:#000000"
       id="g13813"
       transform="matrix(0.82209821,0,0,0.82209821,80.927389,73.545393)">
      <path
         id="path13799"
         d="M 0,0 H 24 V 24 H 0 Z"
         inkscape:connector-curvature="0"
         style="fill:none" />
      <path
         id="path13801"
         d="m 19.771711,13.025057 c 0.04184,-0.334712 0.07322,-0.669425 0.07322,-1.025057 0,-0.355632 -0.03138,-0.690345 -0.07322,-1.025057 L 21.978722,9.2490804 C 22.177458,9.0921839 22.229757,8.8097701 22.104239,8.5796552 L 20.012285,4.9605747 C 19.886768,4.7304598 19.604354,4.6467816 19.374239,4.7304598 l -2.604482,1.045977 C 16.225849,5.358046 15.640102,5.0128735 15.002056,4.7513793 L 14.604584,1.9795402 C 14.573205,1.7285057 14.35355,1.5402299 14.092056,1.5402299 H 9.9081475 c -0.2614942,0 -0.4811494,0.1882758 -0.5125287,0.4393103 L 8.9981475,4.7513793 C 8.3601016,5.0128735 7.7743544,5.3685057 7.2304464,5.7764368 L 4.6259636,4.7304598 c -0.2405747,-0.094138 -0.5125287,0 -0.638046,0.2301149 L 1.8959636,8.5796552 C 1.7599866,8.8097701 1.8227452,9.0921839 2.0214809,9.2490804 L 4.2284924,10.974943 C 4.1866533,11.309655 4.155274,11.654828 4.155274,12 c 0,0.345172 0.031379,0.690345 0.073218,1.025057 L 2.0214809,14.75092 c -0.1987357,0.156896 -0.2510345,0.43931 -0.1255173,0.669425 l 2.091954,3.61908 c 0.1255173,0.230115 0.4079311,0.313793 0.638046,0.230115 l 2.6044828,-1.045977 c 0.543908,0.418391 1.1296552,0.763563 1.7677011,1.025058 l 0.3974713,2.771839 c 0.031379,0.251034 0.2510345,0.43931 0.5125287,0.43931 h 4.1839085 c 0.261494,0 0.481149,-0.188276 0.512528,-0.43931 l 0.397472,-2.771839 c 0.638046,-0.261495 1.223793,-0.617127 1.767701,-1.025058 l 2.604482,1.045977 c 0.240575,0.09414 0.512529,0 0.638046,-0.230115 l 2.091954,-3.61908 c 0.125518,-0.230115 0.07322,-0.512529 -0.125517,-0.669425 z m -7.771609,2.635863 c -2.0187361,0 -3.66092,-1.642184 -3.66092,-3.66092 0,-2.0187356 1.6421839,-3.6609196 3.66092,-3.6609196 2.018735,0 3.660919,1.642184 3.660919,3.6609196 0,2.018736 -1.642184,3.66092 -3.660919,3.66092 z"
         inkscape:connector-curvature="0"
         style="fill:#4285f4;fill-opacity:1;stroke-width:1.045977" />
    </g>
  </g>
  <g
     inkscape:groupmode="layer"
     id="layer12"
     inkscape:label="Layer 4" />
</svg>
