<?xml version="1.0" encoding="UTF-8" standalone="no"?>
<!-- Created with Inkscape (http://www.inkscape.org/) -->

<svg
   xmlns:dc="http://purl.org/dc/elements/1.1/"
   xmlns:cc="http://creativecommons.org/ns#"
   xmlns:rdf="http://www.w3.org/1999/02/22-rdf-syntax-ns#"
   xmlns:svg="http://www.w3.org/2000/svg"
   xmlns="http://www.w3.org/2000/svg"
   xmlns:sodipodi="http://sodipodi.sourceforge.net/DTD/sodipodi-0.dtd"
   xmlns:inkscape="http://www.inkscape.org/namespaces/inkscape"
   width="140.10715mm"
   height="140.60715mm"
   viewBox="0 0 140.10717 140.60717"
   version="1.1"
   id="svg8"
   inkscape:version="0.92.1 r15371"
   sodipodi:docname="how-step-3.svg">
  <defs
     id="defs2">
    <filter
       style="color-interpolation-filters:sRGB"
       inkscape:label="Drop Shadow"
       id="filter9137">
      <feFlood
         flood-opacity="0.498039"
         flood-color="rgb(142,147,144)"
         result="flood"
         id="feFlood9127" />
      <feComposite
         in="flood"
         in2="SourceGraphic"
         operator="in"
         result="composite1"
         id="feComposite9129" />
      <feGaussianBlur
         in="composite1"
         stdDeviation="1.6"
         result="blur"
         id="feGaussianBlur9131" />
      <feOffset
         dx="0"
         dy="3.1"
         result="offset"
         id="feOffset9133" />
      <feComposite
         in="SourceGraphic"
         in2="offset"
         operator="over"
         result="composite2"
         id="feComposite9135" />
    </filter>
  </defs>
  <sodipodi:namedview
     id="base"
     pagecolor="#ffffff"
     bordercolor="#666666"
     borderopacity="1.0"
     inkscape:pageopacity="0.0"
     inkscape:pageshadow="2"
     inkscape:zoom="1.4"
     inkscape:cx="256.14954"
     inkscape:cy="304.88948"
     inkscape:document-units="mm"
     inkscape:current-layer="layer4"
     showgrid="false"
     inkscape:window-width="1920"
     inkscape:window-height="1057"
     inkscape:window-x="1358"
     inkscape:window-y="-8"
     inkscape:window-maximized="1"
     inkscape:measure-start="0,0"
     inkscape:measure-end="0,0"
     fit-margin-top="0"
     fit-margin-left="-0.5"
     fit-margin-right="0"
     fit-margin-bottom="0" />
  <metadata
     id="metadata5">
    <rdf:RDF>
      <cc:Work
         rdf:about="">
        <dc:format>image/svg+xml</dc:format>
        <dc:type
           rdf:resource="http://purl.org/dc/dcmitype/StillImage" />
        <dc:title></dc:title>
      </cc:Work>
    </rdf:RDF>
  </metadata>
  <g
     inkscape:label="Layer 1"
     inkscape:groupmode="layer"
     id="layer1"
     transform="translate(-32.62798,-34.306554)"
     style="display:inline">
    <circle
       style="opacity:1;fill:#f6f6ff;fill-opacity:1;stroke:none;stroke-width:1.26499999;stroke-linecap:round;stroke-linejoin:round;stroke-miterlimit:4;stroke-dasharray:none;stroke-dashoffset:0;stroke-opacity:0.94117647;paint-order:stroke markers fill;filter:url(#filter9137)"
       id="path8417"
       cx="102.43155"
       cy="104.61012"
       r="58.586308"
       transform="matrix(1.0722313,0,0,1.0722313,-7.3987679,-7.5561292)" />
    <g
       style="fill:#000000"
       id="g26730"
       transform="matrix(2.2492468,0,0,2.2492468,69.603654,106.23163)">
      <path
         id="path26716"
         d="M 0,0 H 24 V 24 H 0 Z"
         inkscape:connector-curvature="0"
         style="fill:none" />
      <path
         id="path26718"
         d="m 7.0564601,-1.6498096 h -8.00000039 c -1.10000001,0 -1.99000001,0.89999996 -1.99000001,1.99999998 l -0.01,16.00000062 c 0,1.1 0.89,2 1.99000001,2 H 11.05646 c 1.1,0 2,-0.9 2,-2 V 4.3501904 Z m 2,16.0000006 H 1.0564597 v -2 h 8.0000004 z m 0,-4 H 1.0564597 V 8.3501904 H 9.0564601 Z M 6.0564597,5.3501904 V -0.14980964 L 11.55646,5.3501904 Z"
         inkscape:connector-curvature="0"
         style="fill:#4285f4;fill-opacity:1;stroke:none" />
      <path
         id="path26718-6"
         d="M 12.727053,1.6172496 H 4.7270525 c -1.1,0 -1.99,0.9 -1.99,2 l -0.01,16.0000014 c 0,1.1 0.89,2 1.99,2 H 16.727053 c 1.1,0 2,-0.9 2,-2 V 7.6172496 Z m 2,16.0000004 H 6.7270521 v -1.999999 h 8.0000009 z m 0,-3.999999 H 6.7270521 V 11.61725 H 14.727053 Z M 11.727052,8.6172496 v -5.5 l 5.500001,5.5 z"
         inkscape:connector-curvature="0"
         style="display:inline;fill:#aa001d;fill-opacity:1;stroke:none;stroke-width:1" />
      <rect
         style="opacity:1;fill:#ffffff;fill-opacity:1;stroke:none;stroke-width:0.34011385;stroke-miterlimit:4;stroke-dasharray:none;stroke-dashoffset:0;stroke-opacity:1"
         id="rect26781"
         width="8.000001"
         height="2.000001"
         x="6.7270513"
         y="11.617251" />
      <rect
         style="display:inline;opacity:1;fill:#ffffff;fill-opacity:1;stroke:none;stroke-width:0.34011385;stroke-miterlimit:4;stroke-dasharray:none;stroke-dashoffset:0;stroke-opacity:1"
         id="rect26781-7"
         width="8.000001"
         height="2.000001"
         x="6.7270522"
         y="15.617249" />
      <path
         style="fill:#ffffff;fill-opacity:1;stroke:none;stroke-width:0.11763197px;stroke-linecap:butt;stroke-linejoin:miter;stroke-opacity:1"
         d="M 11.727052,3.1172498 V 8.617249 h 5.500001 z"
         id="path26798"
         inkscape:connector-curvature="0" />
    </g>
  </g>
  <g
     inkscape:groupmode="layer"
     id="layer3"
     inkscape:label="Layer 3"
     style="display:inline"
     transform="translate(-32.62798,-34.306554)">
    <rect
       style="opacity:1;fill:#ffffff;fill-opacity:1;stroke:none;stroke-width:2.54775119;stroke-miterlimit:4;stroke-dasharray:none;stroke-dashoffset:0;stroke-opacity:1"
       id="rect8425"
       width="70.625565"
       height="43.584248"
       x="67.290802"
       y="44.879986"
       rx="2.8616974" />
  </g>
  <g
     inkscape:groupmode="layer"
     id="layer2"
     inkscape:label="Layer 2"
     style="display:inline"
     transform="translate(-32.62798,-34.306554)">
    <rect
       style="opacity:1;fill:none;fill-opacity:1;stroke:#20292d;stroke-width:2.54775119;stroke-miterlimit:4;stroke-dasharray:none;stroke-dashoffset:0;stroke-opacity:1"
       id="rect8422"
       width="70.625565"
       height="43.584251"
       x="67.290802"
       y="44.879986"
       rx="2.1756732" />
  </g>
  <g
     inkscape:groupmode="layer"
     id="layer4"
     inkscape:label="Layer 4"
     style="display:inline"
     transform="translate(-32.62798,-34.306554)">
    <rect
       style="opacity:1;fill:#20292d;fill-opacity:1;stroke:none;stroke-width:2.12615657;stroke-miterlimit:4;stroke-dasharray:none;stroke-dashoffset:0;stroke-opacity:1"
       id="rect8428"
       width="8.7732124"
       height="7.4234867"
       x="99.108986"
       y="88.08242" />
    <rect
       style="opacity:1;fill:#20292d;fill-opacity:1;stroke:none;stroke-width:2.54775119;stroke-miterlimit:4;stroke-dasharray:none;stroke-dashoffset:0;stroke-opacity:1"
       id="rect8430"
       width="19.72426"
       height="1.1134663"
       x="93.536781"
       y="95.304085" />
  </g>
  <g
     inkscape:groupmode="layer"
     id="layer5"
     inkscape:label="Layer 5"
     transform="translate(-32.62798,-34.306554)"
     style="display:inline">
    <g
       transform="matrix(0.79514313,0,0,0.79514313,72.769628,-156.08677)"
       id="layer1-6"
       inkscape:label="Layer 1">
      <g
         transform="matrix(0.3315903,0,0,0.3315903,6.4875763,245.91217)"
         inkscape:label="Layer 1"
         id="layer1-9">
        <g
           transform="matrix(0.36088791,0,0,0.34503181,10.860508,-148.88706)"
           id="g3229">
          <g
             id="g3133"
             transform="matrix(3.7212317,0,0,3.7212317,109.40245,588.22933)">
            <g
               id="New_x5F_York_x5F_Times_x5F_Books">
              <path
                 id="path3120"
                 d="M 31.094,37.11 C 29.843,36.693 28.841,35.948 27.801,35.315 26.747,34.672 25.68,34.092 24.609,33.469 19.364,30.416 13.975,27.345 8.648,24.192 7.582,23.561 6.27,22.985 5.606,22.196 4.818,21.262 4.431,19.171 5.207,17.807 5.762,16.832 6.968,16.254 8.05,15.662 8.657,15.331 9.258,14.955 9.846,14.615 13.53,12.489 17.072,10.475 20.769,8.38 25.142,5.902 29.098,3.521 33.488,1.048 c 0.578,-0.326 1.5,-1.057 2.095,-1.047 0.618,0.01 1.166,0.463 1.746,0.798 0.579,0.335 1.138,0.623 1.596,0.898 1.001,0.602 2.052,1.285 3.093,1.895 1.057,0.62 2.043,1.3 3.092,1.896 4.696,2.664 9.465,5.391 14.266,8.229 0.331,0.196 1.413,0.731 1.446,1.048 0.05,0.468 -1.09,0.97 -1.646,1.297 -1.877,1.101 -3.685,2.096 -5.537,3.142 -2.503,1.414 -4.903,3.01 -7.232,4.34 -2.32,1.324 -5.069,2.808 -7.382,4.239 -1.145,0.708 -2.367,1.449 -3.641,2.145 -2.105,1.15 -5.338,2.204 -4.689,5.636 0.103,0.549 0.464,1.019 0.399,1.546 z"
                 style="fill:#ff9f1c;fill-opacity:1;fill-rule:evenodd"
                 inkscape:connector-curvature="0" />
              <path
                 id="path3122"
                 d="m 37.079,37.858 c 0.066,-0.57 0.857,-0.81 1.347,-1.097 1.538,-0.903 3.105,-1.907 4.738,-2.843 5.258,-3.014 10.618,-6.149 15.962,-9.277 1.256,-0.735 2.381,-1.631 3.791,-1.945 1.805,-0.403 3.865,1.032 4.19,2.444 0.285,1.236 0.1,2.835 0.1,4.34 0.001,10.194 0.082,20.744 -0.049,30.476 -0.222,0.641 -0.926,0.857 -1.447,1.147 -1.591,0.886 -3.179,1.9 -4.788,2.843 -5.345,3.13 -10.798,6.204 -16.211,9.327 -0.523,0.302 -1.076,0.612 -1.596,0.948 -0.465,0.3 -0.956,0.835 -1.596,0.748 -0.361,-0.581 -0.139,-1.285 -0.149,-1.945 -0.146,-9.08 -0.051,-18.505 -0.05,-27.833 0,-1.417 0.191,-2.894 0,-4.09 -0.304,-1.883 -1.917,-3.32 -4.242,-3.243 z"
                 style="fill:#aa001d;fill-opacity:1;fill-rule:evenodd"
                 inkscape:connector-curvature="0" />
              <path
                 id="path3124"
                 d="m 0.268,27.732 c 7.328,3.988 14.293,8.338 21.498,12.42 1.697,0.962 3.596,2.056 5.337,3.143 1.271,0.793 2.88,1.938 4.838,0.898 0.385,-0.24 0.736,-0.504 1.047,-0.848 0.282,-0.312 0.475,-0.828 0.898,-0.848 0.19,8.671 0.1,18.262 0.1,27.234 0,1.346 0.179,3.129 -0.1,4.04 -0.476,1.556 -2.579,2.997 -4.789,2.195 C 27.809,75.498 26.696,74.56 25.456,73.871 19.347,70.476 13.553,66.824 7.25,63.396 5.414,62.397 3.692,61.382 1.763,60.254 1.138,59.888 0.215,59.515 0.067,59.107 c -0.128,-0.354 -0.034,-1.24 -0.05,-1.896 -0.045,-1.879 0.05,-4.008 0.05,-5.936 0,-5.328 -0.045,-10.252 0,-15.812 0.014,-1.773 -0.023,-3.876 -0.05,-5.736 -0.009,-0.633 -0.012,-1.55 0.1,-1.845 0.029,-0.071 0.079,-0.122 0.151,-0.15 z"
                 style="fill:#4285f4;fill-opacity:1;fill-rule:evenodd"
                 inkscape:connector-curvature="0" />
            </g>
            <g
               id="Layer_1-7" />
          </g>
        </g>
      </g>
    </g>
  </g>
  <g
     inkscape:groupmode="layer"
     id="layer6"
     inkscape:label="Layer 6"
     style="display:none">
    <g
       style="fill:#000000"
       id="g8483"
       transform="matrix(1.3991357,0,0,1.3991357,21.716885,64.516421)">
      <path
         id="path8466"
         d="M 0,0 H 24 V 24 H 0 Z"
         inkscape:connector-curvature="0"
         style="fill:none" />
      <path
         id="path8468"
         d="M 16.56,8.94 7.62,0 6.21,1.41 8.59,3.79 3.44,8.94 c -0.59,0.59 -0.59,1.54 0,2.12 l 5.5,5.5 C 9.23,16.85 9.62,17 10,17 c 0.38,0 0.77,-0.15 1.06,-0.44 l 5.5,-5.5 c 0.59,-0.58 0.59,-1.53 0,-2.12 z M 5.21,10 10,5.21 14.79,10 Z M 19,11.5 c 0,0 -2,2.17 -2,3.5 0,1.1 0.9,2 2,2 1.1,0 2,-0.9 2,-2 0,-1.33 -2,-3.5 -2,-3.5 z"
         inkscape:connector-curvature="0" />
      <path
         id="path8470"
         d="m 0,20 h 24 v 4 H 0 Z"
         inkscape:connector-curvature="0"
         style="fill-opacity:0.36000001" />
    </g>
  </g>
  <g
     inkscape:groupmode="layer"
     id="layer7"
     inkscape:label="Layer 7"
     style="display:inline" />
  <g
     inkscape:groupmode="layer"
     id="layer10"
     inkscape:label="Layer 8">
    <g
       style="display:inline;fill:#000000"
       id="g8577"
       transform="matrix(1.5857496,0,0,1.5857496,75.414304,89.080264)">
      <path
         id="path8563"
         d="M 18,4 V 3 C 18,2.45 17.55,2 17,2 H 5 C 4.45,2 4,2.45 4,3 v 4 c 0,0.55 0.45,1 1,1 h 12 c 0.55,0 1,-0.45 1,-1 V 6 h 1 v 4 H 9 v 11 c 0,0.55 0.45,1 1,1 h 2 c 0.55,0 1,-0.45 1,-1 v -9 h 8 V 4 Z"
         inkscape:connector-curvature="0"
         style="fill:#20292d;fill-opacity:1" />
      <path
         id="path8565"
         d="M 0,0 H 24 V 24 H 0 Z"
         inkscape:connector-curvature="0"
         style="fill:none" />
    </g>
  </g>
  <g
     inkscape:groupmode="layer"
     id="layer12"
     inkscape:label="Layer 9">
    <rect
       style="opacity:1;fill:#4285f4;fill-opacity:1;stroke:none;stroke-width:0.47416151;stroke-miterlimit:4;stroke-dasharray:none;stroke-dashoffset:0;stroke-opacity:1"
       id="rect26762"
       width="22.668192"
       height="9.7286253"
       x="81.539696"
       y="92.09861"
       rx="1.4687155" />
  </g>
  <g
     inkscape:groupmode="layer"
     id="layer13"
     inkscape:label="Layer 10">
    <g
       style="fill:#000000"
       id="g26779"
       transform="matrix(0.396875,0,0,0.396875,46.958803,77.807412)">
      <path
         id="path26765"
         d="M 0,0 H 24 V 24 H 0 Z"
         inkscape:connector-curvature="0"
         style="fill:none" />
      <path
         id="path26767"
         d="m 12.54,22.809524 h 7.491428 L 16.285714,12.820952 Z M 30.761905,2 H 1.8095238 C -0.1809524,2 -1.8095238,3.6285714 -1.8095238,5.6190476 V 34.571429 c 0,1.990476 1.6285714,3.619047 3.6190476,3.619047 H 30.761905 c 1.990476,0 3.619047,-1.628571 3.619047,-3.619047 V 5.6190476 C 34.380952,3.6285714 32.752381,2 30.761905,2 Z M 23.433333,31.857143 21.370476,26.428571 H 11.164762 L 9.1380952,31.857143 H 5.3561905 L 14.602857,8.3333333 h 3.365714 l 9.246667,23.5238097 z"
         inkscape:connector-curvature="0"
         style="fill:#ffffff;fill-opacity:1;stroke-width:1.80952382" />
    </g>
  </g>
  <g
     inkscape:groupmode="layer"
     id="layer14"
     inkscape:label="Layer 11">
    <g
       style="fill:#000000"
       id="g26815"
       transform="matrix(0.74335317,0,0,0.74335317,102.20477,71.02173)">
      <path
         id="path26801"
         d="M 23,7 V 1 H 17 V 3 H 7 V 1 H 1 V 7 H 3 V 17 H 1 v 6 h 6 v -2 h 10 v 2 h 6 V 17 H 21 V 7 Z M 3,3 H 5 V 5 H 3 Z M 5,21 H 3 V 19 H 5 Z M 17,19 H 7 V 17 H 5 V 7 H 7 V 5 h 10 v 2 h 2 v 10 h -2 z m 4,2 h -2 v -2 h 2 z M 19,5 V 3 h 2 v 2 z m -5.27,9 H 10.24 L 9.51,16 H 7.89 l 3.4,-9 h 1.4 l 3.41,9 H 14.47 Z M 10.69,12.74 H 13.3 L 12,8.91 Z"
         inkscape:connector-curvature="0"
         style="fill:#aa001d;fill-opacity:1" />
      <path
         id="path26803"
         d="M 0,0 H 24 V 24 H 0 Z"
         inkscape:connector-curvature="0"
         style="fill:none" />
    </g>
  </g>
  <g
     inkscape:groupmode="layer"
     id="layer15"
     inkscape:label="Layer 12">
    <g
       style="fill:#000000"
       id="g26832"
       transform="matrix(0.91068639,0,0,0.91068639,78.133983,68.883014)">
      <path
         id="path26818"
         d="M 21,19 V 5 C 21,3.9 20.1,3 19,3 H 5 C 3.9,3 3,3.9 3,5 v 14 c 0,1.1 0.9,2 2,2 h 14 c 1.1,0 2,-0.9 2,-2 z M 8.5,13.5 11,16.51 14.5,12 19,18 H 5 Z"
         inkscape:connector-curvature="0"
         style="fill:#20292d;fill-opacity:1" />
      <path
         id="path26820"
         d="M 0,0 H 24 V 24 H 0 Z"
         inkscape:connector-curvature="0"
         style="fill:none" />
    </g>
  </g>
</svg>
