<?xml version="1.0" encoding="UTF-8" standalone="no"?>
<!-- Created with Inkscape (http://www.inkscape.org/) -->

<svg
   xmlns:dc="http://purl.org/dc/elements/1.1/"
   xmlns:cc="http://creativecommons.org/ns#"
   xmlns:rdf="http://www.w3.org/1999/02/22-rdf-syntax-ns#"
   xmlns:svg="http://www.w3.org/2000/svg"
   xmlns="http://www.w3.org/2000/svg"
   xmlns:sodipodi="http://sodipodi.sourceforge.net/DTD/sodipodi-0.dtd"
   xmlns:inkscape="http://www.inkscape.org/namespaces/inkscape"
   width="140.10715mm"
   height="140.60715mm"
   viewBox="0 0 140.10717 140.60717"
   version="1.1"
   id="svg8"
   inkscape:version="0.92.1 r15371"
   sodipodi:docname="how-step-1.svg">
  <defs
     id="defs2">
    <filter
       style="color-interpolation-filters:sRGB"
       inkscape:label="Drop Shadow"
       id="filter9137">
      <feFlood
         flood-opacity="0.498039"
         flood-color="rgb(142,147,144)"
         result="flood"
         id="feFlood9127" />
      <feComposite
         in="flood"
         in2="SourceGraphic"
         operator="in"
         result="composite1"
         id="feComposite9129" />
      <feGaussianBlur
         in="composite1"
         stdDeviation="1.6"
         result="blur"
         id="feGaussianBlur9131" />
      <feOffset
         dx="0"
         dy="3.1"
         result="offset"
         id="feOffset9133" />
      <feComposite
         in="SourceGraphic"
         in2="offset"
         operator="over"
         result="composite2"
         id="feComposite9135" />
    </filter>
  </defs>
  <sodipodi:namedview
     id="base"
     pagecolor="#ffffff"
     bordercolor="#666666"
     borderopacity="1.0"
     inkscape:pageopacity="0.0"
     inkscape:pageshadow="2"
     inkscape:zoom="5.6"
     inkscape:cx="240.32429"
     inkscape:cy="416.92815"
     inkscape:document-units="mm"
     inkscape:current-layer="layer3"
     showgrid="false"
     inkscape:window-width="1920"
     inkscape:window-height="1057"
     inkscape:window-x="1358"
     inkscape:window-y="-8"
     inkscape:window-maximized="1"
     inkscape:measure-start="0,0"
     inkscape:measure-end="0,0"
     fit-margin-top="0"
     fit-margin-left="-0.5"
     fit-margin-right="0"
     fit-margin-bottom="0" />
  <metadata
     id="metadata5">
    <rdf:RDF>
      <cc:Work
         rdf:about="">
        <dc:format>image/svg+xml</dc:format>
        <dc:type
           rdf:resource="http://purl.org/dc/dcmitype/StillImage" />
        <dc:title />
      </cc:Work>
    </rdf:RDF>
  </metadata>
  <g
     inkscape:label="Layer 1"
     inkscape:groupmode="layer"
     id="layer1"
     transform="translate(-32.62798,-34.306554)">
    <circle
       style="opacity:1;fill:#f6f6ff;fill-opacity:1;stroke:none;stroke-width:1.26499999;stroke-linecap:round;stroke-linejoin:round;stroke-miterlimit:4;stroke-dasharray:none;stroke-dashoffset:0;stroke-opacity:0.94117647;paint-order:stroke markers fill;filter:url(#filter9137)"
       id="path8417"
       cx="102.43155"
       cy="104.61012"
       r="58.586308"
       transform="matrix(1.0722313,0,0,1.0722313,-7.3987679,-7.5561292)" />
  </g>
  <g
     inkscape:groupmode="layer"
     id="layer3"
     inkscape:label="Layer 3"
     style="display:inline"
     transform="translate(-32.62798,-34.306554)">
    <rect
       style="opacity:1;fill:#ffffff;fill-opacity:1;stroke:none;stroke-width:2.54775119;stroke-miterlimit:4;stroke-dasharray:none;stroke-dashoffset:0;stroke-opacity:1"
       id="rect8425"
       width="70.625565"
       height="43.584248"
       x="67.290802"
       y="44.879986"
       rx="2.8616974" />
    <rect
       style="display:inline;opacity:1;fill:#000000;fill-opacity:1;stroke:none;stroke-width:1.82391226;stroke-miterlimit:4;stroke-dasharray:none;stroke-dashoffset:0;stroke-opacity:1"
       id="rect8580"
       width="2.3057802"
       height="0.47802758"
       x="96.29274"
       y="66.795891" />
    <rect
       style="display:inline;opacity:1;fill:#000000;fill-opacity:1;stroke:none;stroke-width:1.82391226;stroke-miterlimit:4;stroke-dasharray:none;stroke-dashoffset:0;stroke-opacity:1"
       id="rect8580-0"
       width="2.3057802"
       height="0.47802758"
       x="101.69301"
       y="66.823563" />
    <rect
       style="display:inline;opacity:1;fill:#000000;fill-opacity:1;stroke:none;stroke-width:1.82391226;stroke-miterlimit:4;stroke-dasharray:none;stroke-dashoffset:0;stroke-opacity:1"
       id="rect8580-3"
       width="2.3057802"
       height="0.47802758"
       x="106.98109"
       y="66.799942" />
  </g>
  <g
     inkscape:groupmode="layer"
     id="layer2"
     inkscape:label="Layer 2"
     style="display:inline"
     transform="translate(-32.62798,-34.306554)">
    <rect
       style="opacity:1;fill:none;fill-opacity:1;stroke:#20292d;stroke-width:2.54775119;stroke-miterlimit:4;stroke-dasharray:none;stroke-dashoffset:0;stroke-opacity:1"
       id="rect8422"
       width="70.625565"
       height="43.584251"
       x="67.290802"
       y="44.879986"
       rx="2.1756732" />
  </g>
  <g
     inkscape:groupmode="layer"
     id="layer4"
     inkscape:label="Layer 4"
     style="display:inline"
     transform="translate(-32.62798,-34.306554)">
    <rect
       style="opacity:1;fill:#20292d;fill-opacity:1;stroke:none;stroke-width:2.12615657;stroke-miterlimit:4;stroke-dasharray:none;stroke-dashoffset:0;stroke-opacity:1"
       id="rect8428"
       width="8.7732124"
       height="7.4234867"
       x="99.108986"
       y="88.08242" />
    <rect
       style="opacity:1;fill:#20292d;fill-opacity:1;stroke:none;stroke-width:2.54775119;stroke-miterlimit:4;stroke-dasharray:none;stroke-dashoffset:0;stroke-opacity:1"
       id="rect8430"
       width="19.72426"
       height="1.1134663"
       x="93.536781"
       y="95.304085" />
  </g>
  <g
     inkscape:groupmode="layer"
     id="layer5"
     inkscape:label="Layer 5"
     transform="translate(-32.62798,-34.306554)">
    <g
       transform="matrix(0.59740471,0,0,0.59740471,60.002333,-101.2424)"
       id="layer1-6"
       inkscape:label="Layer 1">
      <g
         transform="matrix(0.3315903,0,0,0.3315903,6.4875763,245.91217)"
         inkscape:label="Layer 1"
         id="layer1-9">
        <g
           transform="matrix(0.36088791,0,0,0.34503181,10.860508,-148.88706)"
           id="g3229">
          <g
             id="g3133"
             transform="matrix(3.7212317,0,0,3.7212317,109.40245,588.22933)">
            <g
               id="New_x5F_York_x5F_Times_x5F_Books">
              <path
                 id="path3120"
                 d="M 31.094,37.11 C 29.843,36.693 28.841,35.948 27.801,35.315 26.747,34.672 25.68,34.092 24.609,33.469 19.364,30.416 13.975,27.345 8.648,24.192 7.582,23.561 6.27,22.985 5.606,22.196 4.818,21.262 4.431,19.171 5.207,17.807 5.762,16.832 6.968,16.254 8.05,15.662 8.657,15.331 9.258,14.955 9.846,14.615 13.53,12.489 17.072,10.475 20.769,8.38 25.142,5.902 29.098,3.521 33.488,1.048 c 0.578,-0.326 1.5,-1.057 2.095,-1.047 0.618,0.01 1.166,0.463 1.746,0.798 0.579,0.335 1.138,0.623 1.596,0.898 1.001,0.602 2.052,1.285 3.093,1.895 1.057,0.62 2.043,1.3 3.092,1.896 4.696,2.664 9.465,5.391 14.266,8.229 0.331,0.196 1.413,0.731 1.446,1.048 0.05,0.468 -1.09,0.97 -1.646,1.297 -1.877,1.101 -3.685,2.096 -5.537,3.142 -2.503,1.414 -4.903,3.01 -7.232,4.34 -2.32,1.324 -5.069,2.808 -7.382,4.239 -1.145,0.708 -2.367,1.449 -3.641,2.145 -2.105,1.15 -5.338,2.204 -4.689,5.636 0.103,0.549 0.464,1.019 0.399,1.546 z"
                 style="fill:#ff9f1c;fill-opacity:1;fill-rule:evenodd"
                 inkscape:connector-curvature="0" />
              <path
                 id="path3122"
                 d="m 37.079,37.858 c 0.066,-0.57 0.857,-0.81 1.347,-1.097 1.538,-0.903 3.105,-1.907 4.738,-2.843 5.258,-3.014 10.618,-6.149 15.962,-9.277 1.256,-0.735 2.381,-1.631 3.791,-1.945 1.805,-0.403 3.865,1.032 4.19,2.444 0.285,1.236 0.1,2.835 0.1,4.34 0.001,10.194 0.082,20.744 -0.049,30.476 -0.222,0.641 -0.926,0.857 -1.447,1.147 -1.591,0.886 -3.179,1.9 -4.788,2.843 -5.345,3.13 -10.798,6.204 -16.211,9.327 -0.523,0.302 -1.076,0.612 -1.596,0.948 -0.465,0.3 -0.956,0.835 -1.596,0.748 -0.361,-0.581 -0.139,-1.285 -0.149,-1.945 -0.146,-9.08 -0.051,-18.505 -0.05,-27.833 0,-1.417 0.191,-2.894 0,-4.09 -0.304,-1.883 -1.917,-3.32 -4.242,-3.243 z"
                 style="fill:#aa001d;fill-opacity:1;fill-rule:evenodd"
                 inkscape:connector-curvature="0" />
              <path
                 id="path3124"
                 d="m 0.268,27.732 c 7.328,3.988 14.293,8.338 21.498,12.42 1.697,0.962 3.596,2.056 5.337,3.143 1.271,0.793 2.88,1.938 4.838,0.898 0.385,-0.24 0.736,-0.504 1.047,-0.848 0.282,-0.312 0.475,-0.828 0.898,-0.848 0.19,8.671 0.1,18.262 0.1,27.234 0,1.346 0.179,3.129 -0.1,4.04 -0.476,1.556 -2.579,2.997 -4.789,2.195 C 27.809,75.498 26.696,74.56 25.456,73.871 19.347,70.476 13.553,66.824 7.25,63.396 5.414,62.397 3.692,61.382 1.763,60.254 1.138,59.888 0.215,59.515 0.067,59.107 c -0.128,-0.354 -0.034,-1.24 -0.05,-1.896 -0.045,-1.879 0.05,-4.008 0.05,-5.936 0,-5.328 -0.045,-10.252 0,-15.812 0.014,-1.773 -0.023,-3.876 -0.05,-5.736 -0.009,-0.633 -0.012,-1.55 0.1,-1.845 0.029,-0.071 0.079,-0.122 0.151,-0.15 z"
                 style="fill:#4285f4;fill-opacity:1;fill-rule:evenodd"
                 inkscape:connector-curvature="0" />
            </g>
            <g
               id="Layer_1-7" />
          </g>
        </g>
      </g>
    </g>
    <g
       id="g8573"
       transform="matrix(0.16740784,0,0,0.16740784,113.27687,57.196739)">
      <path
         id="path8559"
         d="m 57.505,0 h 7.475 v 10 c 13.375,0.075 26.738,-0.138 40.101,0.075 2.85,-0.288 5.087,1.925 4.825,4.775 0.212,24.625 -0.05,49.262 0.125,73.887 -0.125,2.525 0.25,5.325 -1.213,7.562 -1.825,1.3 -4.188,1.138 -6.312,1.237 C 89.992,97.475 77.492,97.5 64.98,97.5 v 10 h -7.812 c -19.024,-3.475 -38.1,-6.662 -57.162,-10 -0.013,-29.162 0,-58.325 0,-87.475 C 19.167,6.675 38.343,3.413 57.506,0 Z"
         inkscape:connector-curvature="0"
         style="fill:#2a5699" />
      <path
         id="path8561"
         d="m 64.98,13.75 h 41.25 v 80 H 64.98 v -10 h 32.5 v -5 H 64.98 V 72.5 h 32.5 v -5 h -32.5 v -6.25 h 32.5 v -5 H 64.98 V 50 h 32.5 v -5 h -32.5 v -6.25 h 32.5 v -5 H 64.98 V 27.5 h 32.5 v -5 H 64.98 Z M 25.83,35.837 c 2.375,-0.137 4.75,-0.237 7.125,-0.362 1.662,8.438 3.362,16.862 5.162,25.262 1.413,-8.675 2.976,-17.325 4.487,-25.987 2.5,-0.087 5,-0.225 7.488,-0.375 -2.825,12.112 -5.3,24.325 -8.388,36.362 -2.088,1.088 -5.213,-0.05 -7.688,0.125 -1.663,-8.274 -3.6,-16.5 -5.088,-24.812 -1.462,8.075 -3.362,16.075 -5.037,24.101 -2.4,-0.125 -4.812,-0.275 -7.226,-0.438 -2.074,-11 -4.512,-21.925 -6.449,-32.95 2.137,-0.1 4.287,-0.188 6.425,-0.263 1.287,7.962 2.75,15.888 3.875,23.862 1.765,-8.174 3.564,-16.349 5.314,-24.525 z"
         inkscape:connector-curvature="0"
         style="fill:#ffffff" />
    </g>
  </g>
  <g
     inkscape:groupmode="layer"
     id="layer6"
     inkscape:label="Layer 6"
     style="display:inline"
     transform="translate(-32.62798,-34.306554)" />
  <g
     inkscape:groupmode="layer"
     id="layer8"
     inkscape:label="Layer 7"
     transform="translate(-32.62798,-34.306554)">
    <rect
       style="opacity:1;fill:#4285f4;fill-opacity:1;stroke:none;stroke-width:0.83907545;stroke-miterlimit:4;stroke-dasharray:none;stroke-dashoffset:0;stroke-opacity:1"
       id="rect8472"
       width="77.111115"
       height="5.8040619"
       x="75.44886"
       y="101.72775"
       rx="3.0711257"
       ry="4.0582733" />
    <rect
       style="opacity:1;fill:#aa001d;fill-opacity:1;stroke:none;stroke-width:0.83907545;stroke-miterlimit:4;stroke-dasharray:none;stroke-dashoffset:0;stroke-opacity:1"
       id="rect8472-1"
       width="77.111115"
       height="5.8040619"
       x="75.44886"
       y="128.57153"
       rx="3.0711257"
       ry="4.0582733" />
    <rect
       style="opacity:1;fill:#4285f4;fill-opacity:1;stroke:none;stroke-width:0.64965379;stroke-miterlimit:4;stroke-dasharray:none;stroke-dashoffset:0;stroke-opacity:1"
       id="rect8472-8"
       width="46.225212"
       height="5.8040619"
       x="75.863434"
       y="113.18042"
       rx="3.0469954"
       ry="4.0582733" />
    <rect
       style="opacity:1;fill:#aa001d;fill-opacity:1;stroke:none;stroke-width:0.64965379;stroke-miterlimit:4;stroke-dasharray:none;stroke-dashoffset:0;stroke-opacity:1"
       id="rect8472-1-1"
       width="46.225212"
       height="5.8040619"
       x="75.863434"
       y="140.0242"
       rx="3.0469956"
       ry="4.0582733" />
    <g
       style="fill:#ffffff"
       id="g8558"
       transform="matrix(0.81533251,0,0,0.81533251,56.295451,99.416499)">
      <path
         id="path8544"
         d="M 0,0 H 24 V 24 H 0 Z"
         inkscape:connector-curvature="0"
         style="fill:none" />
      <path
         id="path8546"
         d="M 10.09322,2 C 4.2223729,2 -0.54237292,6.7647458 -0.54237292,12.635593 c 0,5.870848 4.76474582,10.635593 10.63559292,10.635593 5.870848,0 10.635593,-4.764745 10.635593,-10.635593 C 20.728813,6.7647458 15.964068,2 10.09322,2 Z m -2.1271183,15.95339 -5.3177966,-5.317797 1.4996186,-1.499618 3.818178,3.807542 8.0724153,-8.0724153 1.499618,1.5102542 -4.058199,4.0582001 z"
         inkscape:connector-curvature="0"
         style="fill:#4285f4;fill-opacity:1;stroke-width:1.06355929"
         sodipodi:nodetypes="ssssscccccccc" />
      <path
         id="path8546-7"
         d="m 9.5084774,35.419499 c -5.870847,0 -10.6355917,4.76474 -10.6355917,10.63559 0,5.87085 4.7647447,10.63559 10.6355917,10.63559 5.8708486,0 10.6355926,-4.76474 10.6355926,-10.63559 0,-5.87085 -4.764744,-10.63559 -10.6355926,-10.63559 z m -2.127118,15.95339 -5.317796,-5.3178 1.499618,-1.49962 3.818178,3.80754 8.0724156,-8.07241 1.499617,1.51025 -4.058198,4.0582 z"
         inkscape:connector-curvature="0"
         style="fill:#aa001d;fill-opacity:1;stroke-width:1.06355929"
         sodipodi:nodetypes="ssssscccccccc" />
    </g>
  </g>
</svg>
