<?xml version="1.0" encoding="UTF-8" standalone="no"?>
<!-- Created with Inkscape (http://www.inkscape.org/) -->

<svg
   xmlns:dc="http://purl.org/dc/elements/1.1/"
   xmlns:cc="http://creativecommons.org/ns#"
   xmlns:rdf="http://www.w3.org/1999/02/22-rdf-syntax-ns#"
   xmlns:svg="http://www.w3.org/2000/svg"
   xmlns="http://www.w3.org/2000/svg"
   xmlns:sodipodi="http://sodipodi.sourceforge.net/DTD/sodipodi-0.dtd"
   xmlns:inkscape="http://www.inkscape.org/namespaces/inkscape"
   width="111.86057mm"
   height="93.14357mm"
   viewBox="0 0 111.86058 93.14357"
   version="1.1"
   id="svg4793"
   inkscape:version="0.92.2 (5c3e80d, 2017-08-06)"
   sodipodi:docname="how-it-works-icon.svg">
  <defs
     id="defs4787" />
  <sodipodi:namedview
     id="base"
     pagecolor="#ffffff"
     bordercolor="#666666"
     borderopacity="1.0"
     inkscape:pageopacity="0.0"
     inkscape:pageshadow="2"
     inkscape:zoom="1.4"
     inkscape:cx="198.76042"
     inkscape:cy="117.36096"
     inkscape:document-units="mm"
     inkscape:current-layer="layer2"
     showgrid="false"
     fit-margin-top="0"
     fit-margin-left="0"
     fit-margin-right="0"
     fit-margin-bottom="0"
     inkscape:window-width="1920"
     inkscape:window-height="1057"
     inkscape:window-x="1358"
     inkscape:window-y="-8"
     inkscape:window-maximized="1" />
  <metadata
     id="metadata4790">
    <rdf:RDF>
      <cc:Work
         rdf:about="">
        <dc:format>image/svg+xml</dc:format>
        <dc:type
           rdf:resource="http://purl.org/dc/dcmitype/StillImage" />
        <dc:title></dc:title>
      </cc:Work>
    </rdf:RDF>
  </metadata>
  <g
     inkscape:label="Layer 1"
     inkscape:groupmode="layer"
     id="layer1"
     transform="translate(29.174144,-6.3120104)"
     style="display:none">
    <rect
       style="opacity:1;fill:#394951;fill-opacity:1;stroke:#394951;stroke-width:0.59562761;stroke-miterlimit:4;stroke-dasharray:none;stroke-dashoffset:0;stroke-opacity:1"
       id="rect9354"
       width="111.38048"
       height="93.185501"
       x="-28.723522"
       y="6.2196903" />
  </g>
  <g
     inkscape:groupmode="layer"
     id="layer2"
     inkscape:label="Layer 2"
     transform="translate(29.174144,-6.3120104)"
     style="display:inline">
    <g
       style="fill:#ffffff"
       id="g9311"
       transform="matrix(2.1697461,2.2045408,-2.2045408,2.1697461,-6.8121725,-5.8303249)">
      <path
         id="path9297"
         d="M 0,0 H 24 V 24 H 0 Z"
         inkscape:connector-curvature="0"
         style="clip-rule:evenodd;fill:none" />
      <path
         id="path9299"
         d="M 22.7,19 C 22.5,18.85 13.15,11.05 13.6,9.9 14.05,8.75 14.05,4.95 12.1,3 10.15,1.05 5.9,1.15 4.7,1.7 3.5,2.25 9,4.2793735 9,6 9,7.7206265 7.7324507,8.9900437 6,9 4.2675493,9.0099563 2.2,3.5 1.6,4.7 1,5.9 0.95,10.15 2.9,12.1 c 1.95,1.95 5.75,1.95 6.9,1.5 1.15,-0.45 8.9,8.9 9.1,9.1 0.2,0.2 1.2,0.2 1.4,0 0.2,-0.2 2.05,-2.1 2.3,-2.3 0.25,-0.2 0.3,-1.25 0.1,-1.4 z"
         inkscape:connector-curvature="0"
         sodipodi:nodetypes="zzzzzzzzzzzzz" />
    </g>
  </g>
  <g
     inkscape:groupmode="layer"
     id="layer3"
     inkscape:label="Layer 3"
     transform="translate(29.174144,-6.3120104)"
     style="display:inline">
    <g
       style="fill:#ffffff"
       id="g9352"
       transform="matrix(3.0931858,0,0,3.0931858,6.9029565,30.076788)">
      <path
         id="path9338"
         d="M 0,0 H 24 V 24 H 0 Z"
         inkscape:connector-curvature="0"
         style="fill:none" />
      <path
         id="path9340"
         d="M 2,6 H 0 v 5 H 0.01 L 0,20 c 0,1.1 0.9,2 2,2 H 20 V 20 H 2 Z M 22,4 H 14 L 12,2 H 6 C 4.9,2 4.01,2.9 4.01,4 L 4,16 c 0,1.1 0.9,2 2,2 h 16 c 1.1,0 2,-0.9 2,-2 V 6 C 24,4.9 23.1,4 22,4 Z M 7,15 11.5,9 15,13.51 17.5,10.5 21,15 Z"
         inkscape:connector-curvature="0" />
    </g>
  </g>
</svg>
