<?xml version="1.0" encoding="UTF-8" standalone="no"?>
<!-- Created with Inkscape (http://www.inkscape.org/) -->

<svg
   xmlns:dc="http://purl.org/dc/elements/1.1/"
   xmlns:cc="http://creativecommons.org/ns#"
   xmlns:rdf="http://www.w3.org/1999/02/22-rdf-syntax-ns#"
   xmlns:svg="http://www.w3.org/2000/svg"
   xmlns="http://www.w3.org/2000/svg"
   xmlns:sodipodi="http://sodipodi.sourceforge.net/DTD/sodipodi-0.dtd"
   xmlns:inkscape="http://www.inkscape.org/namespaces/inkscape"
   width="44.147617mm"
   height="44.147617mm"
   viewBox="0 0 44.147617 44.147617"
   version="1.1"
   id="svg8"
   inkscape:version="0.92.2 (5c3e80d, 2017-08-06)"
   sodipodi:docname="ic_add_shopping_cart_white_24px.svg">
  <defs
     id="defs2" />
  <sodipodi:namedview
     id="base"
     pagecolor="#ffffff"
     bordercolor="#666666"
     borderopacity="1.0"
     inkscape:pageopacity="0.0"
     inkscape:pageshadow="2"
     inkscape:zoom="1.4"
     inkscape:cx="236.01335"
     inkscape:cy="-68.988437"
     inkscape:document-units="mm"
     inkscape:current-layer="layer2"
     showgrid="false"
     fit-margin-top="0"
     fit-margin-left="0"
     fit-margin-right="0"
     fit-margin-bottom="0"
     inkscape:window-width="1920"
     inkscape:window-height="1057"
     inkscape:window-x="1358"
     inkscape:window-y="-8"
     inkscape:window-maximized="1" />
  <metadata
     id="metadata5">
    <rdf:RDF>
      <cc:Work
         rdf:about="">
        <dc:format>image/svg+xml</dc:format>
        <dc:type
           rdf:resource="http://purl.org/dc/dcmitype/StillImage" />
        <dc:title></dc:title>
      </cc:Work>
    </rdf:RDF>
  </metadata>
  <g
     inkscape:groupmode="layer"
     id="layer2"
     inkscape:label="Layer 2"
     transform="translate(-0.18898763,-0.09970264)" />
  <g
     inkscape:label="Layer 1"
     inkscape:groupmode="layer"
     id="layer1"
     transform="translate(-0.18898763,-0.09970264)">
    <g
       style="fill:#ffffff"
       id="g4761"
       transform="matrix(1.8394841,0,0,1.8394841,0.18898763,0.09970264)">
      <path
         id="path4747"
         d="M 0,0 H 24 V 24 H 0 Z m 18.31,6 -2.76,5 z"
         inkscape:connector-curvature="0"
         style="fill:none" />
      <path
         id="path4749"
         d="m 7,18 c -1.1,0 -1.99,0.9 -1.99,2 0,1.1 0.89,2 1.99,2 1.1,0 2,-0.9 2,-2 0,-1.1 -0.9,-2 -2,-2 z m 10,0 c -1.1,0 -1.99,0.9 -1.99,2 0,1.1 0.89,2 1.99,2 1.1,0 2,-0.9 2,-2 0,-1.1 -0.9,-2 -2,-2 z M 7.17,14.75 7.2,14.63 8.1,13 h 7.45 c 0.75,0 1.41,-0.41 1.75,-1.03 L 21.16,4.96 19.42,4 h -0.01 l -1.1,2 -2.76,5 H 8.53 L 8.4,10.73 6.16,6 5.21,4 4.27,2 H 1 v 2 h 2 l 3.6,7.59 -1.35,2.45 C 5.09,14.32 5,14.65 5,15 c 0,1.1 0.9,2 2,2 H 19 V 15 H 7.42 C 7.29,15 7.17,14.89 7.17,14.75 Z"
         inkscape:connector-curvature="0"
         sodipodi:nodetypes="sssssssssscccsccccccccccccccccssccsc" />
    </g>
  </g>
  <g
     inkscape:groupmode="layer"
     id="layer4"
     inkscape:label="Layer 3"
     transform="translate(-0.18898763,-0.09970264)">
    <g
       style="fill:#ffffff"
       id="g4842"
       transform="matrix(0.86304563,0,0,0.86304563,12.329583,0.70622864)">
      <path
         id="path4828"
         d="M 0,0 H 24 V 24 H 0 Z"
         inkscape:connector-curvature="0"
         style="fill:none" />
      <path
         id="path4830"
         d="M 20,12 18.59,10.59 13,16.17 V 4 H 11 V 16.17 L 5.42,10.58 4,12 l 8,8 z"
         inkscape:connector-curvature="0"
         style="fill:#ffffff;fill-opacity:1" />
    </g>
  </g>
</svg>
