<?xml version="1.0" encoding="UTF-8" standalone="no"?>
<!-- Created with Inkscape (http://www.inkscape.org/) -->

<svg
   xmlns:dc="http://purl.org/dc/elements/1.1/"
   xmlns:cc="http://creativecommons.org/ns#"
   xmlns:rdf="http://www.w3.org/1999/02/22-rdf-syntax-ns#"
   xmlns:svg="http://www.w3.org/2000/svg"
   xmlns="http://www.w3.org/2000/svg"
   xmlns:sodipodi="http://sodipodi.sourceforge.net/DTD/sodipodi-0.dtd"
   xmlns:inkscape="http://www.inkscape.org/namespaces/inkscape"
   width="5.2916665mm"
   height="5.2916665mm"
   viewBox="-0.2 0 5.2916665 5.2916665"
   version="1.1"
   id="svg8"
   inkscape:version="0.92.2 (5c3e80d, 2017-08-06)"
   sodipodi:docname="ic_insert_emoticon_black_24px.svg">
  <defs
     id="defs2" />
  <sodipodi:namedview
     id="base"
     pagecolor="#ffffff"
     bordercolor="#666666"
     borderopacity="1.0"
     inkscape:pageopacity="0.0"
     inkscape:pageshadow="2"
     inkscape:zoom="1.979899"
     inkscape:cx="-78.549078"
     inkscape:cy="-70.069644"
     inkscape:document-units="mm"
     inkscape:current-layer="g4761"
     showgrid="false"
     viewbox-x="-0.2"
     fit-margin-top="0"
     fit-margin-left="0"
     fit-margin-right="0"
     fit-margin-bottom="0"
     inkscape:window-width="1920"
     inkscape:window-height="1057"
     inkscape:window-x="1358"
     inkscape:window-y="-8"
     inkscape:window-maximized="1" />
  <metadata
     id="metadata5">
    <rdf:RDF>
      <cc:Work
         rdf:about="">
        <dc:format>image/svg+xml</dc:format>
        <dc:type
           rdf:resource="http://purl.org/dc/dcmitype/StillImage" />
        <dc:title></dc:title>
      </cc:Work>
    </rdf:RDF>
  </metadata>
  <g
     inkscape:label="Layer 1"
     inkscape:groupmode="layer"
     id="layer1"
     transform="translate(-80.708929,-25.991072)">
    <g
       style="fill:#000000"
       id="g4761"
       transform="matrix(0.26458333,0,0,0.26458333,79.979762,25.461905)">
      <path
         id="path4747"
         d="M 0,0 H 24 V 24 H 0 Z"
         inkscape:connector-curvature="0"
         style="fill:none" />
      <path
         id="path4749"
         d="M 11.99,2 C 6.47,2 2,6.48 2,12 2,17.52 6.47,22 11.99,22 17.52,22 22,17.52 22,12 22,6.48 17.52,2 11.99,2 Z M 12,20 C 7.58,20 4,16.42 4,12 4,7.58 7.58,4 12,4 c 4.42,0 8,3.58 8,8 0,4.42 -3.58,8 -8,8 z m 3.5,-9 C 16.33,11 17,10.33 17,9.5 17,8.67 16.33,8 15.5,8 14.67,8 14,8.67 14,9.5 c 0,0.83 0.67,1.5 1.5,1.5 z m -7,0 C 9.33,11 10,10.33 10,9.5 10,8.67 9.33,8 8.5,8 7.67,8 7,8.67 7,9.5 7,10.33 7.67,11 8.5,11 Z m 3.5,6.5 c 2.33,0 4.31,-1.46 5.11,-3.5 H 6.89 c 0.8,2.04 2.78,3.5 5.11,3.5 z"
         inkscape:connector-curvature="0"
         style="fill:#4285f4;fill-opacity:1" />
    </g>
  </g>
</svg>
