<?xml version="1.0" encoding="UTF-8" standalone="no"?>
<!-- Created with Inkscape (http://www.inkscape.org/) -->

<svg
   xmlns:dc="http://purl.org/dc/elements/1.1/"
   xmlns:cc="http://creativecommons.org/ns#"
   xmlns:rdf="http://www.w3.org/1999/02/22-rdf-syntax-ns#"
   xmlns:svg="http://www.w3.org/2000/svg"
   xmlns="http://www.w3.org/2000/svg"
   xmlns:sodipodi="http://sodipodi.sourceforge.net/DTD/sodipodi-0.dtd"
   xmlns:inkscape="http://www.inkscape.org/namespaces/inkscape"
   width="76.635796mm"
   height="69.960144mm"
   viewBox="0 0 76.635796 69.960144"
   version="1.1"
   id="svg8"
   sodipodi:docname="ic_shopping_basket_white_24px.svg"
   inkscape:version="0.92.2 (5c3e80d, 2017-08-06)">
  <defs
     id="defs2" />
  <sodipodi:namedview
     id="base"
     pagecolor="#ffffff"
     bordercolor="#666666"
     borderopacity="1.0"
     inkscape:pageopacity="0.0"
     inkscape:pageshadow="2"
     inkscape:zoom="0.7"
     inkscape:cx="418.48404"
     inkscape:cy="230.48693"
     inkscape:document-units="mm"
     inkscape:current-layer="layer1"
     showgrid="false"
     inkscape:window-width="1920"
     inkscape:window-height="1057"
     inkscape:window-x="1358"
     inkscape:window-y="-8"
     inkscape:window-maximized="1"
     fit-margin-top="0"
     fit-margin-left="0"
     fit-margin-right="0"
     fit-margin-bottom="0" />
  <metadata
     id="metadata5">
    <rdf:RDF>
      <cc:Work
         rdf:about="">
        <dc:format>image/svg+xml</dc:format>
        <dc:type
           rdf:resource="http://purl.org/dc/dcmitype/StillImage" />
        <dc:title></dc:title>
      </cc:Work>
    </rdf:RDF>
  </metadata>
  <g
     inkscape:label="Layer 1"
     inkscape:groupmode="layer"
     id="layer1"
     transform="translate(0.3779763,-0.28868973)">
    <g
       id="g4892"
       transform="matrix(0.6798534,0,0,0.6798534,28.426554,34.351467)">
      <g
         transform="translate(-1.3732473,-0.32590525)"
         inkscape:label="Layer 2"
         id="layer2-1" />
      <g
         transform="translate(-2.1516014,-1.1042593)"
         id="layer1-5"
         inkscape:label="Layer 1">
        <g
           inkscape:label="Layer 1"
           id="layer1-84"
           transform="matrix(0.86119936,0,0,0.86017782,-0.08894255,2.6100689)">
          <g
             transform="translate(4.7316394,-258.60612)"
             id="layer1-8"
             inkscape:label="Layer 1">
            <g
               transform="matrix(0.3315903,0,0,0.3315903,-17.202613,240.72335)"
               inkscape:label="Layer 1"
               id="layer1-9">
              <g
                 transform="matrix(0.36088791,0,0,0.34503181,10.860508,-148.88706)"
                 id="g3229"
                 style="fill:#ffffff">
                <g
                   id="g3133"
                   transform="matrix(3.7212317,0,0,3.7212317,109.40245,588.22933)"
                   style="fill:#ffffff">
                  <g
                     id="New_x5F_York_x5F_Times_x5F_Books"
                     style="fill:#ffffff">
                    <path
                       id="path3120"
                       d="M 31.094,37.11 C 29.843,36.693 28.841,35.948 27.801,35.315 26.747,34.672 25.68,34.092 24.609,33.469 19.364,30.416 13.975,27.345 8.648,24.192 7.582,23.561 6.27,22.985 5.606,22.196 4.818,21.262 4.431,19.171 5.207,17.807 5.762,16.832 6.968,16.254 8.05,15.662 8.657,15.331 9.258,14.955 9.846,14.615 13.53,12.489 17.072,10.475 20.769,8.38 25.142,5.902 29.098,3.521 33.488,1.048 c 0.578,-0.326 1.5,-1.057 2.095,-1.047 0.618,0.01 1.166,0.463 1.746,0.798 0.579,0.335 1.138,0.623 1.596,0.898 1.001,0.602 2.052,1.285 3.093,1.895 1.057,0.62 2.043,1.3 3.092,1.896 4.696,2.664 9.465,5.391 14.266,8.229 0.331,0.196 1.413,0.731 1.446,1.048 0.05,0.468 -1.09,0.97 -1.646,1.297 -1.877,1.101 -3.685,2.096 -5.537,3.142 -2.503,1.414 -4.903,3.01 -7.232,4.34 -2.32,1.324 -5.069,2.808 -7.382,4.239 -1.145,0.708 -2.367,1.449 -3.641,2.145 -2.105,1.15 -5.338,2.204 -4.689,5.636 0.103,0.549 0.464,1.019 0.399,1.546 z"
                       style="fill:#ffffff;fill-opacity:1;fill-rule:evenodd"
                       inkscape:connector-curvature="0" />
                    <path
                       id="path3122"
                       d="m 37.079,37.858 c 0.066,-0.57 0.857,-0.81 1.347,-1.097 1.538,-0.903 3.105,-1.907 4.738,-2.843 5.258,-3.014 10.618,-6.149 15.962,-9.277 1.256,-0.735 2.381,-1.631 3.791,-1.945 1.805,-0.403 3.865,1.032 4.19,2.444 0.285,1.236 0.1,2.835 0.1,4.34 0.001,10.194 0.082,20.744 -0.049,30.476 -0.222,0.641 -0.926,0.857 -1.447,1.147 -1.591,0.886 -3.179,1.9 -4.788,2.843 -5.345,3.13 -10.798,6.204 -16.211,9.327 -0.523,0.302 -1.076,0.612 -1.596,0.948 -0.465,0.3 -0.956,0.835 -1.596,0.748 -0.361,-0.581 -0.139,-1.285 -0.149,-1.945 -0.146,-9.08 -0.051,-18.505 -0.05,-27.833 0,-1.417 0.191,-2.894 0,-4.09 -0.304,-1.883 -1.917,-3.32 -4.242,-3.243 z"
                       style="fill:#ffffff;fill-opacity:1;fill-rule:evenodd"
                       inkscape:connector-curvature="0" />
                    <path
                       id="path3124"
                       d="m 0.268,27.732 c 7.328,3.988 14.293,8.338 21.498,12.42 1.697,0.962 3.596,2.056 5.337,3.143 1.271,0.793 2.88,1.938 4.838,0.898 0.385,-0.24 0.736,-0.504 1.047,-0.848 0.282,-0.312 0.475,-0.828 0.898,-0.848 0.19,8.671 0.1,18.262 0.1,27.234 0,1.346 0.179,3.129 -0.1,4.04 -0.476,1.556 -2.579,2.997 -4.789,2.195 C 27.809,75.498 26.696,74.56 25.456,73.871 19.347,70.476 13.553,66.824 7.25,63.396 5.414,62.397 3.692,61.382 1.763,60.254 1.138,59.888 0.215,59.515 0.067,59.107 c -0.128,-0.354 -0.034,-1.24 -0.05,-1.896 -0.045,-1.879 0.05,-4.008 0.05,-5.936 0,-5.328 -0.045,-10.252 0,-15.812 0.014,-1.773 -0.023,-3.876 -0.05,-5.736 -0.009,-0.633 -0.012,-1.55 0.1,-1.845 0.029,-0.071 0.079,-0.122 0.151,-0.15 z"
                       style="fill:#ffffff;fill-opacity:1;fill-rule:evenodd"
                       inkscape:connector-curvature="0" />
                  </g>
                  <g
                     id="Layer_1-7"
                     style="fill:#ffffff" />
                </g>
              </g>
            </g>
          </g>
        </g>
      </g>
    </g>
  </g>
  <g
     inkscape:groupmode="layer"
     id="layer2"
     inkscape:label="Layer 2"
     transform="translate(0.3779763,-0.28868973)">
    <g
       style="fill:#ffffff"
       id="g4812"
       transform="matrix(3.1931583,0,0,2.9150061,-0.3779763,0.28868973)">
      <path
         id="path4798"
         d="M 0,0 H 24 V 24 H 0 Z"
         inkscape:connector-curvature="0"
         style="fill:none" />
      <path
         id="path4800"
         d="M 17.21,9 12.83,2.44 C 12.64,2.16 12.32,2.02 12,2.02 c -0.32,0 -0.64,0.14 -0.83,0.43 L 6.79,9 H 2 c -0.55,0 -1,0.45 -1,1 0,0.09 0.01,0.18 0.04,0.27 l 2.54,9.27 C 3.81,20.38 4.58,21 5.5,21 h 13 c 0.92,0 1.69,-0.62 1.93,-1.46 L 22.97,10.27 23,10 C 23,9.45 22.55,9 22,9 Z M 9,9 12,4.6 15,9 Z m 3.214329,10.960459 c -1.1,0 -5.2331412,-3.971136 -5.2331412,-5.071136 0,-1.1 4.0075902,-3.65554 5.1075902,-3.65554 1.1,0 4.907622,2.542114 4.907622,3.642114 0,1.1 -3.682071,5.084562 -4.782071,5.084562 z"
         inkscape:connector-curvature="0"
         sodipodi:nodetypes="ccsccssccsscccscccccsssss" />
    </g>
  </g>
</svg>
