<?xml version="1.0" encoding="UTF-8" standalone="no"?>
<!-- Created with Inkscape (http://www.inkscape.org/) -->

<svg
   xmlns:dc="http://purl.org/dc/elements/1.1/"
   xmlns:cc="http://creativecommons.org/ns#"
   xmlns:rdf="http://www.w3.org/1999/02/22-rdf-syntax-ns#"
   xmlns:svg="http://www.w3.org/2000/svg"
   xmlns="http://www.w3.org/2000/svg"
   xmlns:sodipodi="http://sodipodi.sourceforge.net/DTD/sodipodi-0.dtd"
   xmlns:inkscape="http://www.inkscape.org/namespaces/inkscape"
   width="106.13887"
   height="114.94191"
   viewBox="0 0 29.954749 32.439161"
   version="1.1"
   id="svg8"
   inkscape:version="0.48.5 r10040"
   sodipodi:docname="logo-mark.svg">
  <defs
     id="defs2" />
  <sodipodi:namedview
     id="base"
     pagecolor="#ffffff"
     bordercolor="#666666"
     borderopacity="1.0"
     inkscape:pageopacity="0.0"
     inkscape:pageshadow="2"
     inkscape:zoom="0.7"
     inkscape:cx="155.80645"
     inkscape:cy="107.10881"
     inkscape:document-units="mm"
     inkscape:current-layer="layer1"
     showgrid="false"
     inkscape:window-width="1366"
     inkscape:window-height="705"
     inkscape:window-x="-8"
     inkscape:window-y="-8"
     inkscape:window-maximized="1"
     units="mm"
     fit-margin-top="0"
     fit-margin-left="0"
     fit-margin-right="0"
     fit-margin-bottom="0" />
  <metadata
     id="metadata5">
    <rdf:RDF>
      <cc:Work
         rdf:about="">
        <dc:format>image/svg+xml</dc:format>
        <dc:type
           rdf:resource="http://purl.org/dc/dcmitype/StillImage" />
        <dc:title />
      </cc:Work>
    </rdf:RDF>
  </metadata>
  <g
     inkscape:label="Layer 1"
     inkscape:groupmode="layer"
     id="layer1"
     transform="translate(-1.3607473,-263.46393)">
    <g
       id="layer1-9"
       inkscape:label="Layer 1"
       transform="matrix(0.3315903,0,0,0.3315903,-15.331726,245.5342)"
       style="fill:#b3b3b3;fill-opacity:1">
      <g
         id="g3229"
         transform="matrix(0.36088791,0,0,0.34503181,10.860508,-148.88706)"
         style="fill:#b3b3b3;fill-opacity:1">
        <g
           transform="matrix(3.7212317,0,0,3.7212317,109.40245,588.22933)"
           id="g3133"
           style="fill:#b3b3b3;fill-opacity:1">
          <g
             id="New_x5F_York_x5F_Times_x5F_Books"
             style="fill:#b3b3b3;fill-opacity:1">
            <path
               inkscape:connector-curvature="0"
               style="fill:#b3b3b3;fill-opacity:1;fill-rule:evenodd"
               d="M 31.094,37.11 C 29.843,36.693 28.841,35.948 27.801,35.315 26.747,34.672 25.68,34.092 24.609,33.469 19.364,30.416 13.975,27.345 8.648,24.192 7.582,23.561 6.27,22.985 5.606,22.196 4.818,21.262 4.431,19.171 5.207,17.807 5.762,16.832 6.968,16.254 8.05,15.662 8.657,15.331 9.258,14.955 9.846,14.615 13.53,12.489 17.072,10.475 20.769,8.38 25.142,5.902 29.098,3.521 33.488,1.048 c 0.578,-0.326 1.5,-1.057 2.095,-1.047 0.618,0.01 1.166,0.463 1.746,0.798 0.579,0.335 1.138,0.623 1.596,0.898 1.001,0.602 2.052,1.285 3.093,1.895 1.057,0.62 2.043,1.3 3.092,1.896 4.696,2.664 9.465,5.391 14.266,8.229 0.331,0.196 1.413,0.731 1.446,1.048 0.05,0.468 -1.09,0.97 -1.646,1.297 -1.877,1.101 -3.685,2.096 -5.537,3.142 -2.503,1.414 -4.903,3.01 -7.232,4.34 -2.32,1.324 -5.069,2.808 -7.382,4.239 -1.145,0.708 -2.367,1.449 -3.641,2.145 -2.105,1.15 -5.338,2.204 -4.689,5.636 0.103,0.549 0.464,1.019 0.399,1.546 z"
               id="path3120" />
            <path
               inkscape:connector-curvature="0"
               style="fill:#b3b3b3;fill-opacity:1;fill-rule:evenodd"
               d="m 37.079,37.858 c 0.066,-0.57 0.857,-0.81 1.347,-1.097 1.538,-0.903 3.105,-1.907 4.738,-2.843 5.258,-3.014 10.618,-6.149 15.962,-9.277 1.256,-0.735 2.381,-1.631 3.791,-1.945 1.805,-0.403 3.865,1.032 4.19,2.444 0.285,1.236 0.1,2.835 0.1,4.34 0.001,10.194 0.082,20.744 -0.049,30.476 -0.222,0.641 -0.926,0.857 -1.447,1.147 -1.591,0.886 -3.179,1.9 -4.788,2.843 -5.345,3.13 -10.798,6.204 -16.211,9.327 -0.523,0.302 -1.076,0.612 -1.596,0.948 -0.465,0.3 -0.956,0.835 -1.596,0.748 -0.361,-0.581 -0.139,-1.285 -0.149,-1.945 -0.146,-9.08 -0.051,-18.505 -0.05,-27.833 0,-1.417 0.191,-2.894 0,-4.09 -0.304,-1.883 -1.917,-3.32 -4.242,-3.243 z"
               id="path3122" />
            <path
               inkscape:connector-curvature="0"
               style="fill:#b3b3b3;fill-opacity:1;fill-rule:evenodd"
               d="m 0.268,27.732 c 7.328,3.988 14.293,8.338 21.498,12.42 1.697,0.962 3.596,2.056 5.337,3.143 1.271,0.793 2.88,1.938 4.838,0.898 0.385,-0.24 0.736,-0.504 1.047,-0.848 0.282,-0.312 0.475,-0.828 0.898,-0.848 0.19,8.671 0.1,18.262 0.1,27.234 0,1.346 0.179,3.129 -0.1,4.04 -0.476,1.556 -2.579,2.997 -4.789,2.195 C 27.809,75.498 26.696,74.56 25.456,73.871 19.347,70.476 13.553,66.824 7.25,63.396 5.414,62.397 3.692,61.382 1.763,60.254 1.138,59.888 0.215,59.515 0.067,59.107 c -0.128,-0.354 -0.034,-1.24 -0.05,-1.896 -0.045,-1.879 0.05,-4.008 0.05,-5.936 0,-5.328 -0.045,-10.252 0,-15.812 0.014,-1.773 -0.023,-3.876 -0.05,-5.736 -0.009,-0.633 -0.012,-1.55 0.1,-1.845 0.029,-0.071 0.079,-0.122 0.151,-0.15 z"
               id="path3124" />
          </g>
          <g
             id="Layer_1-7"
             style="fill:#b3b3b3;fill-opacity:1" />
        </g>
      </g>
    </g>
  </g>
</svg>
