<?xml version="1.0" encoding="UTF-8" standalone="no"?>
<!-- Created with Inkscape (http://www.inkscape.org/) -->

<svg
   xmlns:dc="http://purl.org/dc/elements/1.1/"
   xmlns:cc="http://creativecommons.org/ns#"
   xmlns:rdf="http://www.w3.org/1999/02/22-rdf-syntax-ns#"
   xmlns:svg="http://www.w3.org/2000/svg"
   xmlns="http://www.w3.org/2000/svg"
   xmlns:sodipodi="http://sodipodi.sourceforge.net/DTD/sodipodi-0.dtd"
   xmlns:inkscape="http://www.inkscape.org/namespaces/inkscape"
   width="27.297785mm"
   height="27.599409mm"
   viewBox="0 0 27.297785 27.599409"
   version="1.1"
   id="svg8"
   sodipodi:docname="drawing.svg"
   inkscape:version="0.92.1 r15371">
  <defs
     id="defs2" />
  <sodipodi:namedview
     id="base"
     pagecolor="#ffffff"
     bordercolor="#666666"
     borderopacity="1.0"
     inkscape:pageopacity="0.0"
     inkscape:pageshadow="2"
     inkscape:zoom="3.959798"
     inkscape:cx="17.03897"
     inkscape:cy="92.983446"
     inkscape:document-units="mm"
     inkscape:current-layer="layer5"
     showgrid="false"
     inkscape:window-width="1920"
     inkscape:window-height="1057"
     inkscape:window-x="1358"
     inkscape:window-y="-8"
     inkscape:window-maximized="1"
     fit-margin-top="0"
     fit-margin-left="0"
     fit-margin-right="0"
     fit-margin-bottom="0" />
  <metadata
     id="metadata5">
    <rdf:RDF>
      <cc:Work
         rdf:about="">
        <dc:format>image/svg+xml</dc:format>
        <dc:type
           rdf:resource="http://purl.org/dc/dcmitype/StillImage" />
        <dc:title></dc:title>
      </cc:Work>
    </rdf:RDF>
  </metadata>
  <g
     inkscape:groupmode="layer"
     id="layer3"
     inkscape:label="Layer 3"
     transform="translate(-0.8791917,-1.1055278)" />
  <g
     inkscape:groupmode="layer"
     id="layer2"
     inkscape:label="Layer 2"
     transform="translate(-0.8791917,-1.1055278)">
    <rect
       style="opacity:1;fill:#ffffff;fill-opacity:1;stroke-width:0.26458332"
       id="rect4537"
       width="9.5438995"
       height="11.90625"
       x="65.011902"
       y="58.827751" />
    <rect
       style="opacity:1;fill:#fffffe;fill-opacity:1;stroke-width:0.26458332"
       id="rect4542"
       width="4.9609375"
       height="6.8508182"
       x="79.563988"
       y="60.481396" />
    <rect
       style="opacity:1;fill:#fffffe;fill-opacity:1;stroke-width:0.26458332"
       id="rect4546"
       width="8.5070419"
       height="10.175754"
       x="78.899948"
       y="57.203705" />
    <rect
       style="opacity:1;fill:#ffffff;fill-opacity:1;stroke-width:0.26644006"
       id="rect4549"
       width="10.205359"
       height="8.9769306"
       x="78.908012"
       y="58.31628" />
  </g>
  <g
     inkscape:groupmode="layer"
     id="layer4"
     inkscape:label="Layer 4">
    <rect
       style="opacity:1;fill:#ffffff;fill-opacity:1;stroke-width:0.26458332"
       id="rect4555"
       width="10.016369"
       height="11.622767"
       x="3.0710564"
       y="7.5666709" />
    <rect
       style="opacity:1;fill:#ffffff;fill-opacity:1;stroke-width:0.26458332"
       id="rect4557"
       width="3.8742559"
       height="6.8035712"
       x="17.481398"
       y="7.0469542" />
  </g>
  <g
     inkscape:groupmode="layer"
     id="layer5"
     inkscape:label="Layer 5">
    <rect
       style="opacity:1;fill:#ffffff;fill-opacity:1;stroke-width:0.28613618"
       id="rect4564"
       width="10.217173"
       height="11.977121"
       x="17.082159"
       y="6.9760838"
       ry="0" />
  </g>
  <g
     inkscape:label="Layer 1"
     inkscape:groupmode="layer"
     id="layer1"
     transform="translate(-0.8791917,-1.1055278)">
    <g
       id="g4508"
       transform="matrix(0.26458265,0,0,0.26458265,0.8791917,1.1055278)">
      <path
         id="path4485"
         d="m 64.567,22.116 v 20.405 l 7.13,4.49 c 0.188,0.054 0.596,0.058 0.784,0 l 30.688,-20.69 c 0,-2.45 -2.284,-4.205 -3.573,-4.205 h -35.03 z"
         inkscape:connector-curvature="0"
         style="fill:#0072c6" />
      <path
         id="path4487"
         d="m 64.567,50.133 6.507,4.47 c 0.917,0.674 2.022,0 2.022,0 -1.101,0.674 30.077,-20.036 30.077,-20.036 V 72.07 c 0,4.083 -2.613,5.795 -5.551,5.795 h -33.06 v -27.73 z"
         inkscape:connector-curvature="0"
         style="fill:#0072c6" />
      <g
         id="g4493"
         style="fill:#0072c6">
        <path
           id="path4489"
           d="m 30.873,40.726 c -2.218,0 -3.985,1.042 -5.29,3.123 -1.304,2.08 -1.958,4.834 -1.958,8.263 0,3.479 0.654,6.229 1.959,8.25 1.304,2.026 3.016,3.033 5.132,3.033 2.182,0 3.914,-0.983 5.191,-2.95 1.278,-1.967 1.92,-4.698 1.92,-8.188 0,-3.64 -0.619,-6.473 -1.861,-8.498 -1.242,-2.022 -2.938,-3.033 -5.093,-3.033 z"
           inkscape:connector-curvature="0" />
        <path
           id="path4491"
           d="M 0,11.754 V 91.58 l 60.727,12.733 V 0 Z m 40.636,53.408 c -2.566,3.377 -5.912,5.07 -10.041,5.07 -4.024,0 -7.3,-1.638 -9.834,-4.91 -2.531,-3.275 -3.8,-7.537 -3.8,-12.795 0,-5.552 1.285,-10.042 3.859,-13.47 2.574,-3.428 5.982,-5.144 10.225,-5.144 4.008,0 7.252,1.638 9.724,4.92 2.476,3.284 3.715,7.61 3.715,12.98 0.003,5.521 -1.282,9.972 -3.848,13.349 z"
           inkscape:connector-curvature="0" />
      </g>
    </g>
  </g>
</svg>
