<?xml version="1.0" encoding="UTF-8" standalone="no"?>
<!-- Created with Inkscape (http://www.inkscape.org/) -->

<svg
   xmlns:dc="http://purl.org/dc/elements/1.1/"
   xmlns:cc="http://creativecommons.org/ns#"
   xmlns:rdf="http://www.w3.org/1999/02/22-rdf-syntax-ns#"
   xmlns:svg="http://www.w3.org/2000/svg"
   xmlns="http://www.w3.org/2000/svg"
   xmlns:sodipodi="http://sodipodi.sourceforge.net/DTD/sodipodi-0.dtd"
   xmlns:inkscape="http://www.inkscape.org/namespaces/inkscape"
   width="191.61151mm"
   height="203.01776mm"
   viewBox="0 0 191.61151 203.01776"
   version="1.1"
   id="svg8"
   inkscape:version="0.92.1 r15371"
   sodipodi:docname="multi.svg">
  <defs
     id="defs2">
    <inkscape:path-effect
       effect="skeletal"
       id="path-effect4612"
       is_visible="true"
       pattern="m 6.047619,5 c 0,-2.76 2.24,-5 5,-5 2.76,0 5,2.24 5,5 0,2.76 -2.24,5 -5,5 -2.76,0 -5,-2.24 -5,-5 z"
       copytype="single_stretched"
       prop_scale="0.26458333"
       scale_y_rel="false"
       spacing="0"
       normal_offset="0"
       tang_offset="0"
       prop_units="false"
       vertical_pattern="false"
       fuse_tolerance="0" />
    <inkscape:path-effect
       effect="spiro"
       id="path-effect4610"
       is_visible="true" />
    <inkscape:path-effect
       effect="skeletal"
       id="path-effect6689"
       is_visible="true"
       pattern="m 2.2678571,-10.119048 c 0,-2.76 2.24,-5 5,-5 2.7599999,0 4.9999999,2.24 4.9999999,5 0,2.7600004 -2.24,5.0000004 -4.9999999,5.0000004 -2.76,0 -5,-2.24 -5,-5.0000004 z"
       copytype="single_stretched"
       prop_scale="0.26458333"
       scale_y_rel="false"
       spacing="0"
       normal_offset="0"
       tang_offset="0"
       prop_units="false"
       vertical_pattern="false"
       fuse_tolerance="0" />
    <inkscape:path-effect
       effect="spiro"
       id="path-effect6687"
       is_visible="true" />
    <inkscape:path-effect
       effect="skeletal"
       id="path-effect6683"
       is_visible="true"
       pattern="m -1.2559152,-12.83629 c 0,-2.76 2.24000004,-5 5,-5 2.76,0 5,2.24 5,5 0,2.76 -2.24,5 -5,5 -2.75999996,0 -5,-2.24 -5,-5 z"
       copytype="single_stretched"
       prop_scale="0.26458333"
       scale_y_rel="false"
       spacing="0"
       normal_offset="0"
       tang_offset="0"
       prop_units="false"
       vertical_pattern="false"
       fuse_tolerance="0" />
    <inkscape:path-effect
       effect="spiro"
       id="path-effect6681"
       is_visible="true" />
    <inkscape:path-effect
       effect="skeletal"
       id="path-effect6664"
       is_visible="true"
       pattern="m 2.2678571,-10.119048 c 0,-2.76 2.24,-5 5,-5 2.7599999,0 4.9999999,2.24 4.9999999,5 0,2.7600004 -2.24,5.0000004 -4.9999999,5.0000004 -2.76,0 -5,-2.24 -5,-5.0000004 z"
       copytype="single_stretched"
       prop_scale="0.26458333"
       scale_y_rel="false"
       spacing="0"
       normal_offset="0"
       tang_offset="0"
       prop_units="false"
       vertical_pattern="false"
       fuse_tolerance="0" />
    <inkscape:path-effect
       effect="spiro"
       id="path-effect6662"
       is_visible="true" />
    <inkscape:path-effect
       effect="skeletal"
       id="path-effect6658"
       is_visible="true"
       pattern="m -1.737889,-16.847795 c 0,-2.76 2.24000014,-5 5,-5 2.7599999,0 4.9999999,2.24 4.9999999,5 0,2.76 -2.24,5 -4.9999999,5 -2.75999986,0 -5,-2.24 -5,-5 z"
       copytype="single_stretched"
       prop_scale="0.26458333"
       scale_y_rel="false"
       spacing="0"
       normal_offset="0"
       tang_offset="0"
       prop_units="false"
       vertical_pattern="false"
       fuse_tolerance="0" />
    <inkscape:path-effect
       effect="spiro"
       id="path-effect6656"
       is_visible="true" />
    <inkscape:path-effect
       effect="skeletal"
       id="path-effect6652"
       is_visible="true"
       pattern="m 2.2678571,-10.119048 c 0,-2.76 2.24,-5 5,-5 2.7599999,0 4.9999999,2.24 4.9999999,5 0,2.7600004 -2.24,5.0000004 -4.9999999,5.0000004 -2.76,0 -5,-2.24 -5,-5.0000004 z"
       copytype="single_stretched"
       prop_scale="0.26458333"
       scale_y_rel="false"
       spacing="0"
       normal_offset="0"
       tang_offset="0"
       prop_units="false"
       vertical_pattern="false"
       fuse_tolerance="0" />
    <inkscape:path-effect
       effect="spiro"
       id="path-effect6650"
       is_visible="true" />
    <inkscape:path-effect
       effect="skeletal"
       id="path-effect6646"
       is_visible="true"
       pattern="m 3.86705,-12.213184 c 0,-2.76 2.24,-5 5,-5 2.76,0 5,2.24 5,5 0,2.7600002 -2.24,5.0000002 -5,5.0000002 -2.76,0 -5,-2.24 -5,-5.0000002 z"
       copytype="single_stretched"
       prop_scale="0.26458333"
       scale_y_rel="false"
       spacing="0"
       normal_offset="0"
       tang_offset="0"
       prop_units="false"
       vertical_pattern="false"
       fuse_tolerance="0" />
    <inkscape:path-effect
       effect="spiro"
       id="path-effect6644"
       is_visible="true" />
    <inkscape:path-effect
       effect="skeletal"
       id="path-effect6612"
       is_visible="true"
       pattern="m 0.87501084,-8.3837976 c 0,-2.7600004 2.23999996,-5.0000004 4.99999996,-5.0000004 2.76,0 5.0000002,2.24 5.0000002,5.0000004 0,2.7599999 -2.2400002,5 -5.0000002,5 -2.76,0 -4.99999996,-2.2400001 -4.99999996,-5 z"
       copytype="single_stretched"
       prop_scale="0.26458333"
       scale_y_rel="false"
       spacing="0"
       normal_offset="0"
       tang_offset="0"
       prop_units="false"
       vertical_pattern="false"
       fuse_tolerance="0" />
    <inkscape:path-effect
       effect="spiro"
       id="path-effect6610"
       is_visible="true" />
  </defs>
  <sodipodi:namedview
     id="base"
     pagecolor="#ffffff"
     bordercolor="#666666"
     borderopacity="1.0"
     inkscape:pageopacity="0.0"
     inkscape:pageshadow="2"
     inkscape:zoom="0.7"
     inkscape:cx="405.16808"
     inkscape:cy="335.27902"
     inkscape:document-units="mm"
     inkscape:current-layer="Layer_1"
     showgrid="false"
     inkscape:window-width="1366"
     inkscape:window-height="705"
     inkscape:window-x="-8"
     inkscape:window-y="305"
     inkscape:window-maximized="1"
     showguides="false"
     fit-margin-top="0"
     fit-margin-left="0"
     fit-margin-right="0"
     fit-margin-bottom="0" />
  <metadata
     id="metadata5">
    <rdf:RDF>
      <cc:Work
         rdf:about="">
        <dc:format>image/svg+xml</dc:format>
        <dc:type
           rdf:resource="http://purl.org/dc/dcmitype/StillImage" />
        <dc:title />
      </cc:Work>
    </rdf:RDF>
  </metadata>
  <g
     inkscape:groupmode="layer"
     id="layer4"
     inkscape:label="Layer 00">
    <path
       transform="translate(-10.227774,-2.5565491)"
       style="fill:#000000;stroke:none;stroke-width:0.26458332px;stroke-linecap:butt;stroke-linejoin:miter;stroke-opacity:1"
       d="m 104.50064,129.56232 c -0.20908,0.0966 -3.20235,-4.81331 -6.187244,-13.83024 -3.028517,-9.14872 -5.75667,-21.882347 -5.398758,-37.100969 10e-7,-10e-7 10e-7,-3e-6 10e-7,-5e-6 0.06842,-2.934587 0.251477,-5.927852 0.562291,-8.966904 1.792591,-17.527457 7.29371,-31.657027 12.88393,-41.713407 0.31826,-0.572502 0.63245,-1.12457 0.95899,-1.667931 0.86213,-1.472927 1.84018,-2.771585 3.1869,-3.680296 0.75473,-0.501286 1.58993,-0.810543 2.42946,-0.905633 0.94797,-0.107449 1.85673,0.09951 2.58865,0.52539 0.62072,0.367309 1.07882,0.881482 1.37134,1.424193 0.34327,0.638537 0.45562,1.305235 0.42435,1.885504 -0.041,0.748412 -0.31452,1.354966 -0.6119,1.774087 0,0 0,1e-6 0,1e-6 -0.74713,1.051471 -1.46984,1.010416 -1.47331,1.004037 -0.0511,-0.0938 0.51662,-0.412564 0.93998,-1.320861 0,-1e-6 0,-1e-6 0,-1e-6 0.17844,-0.382013 0.31665,-0.891891 0.27551,-1.457263 -0.0313,-0.437179 -0.17397,-0.92 -0.46307,-1.345844 -0.24475,-0.361725 -0.60343,-0.691144 -1.04194,-0.900707 -0.51222,-0.251715 -1.15974,-0.331929 -1.82015,-0.217118 -0.59138,0.102613 -1.18658,0.380801 -1.74364,0.792245 -1.02204,0.739598 -1.73107,1.87966 -2.5187,3.301832 -0.28763,0.534419 -0.56664,1.081531 -0.85529,1.658263 -5.07411,10.13821 -10.142316,23.956941 -11.897867,41.112892 -0.304064,2.971443 -0.492746,5.897355 -0.578284,8.766947 0,0 10e-7,4e-6 10e-7,4e-6 -0.440957,14.896185 1.905466,27.359284 4.443735,36.526284 2.486845,8.98125 4.826895,14.19601 4.525015,14.3355 z"
       id="path4608"
       inkscape:connector-curvature="0"
       inkscape:path-effect="#path-effect4610;#path-effect4612"
       inkscape:original-d="m 104.50064,129.56232 c 2.78475,-33.221823 -11.66234,-71.083486 2.68381,-101.176576 12.23362,-25.66177 2.49491,-0.605028 0.90714,-1.663097 -1.58776,-1.058068 4.76277,-2.646097 7.14375,-3.968749 2.38099,-1.322653 2.7e-4,3.703902 0,5.556249"
       sodipodi:nodetypes="csccc" />
  </g>
  <g
     inkscape:groupmode="layer"
     id="layer3"
     inkscape:label="Layer 0"
     transform="translate(-10.227774,-2.5565491)">
    <path
       style="fill:#000000;stroke:none;stroke-width:0.26458332px;stroke-linecap:butt;stroke-linejoin:miter;stroke-opacity:1;fill-opacity:0.80402011"
       d="m 97.060174,131.29757 c -0.128468,0.25303 -3.35637,-1.36123 -9.182919,-2.68248 -5.788823,-1.3127 -14.399028,-2.18738 -23.845176,0.5191 0,1e-5 -4e-6,0 -4e-6,0 -5.387914,1.5405 -10.853924,4.21741 -15.843878,8.13627 -4.243051,3.33228 -7.702884,7.21985 -10.338064,11.32559 -1.054159,1.66096 -1.936828,3.24591 -2.380756,4.90832 -0.46127,1.75915 -0.480945,3.53944 0.14702,4.97939 0.32413,0.76678 0.800393,1.44415 1.387779,1.94133 0.615863,0.5224 1.354037,0.87202 2.0898,0.97867 0.779395,0.11503 1.580958,-0.0184 2.212284,-0.36693 0.680329,-0.37141 1.210373,-0.99254 1.437096,-1.65825 0.294848,-0.75242 0.190097,-1.74363 0.0865,-2.65304 -0.158181,-1.11893 -0.325401,-2.11947 -0.198908,-3.23823 0.07229,-0.61276 0.255797,-1.18913 0.5431,-1.69352 0,0 10e-7,0 10e-7,0 0.326634,-0.57491 0.797163,-1.01057 1.319024,-1.27665 0.630326,-0.32055 1.300309,-0.33913 1.8405,-0.17378 0.326629,0.1027 0.598374,0.2749 0.806415,0.47375 0.254262,0.24336 0.40592,0.52458 0.482808,0.78034 0.292448,0.98501 -0.299904,1.22132 -0.256716,1.239 -0.08804,-0.036 0.05998,-0.4956 -0.256708,-1.02888 -0.09284,-0.15875 -0.233807,-0.31869 -0.423097,-0.44235 -0.154735,-0.1014 -0.345437,-0.17752 -0.556304,-0.20947 -0.344678,-0.0563 -0.761398,0.0297 -1.12803,0.26865 -0.309515,0.20031 -0.574969,0.52532 -0.761267,0.92873 0,0 -10e-7,1e-5 -10e-7,1e-5 -0.165299,0.35881 -0.249103,0.78122 -0.270448,1.25016 -0.04574,0.87614 0.18773,1.6921 0.414162,2.86087 0.209674,0.95357 0.377803,2.16374 0.0449,3.43727 -0.326294,1.1175 -1.078248,2.13718 -2.158306,2.7913 -0.997169,0.60019 -2.205481,0.87723 -3.430963,0.74147 -1.146788,-0.12881 -2.264101,-0.58899 -3.202759,-1.33862 -0.888119,-0.71018 -1.604869,-1.63998 -2.08571,-2.7039 -0.887976,-2.00766 -0.983733,-4.31381 -0.415554,-6.49667 0.521897,-2.03591 1.47421,-3.88334 2.579375,-5.64557 2.72352,-4.38949 6.350261,-8.53583 10.837885,-12.06065 5.27824,-4.14581 11.090782,-6.91914 16.819597,-8.44474 0,0 4e-6,0 4e-6,0 10.051168,-2.671 19.026496,-1.38043 24.895084,0.39736 5.954778,1.80389 8.868512,4.00592 8.792237,4.15615 z"
       id="path6608"
       inkscape:connector-curvature="0"
       inkscape:path-effect="#path-effect6610;#path-effect6612"
       inkscape:original-d="m 97.060174,131.29757 c -20.092212,5.54146 -40.184686,11.08319 -60.277424,16.62518 -20.092741,5.54199 4.535977,7.81124 6.80357,11.71726 2.267593,3.90602 2.520106,-5.29193 3.779763,-7.9375 1.259655,-2.64557 2.65e-4,0.75569 0,1.13393" />
    <path
       style="fill:#000000;stroke:none;stroke-width:0.26458332px;stroke-linecap:butt;stroke-linejoin:miter;stroke-opacity:1;fill-opacity:0.80402011"
       d="M 100.05221,127.46818 C 99.558171,127.99411 87.424662,117.87247 75.728197,102.18775 69.794428,94.230689 65.391771,86.832898 62.399712,81.052206 c -0.293419,-0.55905 -0.521386,-1.020014 -0.81193,-1.414214 -0.315006,-0.416843 -0.638226,-0.743345 -1.000945,-0.910607 -0.1932,-0.09388 -0.389467,-0.154152 -0.576086,-0.169595 -0.198855,-0.01665 -0.392848,0.0056 -0.555369,0.06884 -0.17576,0.06766 -0.331163,0.17681 -0.432899,0.307094 -0.113369,0.142927 -0.182581,0.320019 -0.189641,0.480539 -0.01033,0.156632 0.03273,0.319952 0.105844,0.449921 0.08589,0.154687 0.223247,0.277874 0.363925,0.354044 0.183016,0.100066 0.387084,0.129674 0.553816,0.123386 0,0 0,0 0,0 0.398501,-0.01402 0.636645,-0.188915 0.707056,-0.126233 0.02623,0.02335 0.03103,0.400222 -0.565246,0.657539 0,-10e-7 -1e-6,0 -1e-6,0 -0.234208,0.100602 -0.565016,0.164021 -0.939814,0.07787 -0.289672,-0.06726 -0.601863,-0.224971 -0.858286,-0.505725 -0.21702,-0.238853 -0.386277,-0.559476 -0.441734,-0.94046 -0.05359,-0.392743 0.01187,-0.821492 0.229719,-1.212396 0.195383,-0.348764 0.490842,-0.65444 0.870175,-0.863408 0.346943,-0.190689 0.743575,-0.303913 1.159695,-0.317449 0.386522,-0.01256 0.778068,0.04922 1.151095,0.185901 0.683579,0.258833 1.281919,0.704289 1.754205,1.264536 0.437595,0.509681 0.769712,1.038978 1.095617,1.572727 3.451534,5.579803 7.910206,12.532808 13.830322,20.471522 11.46867,15.37918 22.70295,26.32989 22.20298,26.86214 z"
       id="path6642"
       inkscape:connector-curvature="0"
       inkscape:path-effect="#path-effect6644;#path-effect6646"
       inkscape:original-d="M 100.05221,127.46818 C 87.771509,111.84297 75.490543,96.218032 63.20931,80.593362 50.928079,64.968687 59.933782,79.837146 58.295622,79.459434 c -1.638163,-0.377711 1.512168,0.503704 2.267855,0.755952" />
    <path
       style="fill:#000000;stroke:none;stroke-width:0.26458332px;stroke-linecap:butt;stroke-linejoin:miter;stroke-opacity:1;fill-opacity:0.80402011"
       d="m 101.47683,133.34208 c 0.078,-0.72607 17.45791,0.54603 38.79434,2.83951 21.33644,2.29348 38.58962,4.74412 38.51157,5.47019 -0.078,0.72607 -17.45791,-0.54603 -38.79434,-2.83951 -21.33643,-2.29348 -38.58962,-4.74412 -38.51157,-5.47019 z"
       id="path6648"
       inkscape:connector-curvature="0"
       inkscape:path-effect="#path-effect6650;#path-effect6652"
       inkscape:original-d="m 101.47683,133.34208 c 25.7689,2.76963 54.08819,14.15191 77.30591,8.3097 23.5485,-5.92543 0,0 0,0"
       sodipodi:nodetypes="csc" />
    <path
       style="fill:#000000;stroke:none;stroke-width:0.26458332px;stroke-linecap:butt;stroke-linejoin:miter;stroke-opacity:1;fill-opacity:0.80402011"
       d="m 99.566265,123.46062 c -0.611728,-0.39882 4.393665,-9.16158 11.172745,-19.55974 6.77909,-10.39816 12.77743,-18.51357 13.38915,-18.114754 0.61173,0.398816 -4.39366,9.16158 -11.17274,19.559744 -6.77909,10.39816 -12.77743,18.51357 -13.389155,18.11475 z"
       id="path6654"
       inkscape:connector-curvature="0"
       inkscape:path-effect="#path-effect6656;#path-effect6658"
       inkscape:original-d="M 99.566265,123.46062 C 107.62783,110.90219 115.94112,98.344032 124.12816,85.786132" />
    <path
       style="fill:#000000;stroke:none;stroke-width:0.26458332px;stroke-linecap:butt;stroke-linejoin:miter;stroke-opacity:1;fill-opacity:0.80402011"
       d="m 100.04825,127.47213 c -0.08757,-0.35447 6.97604,-2.12293 17.64653,-6.7423 10.94411,-4.73783 24.60139,-12.22601 38.13756,-24.202758 11.49733,-10.172795 19.78542,-20.829451 25.72167,-30.320524 1.06105,-1.720522 1.94365,-3.201535 2.34231,-4.816982 0.21689,-0.860365 0.3004,-1.703507 0.21255,-2.495118 -0.095,-0.852146 -0.36698,-1.6392 -0.80035,-2.267155 -0.54538,-0.80332 -1.35407,-1.373101 -2.17702,-1.653195 -0.96608,-0.331218 -1.98003,-0.284855 -2.80364,-0.01904 -1.06363,0.341177 -1.85531,1.040083 -2.34016,1.706393 -1.14468,1.569019 -0.962,2.885397 -1.10671,2.898089 0.0977,-0.0086 -0.80464,-1.156736 0.403,-3.341511 0.47343,-0.854385 1.33191,-1.801553 2.63683,-2.348415 1.01504,-0.423696 2.29659,-0.588801 3.61231,-0.236581 1.12235,0.302466 2.24181,0.984119 3.06319,2.055185 0.63692,0.839806 1.06653,1.864982 1.23408,2.975964 0.15523,1.025899 0.10729,2.092249 -0.12046,3.146542 -0.43146,1.95873 -1.33882,3.694173 -2.38291,5.464902 -5.70878,9.821102 -14.02882,20.869478 -25.7407,31.233664 -13.7868,12.200338 -27.92498,19.615278 -39.18421,23.951478 -11.04692,4.25443 -18.29677,5.24248 -18.35387,5.01136 z"
       id="path6679"
       inkscape:connector-curvature="0"
       inkscape:path-effect="#path-effect6681;#path-effect6683"
       inkscape:original-d="m 100.04825,127.47213 c 25.1965,-21.75585 57.1963,-38.975718 82.39227,-60.731042 25.19596,-21.755322 -1.25966,-8.567723 1.5119,-10.583332 2.77156,-2.015609 -6.04735,2.267593 -9.07143,3.401785"
       sodipodi:nodetypes="cssc" />
    <path
       style="fill:#000000;stroke:none;stroke-width:0.26458332px;stroke-linecap:butt;stroke-linejoin:miter;stroke-opacity:1;fill-opacity:0.80402011"
       d="M 98.45302,129.56232 C 98.327196,129.78808 89.374308,125.60406 76.01451,116.83027 62.370243,107.86966 45.34586,94.850033 28.201742,76.956554 27.545469,76.271596 26.895147,75.585888 26.250751,74.899549 19.850647,68.127043 14.322102,61.305074 11.661138,53.047435 10.229414,48.567431 9.844335,43.96256 10.6231,39.667237 c 0,0 3e-6,-5e-6 3e-6,-5e-6 0.868403,-4.789127 3.229569,-8.945187 6.448111,-11.799017 5.10639,-4.49328 11.650502,-5.16715 16.343875,-3.98014 5.305295,1.3526 8.59046,4.837101 10.136001,7.119047 1.653264,2.440996 1.864744,4.032001 1.806053,4.055379 -0.134124,0.05342 -0.705881,-1.413138 -2.469103,-3.561503 -1.668903,-2.033444 -4.955192,-5.089462 -9.823856,-6.106099 -4.294543,-0.90622 -10.217388,-0.06422 -14.605636,4.010692 -2.798435,2.575909 -4.814525,6.355609 -5.541561,10.663929 10e-7,1e-6 -1e-6,6e-6 -1e-6,6e-6 -0.654648,3.878144 -0.227404,8.077746 1.123745,12.208896 2.482384,7.657625 7.838074,14.069661 14.137088,20.810119 0.639234,0.679553 1.284014,1.358776 1.934379,2.037573 17.020273,17.764374 33.625763,30.818056 46.952503,40.156166 12.987218,9.10021 21.566071,13.9611 21.388319,14.28004 z"
       id="path6685"
       inkscape:connector-curvature="0"
       inkscape:path-effect="#path-effect6687;#path-effect6689"
       inkscape:original-d="M 98.45302,129.56232 C 70.801287,112.17322 55.118532,91.256622 27.214285,73.994045 -0.68996156,56.731472 16.001257,44.511638 17.764881,28.636903 19.528505,12.762167 57.956613,28.63664 45.357142,35.062498"
       sodipodi:nodetypes="cssc" />
    <circle
       style="opacity:1;fill:#ff9f1c;fill-opacity:1;stroke:none;stroke-width:0.89810383;stroke-opacity:0.89019608"
       id="path7102-0-7"
       cx="100.27888"
       cy="-127.76913"
       r="13.792308"
       transform="scale(1,-1)" />
  </g>
  <g
     inkscape:label="Layer 1"
     inkscape:groupmode="layer"
     id="layer1"
     transform="translate(-10.227774,-2.5565491)">
    <g
       id="g6072"
       transform="matrix(0.03968218,0,0,0.03943758,3.922132,8.3864134)">
      <g
         class="st0"
         id="Layer_3"
         style="display:none">
        <rect
           id="rect5876"
           height="5000"
           width="5000"
           class="st1"
           x="0"
           y="0"
           style="display:inline;fill:#86cccc" />
      </g>
      <g
         id="Layer_4" />
      <g
         id="Layer_1">
        <path
           id="path5880"
           d="M 3424.9,4385.9 3021,4692.4 2901.1,4520 c 0,0 -447.7,59.9 -719.3,-1.9 0,0 -44.3,0 -439,-224.8 0,0 -74.9,-50 -332.2,-307.2 0,0 27.5,-181.7 287.9,-84.3 0,0 182.6,280.9 503.8,299.7 0,0 367,-3 432.2,-73.1 0,0 -43.7,-44.3 -112.4,-46.8 -68.7,-2.5 -227.4,7 -317.5,-44.5 0,0 -102.9,-69.3 -40.4,-149.9 6.7,-8.6 12.8,-12.6 28.1,-12.9 l 482.7,5.1 372.3,38.5 c 40.8,1.7 128.7,52.6 156.4,82.6 55.5,60.2 129.5,145.6 221.2,385.4 z"
           class="st2"
           inkscape:connector-curvature="0"
           style="fill:#eecaae;opacity:1;fill-opacity:1" />
        <path
           id="path5882"
           d="m 2276.9,4201.5 c 0,0 -345.4,42 -578.4,-299.7 0,0 7.6,-27.2 86.8,0 0,-0.1 191,251.7 491.6,299.7 z"
           class="st3"
           inkscape:connector-curvature="0"
           style="fill:#a67c52" />
        <polygon
           id="polygon5884"
           points="3636.3,4487.2 4040.1,5000 3163.9,5000 3095.7,4913.4 3346.6,4715.5 3635.3,4487.9 "
           class="st4"
           style="fill:#333333" />
        <polygon
           id="polygon5886"
           points="3635.3,4487.9 4039,5000 3570.9,5000 3346.6,4715.5 "
           class="st5"
           style="fill:#4d4d4d" />
        <path
           id="path5888"
           d="m 3131.3,4907.2 490.6,-386.8 c 31.7,-25 37.2,-71.3 12.2,-103 l -121,-153.4 c -25,-31.7 -71.3,-37.2 -103,-12.2 l -490.6,386.8 c -31.7,25 -37.2,71.3 -12.2,103 l 121,153.4 c 25,31.7 71.4,37.1 103,12.2 z"
           class="st6"
           inkscape:connector-curvature="0"
           style="fill:#c1e0da" />
        <path
           id="path5890"
           d="m 3145.6,4460.3 264.5,-208.5 c 31.7,-25 78,-19.5 103,12.2 l 121,153.4 c 18.1,23 20.1,53.6 7.8,78.3 -4.7,9.3 -11.3,17.8 -20,24.7 L 3357.3,4729 Z"
           class="st7"
           inkscape:connector-curvature="0"
           style="fill:#9ad1d8" />
      </g>
      <g
         id="Layer_5" />
      <g
         class="st0"
         id="Layer_2"
         style="display:none">
        <path
           id="path5894"
           d="m 2747.1,3072 c 0,78 -24.5,150.3 -66.2,209.6 -12.2,17.4 -25.9,33.7 -41,48.6 -23.6,23.5 -50.4,43.8 -79.6,60.2 -11.1,6.2 -22.5,11.8 -34.2,16.9 -44,18.9 -92.6,29.3 -143.5,29.3 -37.5,0 -73.8,-5.7 -107.9,-16.2 -11.7,-3.6 -23.1,-7.8 -34.3,-12.5 -35.4,-15 -68,-35.5 -96.7,-60.3 -8.6,-7.4 -16.8,-15.2 -24.6,-23.4 -10.5,-11 -20.4,-22.6 -29.5,-34.9 -8.9,-12 -17.2,-24.6 -24.6,-37.7 -30,-53 -47.2,-114.3 -47.2,-179.5 0,-30.7 3.8,-60.5 10.9,-89 2.3,-9.3 5,-18.4 8,-27.3 7.4,-21.9 16.8,-43 28,-62.8 7.1,-12.6 14.9,-24.7 23.4,-36.2 9.5,-12.9 19.8,-25.2 30.9,-36.8 7.8,-8.2 16,-16 24.6,-23.4 64,-55.5 147.5,-89.1 238.8,-89.1 100.5,0 191.5,40.7 257.4,106.4 15,15 28.7,31.2 41,48.6 1.2,1.6 2.3,3.3 3.4,5 5.5,8.1 10.7,16.5 15.6,25.1 30.1,52.8 47.3,114.1 47.3,179.4 z"
           class="st8"
           inkscape:connector-curvature="0"
           style="display:inline;fill:#fcfafb" />
        <path
           id="path5896"
           d="m 1082.2,622.5 c 0,91.1 -28.6,175.5 -77.3,244.7 -14.3,20.3 -30.3,39.3 -47.8,56.8 -27.5,27.5 -58.8,51.1 -93,70.3 -12.9,7.2 -26.3,13.8 -40,19.7 -51.4,22.1 -108.1,34.3 -167.6,34.3 -43.8,0 -86.1,-6.6 -125.9,-18.9 -13.6,-4.2 -27,-9.1 -40,-14.6 -41.4,-17.5 -79.4,-41.4 -112.9,-70.4 -10,-8.7 -19.6,-17.8 -28.7,-27.3 -12.3,-12.8 -23.8,-26.4 -34.4,-40.7 -10.4,-14 -20,-28.7 -28.7,-44 -35.1,-61.9 -55.1,-133.4 -55.1,-209.6 0,-35.8 4.4,-70.6 12.8,-103.9 2.7,-10.8 5.8,-21.5 9.4,-31.9 8.6,-25.6 19.6,-50.1 32.7,-73.3 8.3,-14.7 17.4,-28.8 27.3,-42.3 11.1,-15.1 23.1,-29.4 36,-42.9 9.1,-9.6 18.7,-18.7 28.7,-27.3 74.7,-64.8 172.2,-104 278.8,-104 117.3,-0.4 223.5,47.1 300.5,123.8 17.5,17.5 33.6,36.5 47.8,56.8 1.4,1.9 2.7,3.9 4,5.8 6.5,9.5 12.5,19.2 18.2,29.2 35.1,61.9 55.2,133.5 55.2,209.7 z"
           class="st8"
           inkscape:connector-curvature="0"
           style="display:inline;fill:#fcfafb" />
        <path
           id="path5898"
           d="m 4569.4,802 c 0,101.3 -31.8,195.2 -86,272.2 -15.9,22.6 -33.7,43.7 -53.2,63.2 -30.6,30.5 -65.4,56.9 -103.4,78.2 -14.4,8.1 -29.2,15.4 -44.5,21.9 -57.2,24.5 -120.2,38.1 -186.4,38.1 -48.8,0 -95.8,-7.4 -140.1,-21.1 -15.2,-4.7 -30,-10.1 -44.5,-16.3 -46,-19.5 -88.3,-46.1 -125.6,-78.4 -11.1,-9.6 -21.8,-19.8 -31.9,-30.4 -13.7,-14.3 -26.5,-29.4 -38.3,-45.3 -11.6,-15.6 -22.3,-32 -31.9,-49 -39,-68.8 -61.3,-148.4 -61.3,-233.2 0,-39.9 4.9,-78.6 14.2,-115.6 3,-12 6.5,-23.9 10.4,-35.5 9.6,-28.5 21.8,-55.8 36.4,-81.6 9.2,-16.3 19.4,-32 30.4,-47.1 12.3,-16.8 25.7,-32.7 40.1,-47.7 10.2,-10.6 20.8,-20.8 31.9,-30.4 83.1,-72.1 191.5,-115.7 310.1,-115.7 130.5,0 248.7,52.8 334.3,138.2 19.5,19.4 37.3,40.6 53.2,63.2 1.5,2.1 3,4.3 4.5,6.5 7.2,10.6 13.9,21.4 20.2,32.5 39.1,69 61.4,148.6 61.4,233.3 z"
           class="st8"
           inkscape:connector-curvature="0"
           style="display:inline;fill:#fcfafb" />
        <path
           id="path5900"
           d="m 3732.8,1507.2 c 0,74.1 -23.3,142.9 -63,199.2 -11.6,16.5 -24.7,32 -38.9,46.2 -22.4,22.4 -47.9,41.6 -75.7,57.2 -10.5,5.9 -21.4,11.2 -32.6,16 -41.9,18 -88,27.9 -136.4,27.9 -35.7,0 -70.1,-5.4 -102.5,-15.4 -11.1,-3.4 -22,-7.4 -32.6,-11.9 -33.7,-14.3 -64.7,-33.7 -91.9,-57.3 -8.1,-7.1 -15.9,-14.5 -23.4,-22.3 -10,-10.4 -19.4,-21.5 -28,-33.2 -8.5,-11.4 -16.3,-23.4 -23.4,-35.9 -28.6,-50.4 -44.9,-108.6 -44.9,-170.6 0,-29.2 3.6,-57.5 10.4,-84.6 2.2,-8.8 4.8,-17.5 7.6,-26 7,-20.9 16,-40.8 26.6,-59.7 6.7,-11.9 14.2,-23.4 22.3,-34.5 9,-12.3 18.8,-24 29.3,-34.9 7.4,-7.8 15.2,-15.2 23.4,-22.3 60.8,-52.7 140.2,-84.7 227,-84.7 95.5,0 182,38.6 244.7,101.1 14.3,14.2 27.3,29.7 38.9,46.2 1.1,1.6 2.2,3.2 3.3,4.7 5.3,7.7 10.2,15.7 14.8,23.8 28.7,50.8 45,109 45,171 z"
           class="st8"
           inkscape:connector-curvature="0"
           style="display:inline;fill:#fcfafb" />
        <path
           id="path5902"
           d="m 4794.6,3254.3 c 0,82.3 -25.8,158.5 -69.9,221 -12.9,18.3 -27.4,35.5 -43.2,51.3 -24.9,24.8 -53.1,46.2 -84,63.5 -11.7,6.5 -23.7,12.5 -36.1,17.8 -46.5,19.9 -97.6,31 -151.4,31 -39.6,0 -77.8,-6 -113.8,-17.1 -12.3,-3.8 -24.4,-8.2 -36.1,-13.2 -37.4,-15.8 -71.7,-37.4 -102,-63.6 -9,-7.8 -17.7,-16.1 -25.9,-24.7 -11.1,-11.6 -21.5,-23.9 -31.1,-36.8 -9.4,-12.7 -18.1,-26 -25.9,-39.8 -31.7,-55.9 -49.8,-120.5 -49.8,-189.3 0,-32.4 4,-63.8 11.5,-93.8 2.4,-9.8 5.3,-19.4 8.5,-28.8 7.8,-23.1 17.7,-45.3 29.5,-66.2 7.5,-13.3 15.7,-26 24.7,-38.2 10,-13.6 20.9,-26.6 32.5,-38.8 8.2,-8.6 16.9,-16.9 25.9,-24.7 67.5,-58.5 155.5,-93.9 251.8,-93.9 106,0 201.9,42.9 271.5,112.2 15.8,15.8 30.3,32.9 43.2,51.3 1.2,1.7 2.4,3.5 3.6,5.3 5.8,8.6 11.3,17.4 16.4,26.4 32,55.6 50.1,120.2 50.1,189.1 z"
           class="st8"
           inkscape:connector-curvature="0"
           style="display:inline;fill:#fcfafb" />
        <path
           id="path5904"
           d="m 1812.1,1181.2 c 0,75.2 -23.6,144.9 -63.8,202 -11.8,16.8 -25,32.5 -39.5,46.9 -22.7,22.7 -48.5,42.2 -76.8,58 -10.7,6 -21.7,11.4 -33,16.3 -42.5,18.2 -89.2,28.3 -138.4,28.3 -36.2,0 -71.1,-5.5 -104,-15.6 -11.3,-3.5 -22.3,-7.5 -33,-12.1 -34.2,-14.5 -65.6,-34.2 -93.2,-58.2 -8.3,-7.2 -16.2,-14.7 -23.7,-22.6 -10.1,-10.6 -19.6,-21.8 -28.4,-33.6 -8.6,-11.6 -16.5,-23.7 -23.7,-36.4 -29,-51.1 -45.5,-110.1 -45.5,-173 0,-29.6 3.7,-58.3 10.5,-85.8 2.2,-8.9 4.8,-17.7 7.7,-26.4 7.1,-21.2 16.2,-41.4 27,-60.5 6.8,-12.1 14.4,-23.8 22.6,-34.9 9.1,-12.5 19.1,-24.3 29.7,-35.4 7.5,-7.9 15.5,-15.4 23.7,-22.6 61.7,-53.5 142.1,-85.9 230.2,-85.9 96.9,0 184.6,39.2 248.1,102.6 14.5,14.4 27.7,30.1 39.5,46.9 1.1,1.6 2.2,3.2 3.3,4.8 5.3,7.8 10.3,15.9 15,24.1 29.2,51.1 45.7,110.2 45.7,173.1 z"
           class="st8"
           inkscape:connector-curvature="0"
           style="display:inline;fill:#fcfafb" />
        <path
           id="path5906"
           d="m 1424.1,3484 c 0,87.5 -27.5,168.7 -74.3,235.2 -13.7,19.5 -29.1,37.8 -46,54.6 -26.5,26.4 -56.5,49.2 -89.4,67.5 -12.4,7 -25.2,13.3 -38.4,18.9 -49.4,21.2 -103.9,32.9 -161.1,32.9 -42.1,0 -82.8,-6.4 -121,-18.2 -13.1,-4 -25.9,-8.7 -38.4,-14 -39.8,-16.8 -76.3,-39.8 -108.5,-67.7 -9.6,-8.3 -18.8,-17.1 -27.6,-26.3 -11.8,-12.3 -22.9,-25.4 -33.1,-39.1 -10,-13.5 -19.3,-27.6 -27.6,-42.3 -33.7,-59.5 -53,-128.2 -53,-201.4 0,-34.4 4.3,-67.9 12.3,-99.9 2.6,-10.4 5.6,-20.6 9,-30.7 8.3,-24.6 18.8,-48.2 31.4,-70.5 8,-14.1 16.7,-27.7 26.3,-40.7 10.6,-14.5 22.2,-28.3 34.6,-41.3 8.8,-9.2 18,-18 27.6,-26.3 71.8,-62.3 165.5,-100 268,-100 112.8,0 214.9,45.6 288.9,119.4 16.9,16.8 32.3,35.1 46,54.6 1.3,1.9 2.6,3.7 3.9,5.6 6.2,9.1 12,18.5 17.5,28.1 33.6,59.6 52.9,128.4 52.9,201.6 z"
           class="st8"
           inkscape:connector-curvature="0"
           style="display:inline;fill:#fcfafb" />
        <path
           id="path5908"
           d="m 2701.1,717 c 0,76.8 -24.1,147.9 -65.2,206.3 -12,17.1 -25.5,33.1 -40.3,47.9 -23.2,23.1 -49.6,43.1 -78.4,59.2 -10.9,6.1 -22.1,11.6 -33.7,16.6 -43.3,18.6 -91.1,28.9 -141.3,28.9 -37,0 -72.6,-5.6 -106.2,-16 -11.5,-3.5 -22.8,-7.7 -33.7,-12.3 -34.9,-14.8 -66.9,-34.9 -95.1,-59.4 -8.4,-7.3 -16.5,-15 -24.2,-23.1 -10.4,-10.8 -20,-22.3 -29,-34.3 -8.8,-11.8 -16.9,-24.2 -24.2,-37.1 -29.6,-52.2 -46.4,-112.4 -46.4,-176.7 0,-30.2 3.7,-59.5 10.8,-87.6 2.3,-9.1 4.9,-18.1 7.9,-26.9 7.3,-21.6 16.5,-42.3 27.6,-61.8 7,-12.4 14.7,-24.3 23,-35.7 9.3,-12.7 19.5,-24.8 30.4,-36.2 7.7,-8.1 15.8,-15.7 24.2,-23.1 63,-54.6 145.1,-87.7 235,-87.7 98.9,0 188.4,40 253.3,104.7 14.8,14.7 28.3,30.7 40.3,47.9 1.1,1.6 2.3,3.3 3.4,4.9 5.4,8 10.6,16.2 15.3,24.7 29.6,52.3 46.5,112.6 46.5,176.8 z"
           class="st8"
           inkscape:connector-curvature="0"
           style="display:inline;fill:#fcfafb" />
      </g>
      <g
         id="Layer_6" />
      <g
         id="Layer_8" />
    </g>
    <circle
       style="opacity:1;fill:#ffffff;fill-opacity:1;stroke:none;stroke-width:0.7170431;stroke-opacity:0.89019608"
       id="path7102-0-6"
       cx="100.41792"
       cy="-127.76913"
       r="11.011733"
       transform="scale(1,-1)" />
  </g>
  <g
     inkscape:groupmode="layer"
     id="layer2"
     inkscape:label="Layer 2"
     transform="translate(-10.227774,-2.5565491)">
    <circle
       style="opacity:1;fill:#ff9f1c;fill-opacity:1;stroke-width:0.17577545"
       id="path6075"
       cx="36.663692"
       cy="146.56548"
       r="17.764881" />
    <circle
       style="opacity:1;fill:#aa001d;fill-opacity:1;stroke-width:0.17577545"
       id="path6075-5"
       cx="174.24701"
       cy="138.25"
       r="17.764881" />
    <circle
       style="opacity:1;fill:#4285f4;fill-opacity:1;stroke-width:0.20569468"
       id="path6075-5-4"
       cx="181.0506"
       cy="60.764893"
       r="20.788691" />
    <circle
       style="opacity:1;fill:#aa001d;fill-opacity:1;stroke:none;stroke-width:0.20569468"
       id="path6075-5-4-9"
       cx="31.372021"
       cy="23.34524"
       r="20.788691" />
    <circle
       style="opacity:1;fill:#4285f4;fill-opacity:1;stroke-width:0.17577545"
       id="path6075-9"
       cx="66.145828"
       cy="78.529762"
       r="17.764881" />
    <circle
       style="opacity:1;fill:#ff9f1c;fill-opacity:1;stroke-width:0.17577545"
       id="path6075-9-2"
       cx="107.49146"
       cy="26.068718"
       r="17.764881" />
    <circle
       style="opacity:1;fill:#aa001d;fill-opacity:1;stroke-width:0.14959612"
       id="path6075-9-2-5"
       cx="127.75594"
       cy="79.663681"
       r="15.119048" />
    <g
       style="fill:#ffffff"
       id="g6748"
       transform="matrix(0.79374999,0,0,0.79374999,98.448237,16.670535)">
      <path
         id="path6734"
         d="M 0,0 H 24 V 24 H 0 Z"
         inkscape:connector-curvature="0"
         style="fill:none" />
      <path
         id="path6736"
         d="M 23,11.01 18,11 c -0.55,0 -1,0.45 -1,1 v 9 c 0,0.55 0.45,1 1,1 h 5 c 0.55,0 1,-0.45 1,-1 v -9 c 0,-0.55 -0.45,-0.99 -1,-0.99 z M 23,20 h -5 v -7 h 5 z M 20,2 H 2 C 0.89,2 0,2.89 0,4 v 12 c 0,1.1 0.89,2 2,2 h 7 v 2 H 7 v 2 h 8 v -2 h -2 v -2 h 2 V 16 H 2 V 4 h 18 v 5 h 2 V 4 C 22,2.89 21.1,2 20,2 Z M 11.97,9 11,6 10.03,9 H 7 l 2.47,1.76 -0.94,2.91 2.47,-1.8 2.47,1.8 L 12.53,10.76 15,9 Z"
         inkscape:connector-curvature="0" />
    </g>
    <g
       style="fill:#ffffff"
       id="g6764"
       transform="matrix(0.88821223,0,0,0.88821223,117.43509,69.299089)">
      <path
         id="path6750"
         d="m 5,17 v 2 h 14 v -2 z m 4.5,-4.2 h 5 l 0.9,2.2 h 2.1 L 12.75,4 h -1.5 L 6.5,15 H 8.6 Z M 12,5.98 13.87,11 h -3.74 z"
         inkscape:connector-curvature="0" />
      <path
         id="path6752"
         d="M 0,0 H 24 V 24 H 0 Z"
         inkscape:connector-curvature="0"
         style="fill:none" />
    </g>
    <g
       style="fill:#ffffff"
       id="g6780"
       transform="matrix(0.95502964,0,0,0.95502964,19.881711,12.098039)">
      <path
         id="path6766"
         d="M 20,4 H 4 C 2.9,4 2.01,4.9 2.01,6 L 2,18 c 0,1.1 0.9,2 2,2 h 16 c 1.1,0 2,-0.9 2,-2 V 6 C 22,4.9 21.1,4 20,4 Z M 20,8 12,13 4,8 V 6 l 8,5 8,-5 z"
         inkscape:connector-curvature="0" />
      <path
         id="path6768"
         d="M 0,0 H 24 V 24 H 0 Z"
         inkscape:connector-curvature="0"
         style="fill:none" />
    </g>
    <g
       style="fill:#ffffff"
       id="g6830"
       transform="matrix(0.96920299,0,0,0.96920299,24.522482,135.14458)">
      <path
         id="path6820"
         d="m 23,8 c 0,1.1 -0.9,2 -2,2 -0.18,0 -0.35,-0.02 -0.51,-0.07 l -3.56,3.55 C 16.98,13.64 17,13.82 17,14 c 0,1.1 -0.9,2 -2,2 -1.1,0 -2,-0.9 -2,-2 0,-0.18 0.02,-0.36 0.07,-0.52 L 10.52,10.93 C 10.36,10.98 10.18,11 10,11 9.82,11 9.64,10.98 9.48,10.93 L 4.93,15.49 C 4.98,15.65 5,15.82 5,16 5,17.1 4.1,18 3,18 1.9,18 1,17.1 1,16 c 0,-1.1 0.9,-2 2,-2 0.18,0 0.35,0.02 0.51,0.07 L 8.07,9.52 C 8.02,9.36 8,9.18 8,9 8,7.9 8.9,7 10,7 c 1.1,0 2,0.9 2,2 0,0.18 -0.02,0.36 -0.07,0.52 l 2.55,2.55 C 14.64,12.02 14.82,12 15,12 c 0.18,0 0.36,0.02 0.52,0.07 L 19.07,8.51 C 19.02,8.35 19,8.18 19,8 c 0,-1.1 0.9,-2 2,-2 1.1,0 2,0.9 2,2 z"
         clip-path="url(#b)"
         inkscape:connector-curvature="0" />
    </g>
    <g
       style="fill:#ffffff"
       id="g6864"
       transform="matrix(0.75457746,0,0,0.75457746,57.299445,69.026447)">
      <path
         id="path6850"
         d="M 0,0 H 24 V 24 H 0 Z m 10,5 h 4 v 2 h -4 z m 0,0 h 4 v 2 h -4 z"
         inkscape:connector-curvature="0"
         style="fill:none" />
      <path
         id="path6852"
         d="M 10,16 V 15 H 3.01 L 3,19 c 0,1.11 0.89,2 2,2 h 14 c 1.11,0 2,-0.89 2,-2 v -4 h -7 v 1 z M 20,7 H 15.99 V 5 l -2,-2 h -4 l -2,2 V 7 H 4 C 2.9,7 2,7.9 2,9 v 3 c 0,1.11 0.89,2 2,2 h 6 v -2 h 4 v 2 h 6 c 1.1,0 2,-0.9 2,-2 V 9 C 22,7.9 21.1,7 20,7 Z M 14,7 H 10 V 5 h 4 z"
         inkscape:connector-curvature="0" />
    </g>
    <g
       style="fill:#ffffff"
       id="g6880"
       transform="matrix(0.66548762,0,0,0.66548762,166.61269,129.96927)">
      <path
         id="path6866"
         d="M 19,3 H 5 C 3.9,3 3,3.9 3,5 v 14 c 0,1.1 0.9,2 2,2 h 14 c 1.1,0 2,-0.9 2,-2 V 5 C 21,3.9 20.1,3 19,3 Z M 9,17 H 7 v -7 h 2 z m 4,0 H 11 V 7 h 2 z m 4,0 h -2 v -4 h 2 z"
         inkscape:connector-curvature="0" />
      <path
         id="path6868"
         d="M 0,0 H 24 V 24 H 0 Z"
         inkscape:connector-curvature="0"
         style="fill:none" />
    </g>
    <g
       style="fill:#ffffff"
       id="g6896"
       transform="matrix(0.84366731,0,0,0.84366731,172.24145,50.590223)">
      <path
         id="path6882"
         d="M 0,0 H 24 V 24 H 0 Z"
         inkscape:connector-curvature="0"
         style="fill:none" />
      <path
         id="path6884"
         d="M 14,2 H 6 C 4.9,2 4.01,2.9 4.01,4 L 4,20 c 0,1.1 0.89,2 1.99,2 H 18 c 1.1,0 2,-0.9 2,-2 V 8 Z m 2,16 H 8 v -2 h 8 z m 0,-4 H 8 v -2 h 8 z M 13,9 V 3.5 L 18.5,9 Z"
         inkscape:connector-curvature="0" />
    </g>
    <circle
       style="opacity:1;fill:#ff9f1c;fill-opacity:1;stroke:none;stroke-width:0.52692938;stroke-opacity:0.89019608"
       id="path7102-0"
       cx="100.30735"
       cy="-127.74065"
       r="8.0921297"
       transform="scale(1,-1)" />
  </g>
  <g
     inkscape:groupmode="layer"
     id="layer6"
     inkscape:label="Layer 3">
    <circle
       style="opacity:1;fill:#ffffff;fill-opacity:1;stroke:none;stroke-width:0.38928047;stroke-opacity:0.89019608"
       id="path7102"
       cx="90.051109"
       cy="125.21255"
       r="5.9782357" />
    <circle
       style="opacity:1;fill:#ff9f1c;fill-opacity:1;stroke:none;stroke-width:0.22179931;stroke-opacity:0.89019608"
       id="path7102-6"
       cx="89.981606"
       cy="125.14307"
       r="3.406204" />
  </g>
  <g
     inkscape:groupmode="layer"
     id="layer7"
     inkscape:label="Layer 4">
    <g
       transform="matrix(0.05838424,0,0,0.05802437,-49.262461,-52.840931)"
       id="Layer_12">
      <radialGradient
         gradientUnits="userSpaceOnUse"
         r="366.62451"
         cy="3070.5854"
         cx="2384.4558"
         id="SVGID_1_-7">
        <stop
           id="stop5913"
           style="stop-color:#FFFFFF"
           offset="0" />
        <stop
           id="stop5915"
           style="stop-color:#FFEDD8"
           offset="8.510864e-02" />
        <stop
           id="stop5917"
           style="stop-color:#FFD5A7"
           offset="0.2082" />
        <stop
           id="stop5919"
           style="stop-color:#FFC17D"
           offset="0.3345" />
        <stop
           id="stop5921"
           style="stop-color:#FFB05B"
           offset="0.462" />
        <stop
           id="stop5923"
           style="stop-color:#FFA340"
           offset="0.591" />
        <stop
           id="stop5925"
           style="stop-color:#FF9A2D"
           offset="0.7222" />
        <stop
           id="stop5927"
           style="stop-color:#FF9522"
           offset="0.8568" />
        <stop
           id="stop5929"
           style="stop-color:#FF931E"
           offset="1" />
      </radialGradient>
      <radialGradient
         gradientUnits="userSpaceOnUse"
         r="241.5488"
         cy="3070.5867"
         cx="2384.4565"
         id="SVGID_2_">
        <stop
           id="stop5936"
           style="stop-color:#FFFFFF"
           offset="0" />
        <stop
           id="stop5938"
           style="stop-color:#FFEDD8"
           offset="8.510864e-02" />
        <stop
           id="stop5940"
           style="stop-color:#FFD5A7"
           offset="0.2082" />
        <stop
           id="stop5942"
           style="stop-color:#FFC17D"
           offset="0.3345" />
        <stop
           id="stop5944"
           style="stop-color:#FFB05B"
           offset="0.462" />
        <stop
           id="stop5946"
           style="stop-color:#FFA340"
           offset="0.591" />
        <stop
           id="stop5948"
           style="stop-color:#FF9A2D"
           offset="0.7222" />
        <stop
           id="stop5950"
           style="stop-color:#FF9522"
           offset="0.8568" />
        <stop
           id="stop5952"
           style="stop-color:#FF931E"
           offset="1" />
      </radialGradient>
      <radialGradient
         gradientUnits="userSpaceOnUse"
         r="127.8033"
         cy="3071.6128"
         cx="2384.4565"
         id="SVGID_3_">
        <stop
           id="stop5959"
           style="stop-color:#FFFFFF"
           offset="0" />
        <stop
           id="stop5961"
           style="stop-color:#FFEDD8"
           offset="8.510864e-02" />
        <stop
           id="stop5963"
           style="stop-color:#FFD5A7"
           offset="0.2082" />
        <stop
           id="stop5965"
           style="stop-color:#FFC17D"
           offset="0.3345" />
        <stop
           id="stop5967"
           style="stop-color:#FFB05B"
           offset="0.462" />
        <stop
           id="stop5969"
           style="stop-color:#FFA340"
           offset="0.591" />
        <stop
           id="stop5971"
           style="stop-color:#FF9A2D"
           offset="0.7222" />
        <stop
           id="stop5973"
           style="stop-color:#FF9522"
           offset="0.8568" />
        <stop
           id="stop5975"
           style="stop-color:#FF931E"
           offset="1" />
      </radialGradient>
      <g
         id="g5994">
        <path
           id="path5988"
           d="m 2782.9,2601.7 0.1,70.8 70,-0.4 -107.6,107.6 -54.6,-1.3 -294.6,294.6 c -3.7,3.7 -9.8,3.7 -13.6,0 l -0.8,-0.8 c -3.7,-3.7 -3.7,-9.8 0,-13.6 l 294.7,-294.7 -1.7,-54.2 z"
           class="st5"
           inkscape:connector-curvature="0"
           style="fill:#4d4d4d" />
        <g
           id="g5992">
          <path
             id="path5990"
             d="m 2783,2672.5 70,-0.4 -107.6,107.6 -54.6,-1.3 -294.6,294.6 c -3.7,3.7 -9.8,3.7 -13.6,0 l -0.4,-0.4 400.7,-400.7 z"
             class="st5"
             inkscape:connector-curvature="0"
             style="fill:#4d4d4d" />
        </g>
      </g>
    </g>
  </g>
  <style
     id="style4485"
     type="text/css">
	.st0{fill:#86CCCC;}
	.st1{fill:#FCFAFB;}
	.st2{fill:#77562F;}
	.st3{fill:#684A2A;}
	.st4{fill:#563C24;}
	.st5{fill:#49321F;}
	.st6{fill:#124263;}
	.st7{fill:#0E3757;}
	.st8{fill:#C1E0DA;}
	.st9{fill:#9AD1D8;}
	.st10{filter:url(#Adobe_OpacityMaskFilter);}
	.st11{filter:url(#Adobe_OpacityMaskFilter_1_);}
	.st12{mask:url(#SVGID_1_);fill:url(#SVGID_2_);}
	.st13{fill:url(#SVGID_3_);}
	.st14{filter:url(#Adobe_OpacityMaskFilter_2_);}
	.st15{filter:url(#Adobe_OpacityMaskFilter_3_);}
	.st16{mask:url(#SVGID_4_);fill:url(#SVGID_5_);}
	.st17{fill:url(#SVGID_6_);}
	.st18{filter:url(#Adobe_OpacityMaskFilter_4_);}
	.st19{filter:url(#Adobe_OpacityMaskFilter_5_);}
	.st20{mask:url(#SVGID_7_);fill:url(#SVGID_8_);}
	.st21{fill:url(#SVGID_9_);}
	.st22{filter:url(#Adobe_OpacityMaskFilter_6_);}
	.st23{filter:url(#Adobe_OpacityMaskFilter_7_);}
	.st24{mask:url(#SVGID_10_);fill:url(#SVGID_11_);}
	.st25{fill:url(#SVGID_12_);}
	.st26{filter:url(#Adobe_OpacityMaskFilter_8_);}
	.st27{filter:url(#Adobe_OpacityMaskFilter_9_);}
	.st28{mask:url(#SVGID_13_);fill:url(#SVGID_14_);}
	.st29{fill:url(#SVGID_15_);}
	.st30{filter:url(#Adobe_OpacityMaskFilter_10_);}
	.st31{filter:url(#Adobe_OpacityMaskFilter_11_);}
	.st32{mask:url(#SVGID_16_);fill:url(#SVGID_17_);}
	.st33{fill:url(#SVGID_18_);}
	.st34{filter:url(#Adobe_OpacityMaskFilter_12_);}
	.st35{filter:url(#Adobe_OpacityMaskFilter_13_);}
	.st36{mask:url(#SVGID_19_);fill:url(#SVGID_20_);}
	.st37{fill:url(#SVGID_21_);}
	.st38{fill:#F5B400;}
	.st39{fill:#EB5A49;}
	.st40{fill:#DCB99D;}
	.st41{fill:#EED3B7;}
	.st42{fill:#72583B;}
	.st43{fill:#F4F4F4;}
	.st44{fill:#D1AD93;}
	.st45{fill:#DBDCDD;}
	.st46{fill:#303030;}
	.st47{fill:#252926;}
	.st48{fill:#EDBE85;}
	.st49{fill:#BCBCBC;}
	.st50{fill:#A0A0A0;}
	.st51{fill:#C4C4C4;}
	.st52{fill:#397A77;}
	.st53{fill:#D8D8D8;}
	.st54{fill:#3A3A3A;}
	.st55{fill:#221F1F;}
	.st56{opacity:0.2;fill:#221F1F;}
	.st57{fill:#898989;}
	.st58{fill:#4CA6A6;}
	.st59{fill:#7A3A14;}
	.st60{fill:#C9521E;}
	.st61{opacity:0.13;fill:#050505;}
	.st62{fill:#DC5921;}
	.st63{fill:#E89A54;}
	.st64{fill:#D37C27;}
	.st65{fill:#E88929;}
	.st66{fill:#FFFFFF;}
	.st67{opacity:0.11;}
	.st68{fill:#7F4E2E;}
	.st69{fill:#70432B;}
	.st70{fill:#FCD57E;}
	.st71{fill:#E7A30F;}
	.st72{fill:#DDDDDD;}
	.st73{fill:#B3B2B3;}
	.st74{opacity:0.8;fill:#2F363E;}
	.st75{opacity:0.8;}
	.st76{fill:#2F363E;}
</style>
  <style
     id="style5674"
     type="text/css">
	.st0{display:none;}
	.st1{display:inline;fill:#86CCCC;}
	.st2{fill:#C69C6D;}
	.st3{fill:#A67C52;}
	.st4{fill:#333333;}
	.st5{fill:#4D4D4D;}
	.st6{fill:#C1E0DA;}
	.st7{fill:#9AD1D8;}
	.st8{fill:#FCFAFB;}
	.st9{fill:url(#SVGID_1_);}
	.st10{fill:#FFFFFF;}
	.st11{fill:url(#SVGID_2_);}
	.st12{fill:url(#SVGID_3_);}
	.st13{opacity:0.11;}
</style>
  <style
     id="style5874"
     type="text/css">
	.st0{display:none;}
	.st1{display:inline;fill:#86CCCC;}
	.st2{fill:#C69C6D;}
	.st3{fill:#A67C52;}
	.st4{fill:#333333;}
	.st5{fill:#4D4D4D;}
	.st6{fill:#C1E0DA;}
	.st7{fill:#9AD1D8;}
	.st8{display:inline;fill:#FCFAFB;}
	.st9{fill:url(#SVGID_1_);}
	.st10{fill:#FFFFFF;}
	.st11{fill:url(#SVGID_2_);}
	.st12{fill:url(#SVGID_3_);}
	.st13{opacity:0.11;}
</style>
</svg>
