<svg id="Layer_1" data-name="Layer 1" xmlns="http://www.w3.org/2000/svg" viewBox="0 0 125.67 43.37"><defs><style>.cls-1{fill:#fff;}.cls-2{fill:#0d1a1e;fill-rule:evenodd;}</style></defs><title>optimentor_logo_2</title><path class="cls-1" d="M531.68,86.85v3.46h-47v3.46H472.49v3.31H437.66v32.66A1160.18,1160.18,0,0,1,563.31,86.85Z" transform="translate(-437.66 -86.85)"/><path class="cls-1" d="M437.66,130.23h34.83v-3.31h12.15v-3.46h47V120h31.65V87.26A1158.19,1158.19,0,0,0,437.66,130.23Z" transform="translate(-437.66 -86.85)"/><path class="cls-2" d="M448.57,117.48a6.65,6.65,0,1,0-6.63-6.63A6.59,6.59,0,0,0,448.57,117.48Zm0-11.32a4.67,4.67,0,1,1-4.48,4.67A4.48,4.48,0,0,1,448.57,106.16Z" transform="translate(-437.66 -86.85)"/><path class="cls-2" d="M463.59,106.16c2.66,0,4.24,2,4.24,4.56s-1.45,4.77-4.21,4.77-4.13-2.33-4.13-4.8A4.27,4.27,0,0,1,463.59,106.16Zm-4-1.64h-2.15v19.69h2.15v-8.85h.05a5.31,5.31,0,0,0,4.32,2.12c3.78,0,6.06-3,6.06-6.63s-2.33-6.68-6-6.68a5.31,5.31,0,0,0-4.34,2.15h-.05Z" transform="translate(-437.66 -86.85)"/><polygon class="cls-2" points="37.04 19.66 39.29 19.66 39.29 17.67 37.04 17.67 37.04 13.14 34.89 13.14 34.89 17.67 33.58 17.67 33.58 19.66 34.89 19.66 34.89 30.28 37.04 30.28 37.04 19.66"/><path class="cls-2" d="M481.39,104.52h-2.15v12.61h2.15Zm-1.07-6.28a1.55,1.55,0,0,0-1.53,1.53,1.53,1.53,0,0,0,3.06,0A1.55,1.55,0,0,0,480.31,98.25Z" transform="translate(-437.66 -86.85)"/><path class="cls-2" d="M486.89,104.52h-2.15v12.61h2.15v-6.52c0-1.9.27-4.45,2.79-4.45,2.07,0,2.25,2.25,2.25,3.81v7.16h2.15v-6.68c0-1.91.27-4.29,2.74-4.29,2.2,0,2.31,2,2.31,3.65v7.32h2.15v-7.67c0-2.66-.81-5.29-4-5.29a4.2,4.2,0,0,0-3.78,2.09,3.87,3.87,0,0,0-3.49-2.09,3.56,3.56,0,0,0-3,1.72h-.05Z" transform="translate(-437.66 -86.85)"/><path class="cls-2" d="M515.45,111.29c.21-3.76-1.93-7.11-6-7.11s-6.12,3.09-6.12,6.81,2.41,6.49,6.17,6.49a6.37,6.37,0,0,0,5.82-3.54l-1.83-1a4.31,4.31,0,0,1-3.84,2.6,4.08,4.08,0,0,1-4.13-4.21Zm-9.79-1.82a4,4,0,0,1,3.84-3.3,3.85,3.85,0,0,1,3.7,3.3Z" transform="translate(-437.66 -86.85)"/><path class="cls-2" d="M520.23,104.52h-2.15v12.61h2.15v-6c0-2.25.19-5,3.14-5,2.5,0,2.66,1.82,2.66,3.86v7.11h2.15v-7.48c0-3-.81-5.47-4.29-5.47a4.23,4.23,0,0,0-3.59,1.88h-.05Z" transform="translate(-437.66 -86.85)"/><polygon class="cls-2" points="96.25 19.66 98.5 19.66 98.5 17.67 96.25 17.67 96.25 13.14 94.1 13.14 94.1 17.67 92.79 17.67 92.79 19.66 94.1 19.66 94.1 30.28 96.25 30.28 96.25 19.66"/><path class="cls-2" d="M543.55,117.48a6.65,6.65,0,1,0-6.63-6.63A6.59,6.59,0,0,0,543.55,117.48Zm0-11.32a4.67,4.67,0,1,1-4.48,4.67A4.48,4.48,0,0,1,543.55,106.16Z" transform="translate(-437.66 -86.85)"/><path class="cls-2" d="M554.36,104.52h-2.15v12.61h2.15v-6.3c0-1.64.11-4.67,2.47-4.67a2.09,2.09,0,0,1,1.29.56l1-2a3.8,3.8,0,0,0-1.93-.59c-1.4,0-2,.72-2.79,1.72h-.05Z" transform="translate(-437.66 -86.85)"/></svg>