<?xml version="1.0" encoding="UTF-8" standalone="no"?>
<!-- Created with Inkscape (http://www.inkscape.org/) -->

<svg
   xmlns:dc="http://purl.org/dc/elements/1.1/"
   xmlns:cc="http://creativecommons.org/ns#"
   xmlns:rdf="http://www.w3.org/1999/02/22-rdf-syntax-ns#"
   xmlns:svg="http://www.w3.org/2000/svg"
   xmlns="http://www.w3.org/2000/svg"
   xmlns:sodipodi="http://sodipodi.sourceforge.net/DTD/sodipodi-0.dtd"
   xmlns:inkscape="http://www.inkscape.org/namespaces/inkscape"
   width="98.576187mm"
   height="98.576187mm"
   viewBox="0 0 98.576187 98.576187"
   version="1.1"
   id="svg8"
   inkscape:version="0.92.2 (5c3e80d, 2017-08-06)"
   sodipodi:docname="solution_ext.svg">
  <defs
     id="defs2" />
  <sodipodi:namedview
     id="base"
     pagecolor="#ffffff"
     bordercolor="#666666"
     borderopacity="1.0"
     inkscape:pageopacity="0.0"
     inkscape:pageshadow="2"
     inkscape:zoom="0.98994949"
     inkscape:cx="308.43718"
     inkscape:cy="53.214046"
     inkscape:document-units="mm"
     inkscape:current-layer="layer3"
     showgrid="false"
     fit-margin-top="0"
     fit-margin-left="0"
     fit-margin-right="0"
     fit-margin-bottom="0"
     inkscape:window-width="1920"
     inkscape:window-height="1057"
     inkscape:window-x="1358"
     inkscape:window-y="-8"
     inkscape:window-maximized="1" />
  <metadata
     id="metadata5">
    <rdf:RDF>
      <cc:Work
         rdf:about="">
        <dc:format>image/svg+xml</dc:format>
        <dc:type
           rdf:resource="http://purl.org/dc/dcmitype/StillImage" />
        <dc:title></dc:title>
      </cc:Work>
    </rdf:RDF>
  </metadata>
  <g
     inkscape:groupmode="layer"
     id="layer2"
     inkscape:label="Layer 2"
     transform="translate(-0.75595421,-1.4226185)"
     style="display:none">
    <rect
       style="opacity:1;fill:#4285f4;fill-opacity:1;stroke:#372e32;stroke-width:0.60000002;stroke-miterlimit:4;stroke-dasharray:none;stroke-dashoffset:0;stroke-opacity:1"
       id="rect4936"
       width="94.078873"
       height="95.636223"
       x="0.75595421"
       y="1.4226185" />
  </g>
  <g
     inkscape:label="Layer 1"
     inkscape:groupmode="layer"
     id="layer1"
     transform="translate(-0.75595421,-1.4226185)">
    <g
       style="fill:#ffffff"
       id="g4902"
       transform="matrix(4.1073412,0,0,4.1073412,0.75595421,1.4226185)">
      <path
         id="path4888"
         d="M 0,0 H 24 V 24 H 0 Z"
         inkscape:connector-curvature="0"
         style="fill:none" />
      <path
         id="path4890"
         d="M 20.5,11 H 19 V 7 C 19,5.9 18.1,5 17,5 H 13 V 3.5 C 13,2.12 11.88,1 10.5,1 9.12,1 8,2.12 8,3.5 V 5 H 4 C 2.9,5 2.01,5.9 2.01,7 v 3.8 H 3.5 c 1.49,0 2.7,1.21 2.7,2.7 0,1.49 -1.21,2.7 -2.7,2.7 H 2 V 20 c 0,1.1 0.9,2 2,2 h 3.8 v -1.5 c 0,-1.49 1.21,-2.7 2.7,-2.7 1.49,0 2.7,1.21 2.7,2.7 V 22 H 17 c 1.1,0 2,-0.9 2,-2 v -4 h 1.5 C 21.88,16 23,14.88 23,13.5 23,12.12 21.88,11 20.5,11 Z"
         inkscape:connector-curvature="0" />
    </g>
  </g>
  <g
     inkscape:groupmode="layer"
     id="layer3"
     inkscape:label="Layer 3"
     transform="translate(-0.75595421,-1.4226185)"
     style="display:inline">
    <g
       style="fill:#000000"
       id="g4934"
       transform="matrix(1.8858225,0,0,1.8858225,22.247886,26.427476)">
      <path
         id="path4920"
         d="m 13.925886,11.608628 c -2.27,-0.589999 -3,-1.199999 -3,-2.1499994 0,-1.09 1.01,-1.85 2.7,-1.85 1.78,0 2.44,0.85 2.5,2.1000003 h 2.21 c -0.07,-1.7200003 -1.12,-3.3000003 -3.21,-3.8100003 v -2.19 h -3 v 2.16 c -1.94,0.42 -3.5000004,1.68 -3.5000004,3.61 0,2.3099994 1.9100004,3.4599994 4.7000004,4.1299994 2.5,0.6 3,1.48 3,2.41 0,0.69 -0.49,1.79 -2.7,1.79 -2.06,0 -2.87,-0.92 -2.98,-2.1 H 8.4458856 c 0.12,2.19 1.7600004,3.42 3.6800004,3.83 v 2.17 h 3 v -2.15 c 1.95,-0.37 3.5,-1.5 3.5,-3.55 0,-2.84 -2.43,-3.81 -4.7,-4.4 z"
         inkscape:connector-curvature="0"
         style="fill:#4285f4;fill-opacity:1" />
      <path
         id="path4922"
         d="M 0,0 H 24 V 24 H 0 Z"
         inkscape:connector-curvature="0"
         style="fill:none" />
    </g>
  </g>
</svg>
