<?xml version="1.0" encoding="utf-8"?>
<!-- Generator: Adobe Illustrator 21.0.2, SVG Export Plug-In . SVG Version: 6.00 Build 0)  -->
<svg version="1.1" id="Layer_1" xmlns="http://www.w3.org/2000/svg" xmlns:xlink="http://www.w3.org/1999/xlink" x="0px" y="0px"
	 viewBox="0 0 335 133" enable-background="new 0 0 335 133" xml:space="preserve">
<path d="M118.6,83.3c-2.2,0-9.2,0-9.2,0c-2.7,0-3.2-0.4-3.2-3.5V36.7c0-8.2,0-21.2-20.8-21.2c-11.6,0-18.2,2.4-18.2,5.7v58.6
	c0,3.1-0.9,3.5-3.5,3.5H55c-2.4,0-3.3-0.4-3.3-3.4V15.6c0-2.9,1.9-4.7,7.8-6.4c4.7-1.4,13.9-3.3,26.2-3.3
	c35.7,0,35.9,17.7,35.9,28.6v45.4C121.5,82.8,120.8,83.3,118.6,83.3z"/>
<path d="M202.5,83.3c-2.2,0-9.2,0-9.2,0c-2.7,0-3.2-0.4-3.2-3.5V36.7c0-8.2,0-21.2-20.8-21.2c-11.6,0-18.2,2.4-18.2,5.7v58.6
	c0,3.1-0.9,3.5-3.5,3.5H139c-2.4,0-3.3-0.4-3.3-3.4V15.6c0-2.9,1.9-4.7,7.8-6.4c4.7-1.4,13.9-3.3,26.2-3.3
	c35.7,0,35.9,17.7,35.9,28.6v45.4C205.4,82.8,204.8,83.3,202.5,83.3z"/>
<path d="M281.8,46.5c4.7,0,9.3-3.7,8.5-10.9v-0.1c-0.9-7.4-4.8-14.6-10.8-20.1C273.2,9.8,264.6,6,254.9,6
	c-14.4,0.2-29.5,7.9-35.4,25.5c-0.9,2.6-1.5,5.5-2,8.5c-0.2,1.7-0.4,3.4-0.5,5.2c0,0.3,0,0.7,0,1c0,23,16.1,36.9,36.5,38.3
	c0.7,0,1.5,0.1,2.3,0.1c20.2,0,31.2-14.1,33-20.9c0.9-3.8-1.8-4.8-2.5-5c-2.3,0-3.3,0.7-6.3,3.6c-0.8,0.8-1.7,1.6-2.6,2.3
	c-5,4.6-11.6,7.4-19,7.4c-20.7,0-27.4-15.8-28-24.3c0-0.5-0.1-0.9-0.1-1.3C230.2,46.4,281.2,46.5,281.8,46.5z M271.7,37.7
	c-0.7,0.3-1.6,0.5-2.7,0.5h-38.4c1.6-13.7,11.6-22.4,24.5-22.4c9,0,17.8,6.7,18.7,15.7c0,0.5,0.1,0.9,0.1,1.4
	C273.9,34.9,273.5,36.8,271.7,37.7z"/>
<path d="M302.9,6.9c-4.3,0-7.8,3.5-7.7,7.9c0.1,4.1,3.4,7.5,7.5,7.6c4.4,0.1,8-3.4,8-7.7C310.7,10.3,307.2,6.9,302.9,6.9z
	 M302.2,8.2c3.9-0.4,7.1,2.6,7.1,6.4c0,3.5-2.9,6.4-6.5,6.4c-3.8,0-6.9-3.4-6.4-7.3C296.9,10.9,299.3,8.5,302.2,8.2z"/>
<path d="M301.3,11.5L301.3,11.5h1.5c0.8,0,2.1,0,2.1,1.2c0,1.3-1.4,1.3-2,1.3h-1.6l0,0V11.5z M299.9,18.7h1.3l0,0v-3.5h0.8
	c1.1,0,1.5,0.4,2.5,2.2l0.7,1.3l0,0h1.6l-1-1.6c-1-1.7-1.5-1.9-1.9-2.1l0,0c1.7-0.1,2.4-1.4,2.4-2.3c0-0.7-0.3-1.3-0.8-1.7
	c-0.7-0.6-1.8-0.6-2.7-0.6h-2.9l0,0V18.7L299.9,18.7z"/>
<path d="M2.1,106.6h9.4v1.7H4v7h7.1v1.7H4v9.3H2L2.1,106.6L2.1,106.6z"/>
<path d="M19.8,111.6c4.7,0,6.7,3.6,6.7,7.6s-2.1,7.6-6.7,7.6s-6.7-3.6-6.7-7.6S15.1,111.6,19.8,111.6z M19.8,125.2
	c3.1,0,4.8-2.7,4.8-6s-1.7-6-4.8-6s-4.8,2.7-4.8,6S16.7,125.2,19.8,125.2z"/>
<path d="M38.7,113.9c-1-0.4-2.1-0.7-3.1-0.7c-3.5,0-5.4,2.5-5.4,6c0,3.3,2,6,5.2,6c1.1,0,2.2-0.3,3.3-0.7l0.2,1.7
	c-1.2,0.4-2.3,0.5-3.7,0.5c-4.6,0-6.9-3.5-6.9-7.6c0-4.4,2.9-7.6,7.1-7.6c1.7,0,3,0.4,3.5,0.6L38.7,113.9z"/>
<path d="M52.6,123c0,1.1,0,2.2,0.1,3.4H51v-2.6h-0.1c-0.6,1.3-1.7,2.9-4.7,2.9c-3.6,0-4.9-2.4-4.9-5.5V112h1.8v8.8
	c0,2.7,1,4.5,3.4,4.5c3.3,0,4.3-2.9,4.3-5.3v-8h1.8V123z"/>
<path d="M55.4,124.3c1.1,0.5,2.4,0.9,3.8,0.9c1.7,0,3.2-0.9,3.2-2.6c0-3.4-6.9-2.9-6.9-7.1c0-2.9,2.3-3.9,4.7-3.9
	c0.8,0,2.3,0.2,3.6,0.7l-0.2,1.6c-0.9-0.4-2.2-0.7-3.2-0.7c-1.8,0-3.1,0.6-3.1,2.4c0,2.7,7.1,2.3,7.1,7.1c0,3.1-2.9,4.1-5,4.1
	c-1.4,0-2.8-0.2-4-0.7V124.3z"/>
<path d="M76.6,125.9c-1.2,0.5-2.9,0.8-4.2,0.8c-4.8,0-6.6-3.2-6.6-7.6s2.4-7.6,6.1-7.6c4.1,0,5.7,3.3,5.7,7.2v0.9h-9.9
	c0,3.1,1.6,5.5,4.8,5.5c1.3,0,3.2-0.5,4-1.1L76.6,125.9L76.6,125.9z M75.7,118.2c0-2.5-1-5-3.7-5c-2.6,0-4.2,2.6-4.2,5H75.7z"/>
<path d="M91.9,126.4h-1.8v-2.3H90c-1,1.8-2.4,2.6-4.5,2.6c-4,0-5.9-3.3-5.9-7.6c0-4.4,1.7-7.6,5.9-7.6c2.8,0,4.2,2.1,4.5,2.8h0.1
	v-9.2h1.8V126.4z M85.9,125.2c3.2,0,4.3-3.4,4.3-6s-1.1-6-4.3-6c-3.4,0-4.3,3.2-4.3,6S82.5,125.2,85.9,125.2z"/>
<path d="M102.8,112h1.8l-0.1,2.6h0.1c0.5-0.8,1.6-3,4.6-3c4.2,0,5.9,3.2,5.9,7.6c0,4.3-2,7.6-5.9,7.6c-2.3,0-3.6-0.9-4.5-2.8h-0.1
	v8.4h-1.8V112z M108.9,113.1c-3.2,0-4.3,3.4-4.3,6s1.1,6,4.3,6c3.4,0,4.3-3.2,4.3-6S112.3,113.1,108.9,113.1z"/>
<path d="M118.2,105.2h1.8v9.2h0.1c0.8-1.6,2.4-2.8,4.5-2.8c3.9,0,4.9,2.6,4.9,6.1v8.6h-1.8v-8.6c0-2.5-0.5-4.6-3.4-4.6
	c-3.2,0-4.3,3-4.3,5.5v7.7h-1.8C118.2,126.3,118.2,105.2,118.2,105.2z"/>
<path d="M141.6,124.1L141.6,124.1c-0.8,1.7-2.9,2.7-4.6,2.7c-4.1,0-4.8-2.8-4.8-4.1c0-4.8,5.2-5.1,8.9-5.1h0.3v-0.7
	c0-2.5-0.9-3.7-3.3-3.7c-1.5,0-2.9,0.3-4.2,1.2v-1.7c1.1-0.5,3-1,4.2-1c3.6,0,5.1,1.6,5.1,5.4v6.4c0,1.2,0,2,0.1,3h-1.8v-2.4H141.6z
	 M141.4,119.1h-0.5c-3.1,0-6.8,0.3-6.8,3.5c0,1.9,1.4,2.6,3,2.6c4.2,0,4.3-3.7,4.3-5.2V119.1z"/>
<path d="M146.9,115.2c0-1.6,0-2.2-0.1-3.2h1.8v2.8h0.1c0.7-1.6,1.9-3.1,3.7-3.1c0.4,0,0.9,0.1,1.2,0.2v1.9c-0.4-0.1-0.8-0.2-1.3-0.2
	c-2.8,0-3.6,3.2-3.6,5.8v7.1h-1.8L146.9,115.2L146.9,115.2z"/>
<path d="M173.2,126.4v-9.6c0-2-0.8-3.7-3.1-3.7c-2,0-3.9,1.7-3.9,5.3v8h-1.8v-9.6c0-2-0.8-3.7-3.1-3.7c-2,0-3.9,1.7-3.9,5.3v8h-1.8
	v-11c0-1.1,0-2.2-0.1-3.4h1.7v2.4h0.1c0.6-1,1.4-2.8,4.5-2.8c1.3,0,3.4,0.5,3.8,3.1h0.1c0.7-1.7,2.3-3.1,4.6-3.1
	c2.9,0,4.6,2,4.6,4.8v9.9L173.2,126.4L173.2,126.4z"/>
<path d="M187.1,124.1L187.1,124.1c-0.8,1.7-2.9,2.7-4.6,2.7c-4.1,0-4.8-2.8-4.8-4.1c0-4.8,5.2-5.1,8.9-5.1h0.3v-0.7
	c0-2.5-0.9-3.7-3.3-3.7c-1.5,0-2.9,0.3-4.2,1.2v-1.7c1.1-0.5,3-1,4.2-1c3.6,0,5.1,1.6,5.1,5.4v6.4c0,1.2,0,2,0.1,3H187v-2.4H187.1z
	 M186.9,119.1h-0.5c-3.1,0-6.8,0.3-6.8,3.5c0,1.9,1.4,2.6,3,2.6c4.2,0,4.3-3.7,4.3-5.2V119.1z"/>
<path d="M209.3,125.9c-1.2,0.5-2.9,0.8-4.2,0.8c-4.8,0-6.6-3.2-6.6-7.6s2.4-7.6,6.1-7.6c4.1,0,5.7,3.3,5.7,7.2v0.9h-9.9
	c0,3.1,1.6,5.5,4.8,5.5c1.3,0,3.2-0.5,4-1.1L209.3,125.9L209.3,125.9z M208.5,118.2c0-2.5-1-5-3.7-5c-2.6,0-4.2,2.6-4.2,5H208.5z"/>
<path d="M213.2,115.3c0-1.1,0-2.2-0.1-3.4h1.7v2.6h0.1c0.6-1.3,1.7-2.9,4.7-2.9c3.6,0,4.9,2.4,4.9,5.5v9.2h-1.8v-8.8
	c0-2.7-1-4.5-3.4-4.5c-3.3,0-4.3,2.9-4.3,5.3v8h-1.8L213.2,115.3L213.2,115.3z"/>
<path d="M239.8,125.2c0,4-1.8,7.3-6.8,7.3c-1.9,0-3.6-0.5-4.4-0.8l0.1-1.8c1.1,0.6,2.7,1,4.2,1c4.6,0,5-3.3,5-7.4h0.1
	c-1,2.1-2.5,2.8-4.4,2.8c-4.6,0-6.1-4-6.1-7.2c0-4.4,1.7-7.6,5.9-7.6c1.9,0,3.2,0.3,4.5,2h0.1V112h1.8V125.2z M233.7,124.9
	c3.2,0,4.4-3.1,4.4-5.7c0-3.5-1-6-4.3-6c-3.4,0-4.3,3.2-4.3,6C229.5,122,230.6,124.9,233.7,124.9z"/>
<path d="M245.4,108.1h-1.8v-2.4h1.8V108.1z M243.6,112h1.8v14.4h-1.8V112z"/>
<path d="M249.3,115.3c0-1.1,0-2.2-0.1-3.4h1.7v2.6h0.1c0.6-1.3,1.7-2.9,4.7-2.9c3.6,0,4.9,2.4,4.9,5.5v9.2h-1.8v-8.8
	c0-2.7-1-4.5-3.4-4.5c-3.3,0-4.3,2.9-4.3,5.3v8h-1.8L249.3,115.3L249.3,115.3z"/>
<path d="M274.1,125.9c-1.2,0.5-2.9,0.8-4.2,0.8c-4.8,0-6.6-3.2-6.6-7.6s2.4-7.6,6.1-7.6c4.1,0,5.7,3.3,5.7,7.2v0.9h-9.9
	c0,3.1,1.6,5.5,4.8,5.5c1.3,0,3.2-0.5,4-1.1v1.9H274.1z M273.3,118.2c0-2.5-1-5-3.7-5c-2.6,0-4.2,2.6-4.2,5H273.3z"/>
<path d="M287.7,125.9c-1.2,0.5-2.9,0.8-4.2,0.8c-4.8,0-6.6-3.2-6.6-7.6s2.4-7.6,6.1-7.6c4.1,0,5.7,3.3,5.7,7.2v0.9h-9.9
	c0,3.1,1.6,5.5,4.8,5.5c1.3,0,3.2-0.5,4-1.1v1.9H287.7z M286.9,118.2c0-2.5-1-5-3.7-5c-2.6,0-4.2,2.6-4.2,5H286.9z"/>
<path d="M291.6,115.2c0-1.6,0-2.2-0.1-3.2h1.8v2.8h0.1c0.7-1.6,1.9-3.1,3.7-3.1c0.4,0,0.9,0.1,1.2,0.2v1.9c-0.4-0.1-0.8-0.2-1.3-0.2
	c-2.8,0-3.6,3.2-3.6,5.8v7.1h-1.8L291.6,115.2L291.6,115.2z"/>
<path d="M302.3,108.1h-1.8v-2.4h1.8V108.1z M300.5,112h1.8v14.4h-1.8V112z"/>
<path d="M306.2,115.3c0-1.1,0-2.2-0.1-3.4h1.7v2.6h0.1c0.6-1.3,1.7-2.9,4.7-2.9c3.6,0,4.9,2.4,4.9,5.5v9.2h-1.8v-8.8
	c0-2.7-1-4.5-3.4-4.5c-3.3,0-4.3,2.9-4.3,5.3v8h-1.8L306.2,115.3L306.2,115.3z"/>
<path d="M332.8,125.2c0,4-1.8,7.3-6.8,7.3c-1.9,0-3.6-0.5-4.4-0.8l0.1-1.8c1.1,0.6,2.7,1,4.2,1c4.6,0,5-3.3,5-7.4h0.1
	c-1,2.1-2.5,2.8-4.4,2.8c-4.6,0-6.1-4-6.1-7.2c0-4.4,1.7-7.6,5.9-7.6c1.9,0,3.2,0.3,4.5,2h0.1V112h1.8V125.2z M326.6,124.9
	c3.2,0,4.4-3.1,4.4-5.7c0-3.5-1-6-4.3-6c-3.4,0-4.3,3.2-4.3,6C322.5,122,323.6,124.9,326.6,124.9z"/>
</svg>
