<?xml version="1.0" encoding="utf-8"?>
<svg version="1.1" id="Layer_1" xmlns="http://www.w3.org/2000/svg" xmlns:xlink="http://www.w3.org/1999/xlink" x="0px" y="0px"
viewBox="0 0 931.1 280.7" style="enable-background:new 0 0 931.1 280.7;" xml:space="preserve">
<style type="text/css">
.st0{fill:#FFFFFF;}
.st1{fill:#0065A4;}
.st2{fill:#5E9732;}
.st3{fill:#0A854D;}
.st4{fill:#808285;}
</style>
<path class="st0" d="M422.1,86.7C422.1,86.7,422.1,86.7,422.1,86.7C422.1,86.6,422.1,86.6,422.1,86.7l0-0.3l-0.2-0.2 c-0.2-0.1-19.9-13.3-73-13.3h-0.2v205.6c0.1,0,10.2-1.7,18.5-6c6.5-3.3,15.4-10.2,21.5-16.7c9.6-10.2,18-24.7,25-43.1 c3.1-8.2,5.2-16,6.7-24.6c0.1-0.3,0.1-0.6,0.2-1c0.1-0.7,0.2-1.4,0.3-2.1c1.5-10.2,2.3-21.3,2.8-34.6 C424.7,124.8,422.1,86.7,422.1,86.7z"/>
<g>
<path class="st0" d="M348.9,155.9"/>
<path class="st1" d="M331.1,271.8c-4.9-2.5-11.5-7.3-17-12.3l34.7-46.2V71h-0.6c-54.2,0-74.3,13.4-74.5,13.5l-0.2,0.2l0,0.3 c0,0.4-2.6,39.3-1.5,65.1c1.2,28.2,3,44.8,10.2,63.5c7.1,18.7,15.7,33.5,25.5,43.9c6.2,6.7,15.3,13.7,21.9,17.1 c8.5,4.3,18.5,6,18.6,6l0.7,0.1l0.1-3.1C347.6,277.3,338.7,275.7,331.1,271.8z"/>
<g>
<line class="st2" x1="348.9" y1="115.1" x2="348.6" y2="98.9"/>
</g>
<path class="st1" d="M300.5,169.6c0.5,0,0.8-0.4,0.8-0.8c0-0.5-0.4-0.8-0.8-0.8c-0.5,0-0.8,0.4-0.8,0.8 C299.7,169.2,300.1,169.6,300.5,169.6"/>
<path class="st0" d="M348.9,153.7c-12.9-62.2-49.3-65.1-49.3-65.1l35.7,80.7h-24.1c0,0-2.2-2.8-4.3-3.6c-2.1-0.8-5.2-0.6-5.2-0.6 c-2,0.1-4,0.7-4.5,1.1c-0.4,0.4-1.4,1.5-2.4,1.8c-1,0.4-7.4,2-8.2,2.2c-0.8,0.3-1,0.6-1,0.9c-0.1,0.3-0.1,0.4,0.8,0.4 c0.8,0.1,8.2,0.9,8.2,0.9c1.7,0.2,2,0.2,2.9,0.8c1.6,1,3.3,1.6,5.7,2.1c2.6,0.5,4.3-0.5,8.6,0.4c4.5,0.9,8.2,3.4,12.2,6.4 c4.1,3,8.2,6.9,16.4,9.5c2.7,0.8,5.6,1.3,8.3,1.5L348.9,153.7L348.9,153.7z M300.5,169.6c-0.5,0-0.8-0.4-0.8-0.8 c0-0.5,0.4-0.8,0.8-0.8c0.5,0,0.8,0.4,0.8,0.8C301.4,169.2,301,169.6,300.5,169.6z"/>
<path class="st3" d="M423.9,85C423.9,85,423.9,85,423.9,85C423.9,85,423.9,85,423.9,85l0-0.3l-0.2-0.2 c-0.2-0.1-20.3-13.5-74.5-13.5h-0.2v3.3h3.5c44.1,0.4,64.2,9.8,68.9,12.3c0.4,7.2,2.4,40.5,1.4,63.3c-1.2,27.8-3,44.2-10,62.5 c-7,18.3-15.3,32.7-24.8,42.8c-1.3,1.4-2.7,2.8-4.2,4.2l0,0c-25.6-34-34.8-46.2-34.8-46.2v67.4c0.1,0,10.4-1.8,18.9-6.1 c6.7-3.4,15.7-10.4,21.9-17.1c9.8-10.4,18.4-25.2,25.5-43.9c3.2-8.4,5.3-16.3,6.8-25.1c0.1-0.3,0.1-0.7,0.2-1 c0.1-0.7,0.2-1.4,0.3-2.2c1.6-10.4,2.3-21.7,2.9-35.3C426.5,124,423.9,85,423.9,85z"/>
<path class="st3" d="M364.8,169.3c45.4-46,21.4-85.1,21.4-85.1l-37.4,69.5l0,0v39.6c5.5,0.4,10.2-0.1,10.2-0.1 c29.1-1.9,43.3-23.9,43.3-23.9H364.8z"/>
</g>
<g>
<path class="st1" d="M695.5,53.4c-0.1-2.3-0.1-4.7-0.1-7c0-5.1,0.2-8.7,0.4-14.9l-0.5-0.4l-5.7,0.1l-0.4,0.4c0.4,4.1,0.4,6,0.4,9.6 v4.2V51c-2.3,0.6-5.6,1.6-12.3,1.6c-19.8,0-26.8-11.7-26.8-22.3c0-11.3,7.2-22.2,26-22.2c3.5,0,6.6,0.4,9.3,1.1 c3.4,0.9,4.6,1.7,6.6,2.9l0.6-0.3l0.7-3.8l-0.4-0.6c-3.7-1.5-8.4-3.3-17.1-3.3c-23,0-31.8,14.5-31.8,26.5c0,3,0.6,9.3,4.8,14.8 c8.5,11.1,23.6,11.1,27.6,11.1c3.6,0,10.2-0.3,18.2-2.6L695.5,53.4z M593,8.9c3.9-0.1,7.1-0.2,10.5-0.2c5,0,16.3,0,16.3,9.5 c0,6.1-4.9,8.3-7.7,9.2c-4,1.3-8.1,1.4-19,1.5V8.9z M587.1,5.2l-0.5,0.4c0.6,12.7,0.8,25.6,0.8,38.4c0,4.1,0,6.3-0.2,11.2l0.5,0.4 l5.4-0.1l0.5-0.4c-0.5-9.9-0.5-12.6-0.6-22.5l8.1-0.1c1.2,1.1,1.7,1.6,8.1,8.5c8,8.5,8.9,9.5,13.2,14.2l0.9,0.4 c1.2-0.1,2.2-0.1,3.4-0.2h2.9l0.4-0.6c-1.5-1.5-8.2-8.3-9.5-9.8c-2-2.1-4-4.1-6.1-6.3l-6.5-6.8c3.9-0.4,8.8-1.1,13-4.6 c2.6-2.1,4.7-5.4,4.7-9.3c0-1.2-0.3-9.3-10.3-12.2c-3.7-1-7.9-1.1-15.4-1L587.1,5.2z M559.4,30.4c0.1,9.3-4,17.2-11.7,20.5 c-2.6,1.1-6.2,1.9-10.9,1.9c-18.5,0-22.5-14-22.5-22.5c0-9.1,4.4-15.6,8.6-18.6c3.3-2.3,8.2-3.8,14.7-3.8c2.4,0,10.8,0,16.7,6.5 C558.9,19.5,559.4,27.7,559.4,30.4 M565.3,30.4c0-15-8.5-26.2-28.1-26.2c-21,0-28.9,13.1-28.9,26.1c0,8.2,2.7,15.8,9.5,21 c4.5,3.4,10.9,5.3,19.3,5.3C554.8,56.6,565.3,46.3,565.3,30.4 M454.9,8.7h1c1.2,0,10-0.1,10.5-0.1c4,0,14.4,0,14.4,8.9 c0,5.2-4.6,7.9-8.2,9c-4.8,1.4-12.4,1.3-17.7,1.2V8.7z M455.3,51.7c-0.4-7.2-0.4-10-0.4-20.1c2.8,0,5.7-0.1,8.5-0.1 c5.3,0,13.4,0,17.8,3.4c3.3,2.5,3.3,5.6,3.3,6.5c0,4.3-2.9,7.8-8.2,9.2C472.4,51.6,469.4,51.6,455.3,51.7 M457.6,5.1l-8.5,0.1 l-0.6,0.4c0.5,7.6,0.5,9.3,0.7,24.2c0,4.9,0.2,9.8,0.2,14.7c0,4.3-0.1,6.5-0.3,10.5l0.6,0.4l7.7-0.1h3.8 c11.4-0.2,18.3-0.3,23.7-4.1c3.6-2.6,5.3-6.3,5.3-10.1c0-5.8-4.4-10.5-12.2-11.8c-1.5-0.2-3-0.3-4.5-0.4c1.6-0.4,3.1-0.7,4.5-1.2 c1.2-0.4,8.5-3.3,8.5-11c0-1.4-0.2-8.6-10.1-11c-3.6-0.9-7.3-0.9-13.5-0.9L457.6,5.1z M424.8,53.4c-0.1-2.3-0.1-4.7-0.1-7 c0-5.1,0.2-8.7,0.4-14.9l-0.5-0.4l-5.7,0.1l-0.4,0.4c0.4,4.1,0.4,6,0.4,9.6v4.2V51c-2.3,0.6-5.6,1.6-12.3,1.6 c-19.8,0-26.8-11.7-26.8-22.3c0-11.3,7.2-22.2,26-22.2c3.5,0,6.6,0.4,9.3,1.1c3.4,0.9,4.6,1.7,6.6,2.9l0.6-0.3l0.7-3.8l-0.4-0.6 c-3.7-1.5-8.4-3.3-17.1-3.3c-23,0-31.8,14.5-31.8,26.5c0,3,0.6,9.3,4.8,14.8c8.5,11.1,23.6,11.1,27.6,11.1c3.6,0,10.2-0.3,18.2-2.6 L424.8,53.4z M353.4,55c-0.6-11.7-0.8-26.4-0.8-38.4c0-4.6,0.1-7.5,0.2-11.2L352.3,5l-4.7,0.1l-0.4,0.4c0.7,18.3,0.8,24.1,1,46.4 l-18.6-26.4c-4.4-5.9-7.8-10.6-10.6-14.5c-2.2-3.1-2.3-3.3-4.1-5.6L314,5l-7.8,0.1l-0.5,0.4c0.4,13.9,0.7,21.9,0.7,33.6 c0,5.3-0.1,10.6-0.1,15.9l0.5,0.4l4.7-0.1l0.5-0.5c-0.4-11.1-0.5-12.6-0.6-25.1c-0.1-7-0.2-14.1-0.3-21.1l24.7,35 c4.9,6.8,7,9.7,8.5,11.5l0.7,0.4l7.9-0.1L353.4,55z M280.7,55.1c-0.4-13.5-0.7-20.6-0.7-32.9c0-5.6,0.1-11.1,0.1-16.7l-0.5-0.4 L274,5.2l-0.5,0.4c0.6,12,0.8,28.8,0.8,38.1c0,4.6-0.1,7.4-0.2,11.5l0.5,0.4l5.5-0.1L280.7,55.1z M208.2,8.9l6.6-0.1 c1.8,0,3.6-0.1,5.3-0.1c10.2,0,16.7,1.6,21.2,5.9c3,2.9,3.9,6,4.4,7.9c0.5,2.1,0.7,4.3,0.7,6.2c0,3.8-0.9,12.6-8.2,17.9 c-6.4,4.7-14.2,5.1-23.7,5.1h-6c-0.3-8.7-0.4-12-0.4-20V8.9z M202.3,5.2l-0.6,0.4c0.5,8.9,0.5,10.5,0.7,24.4 c0.1,4.8,0.2,9.7,0.2,14.5c0,4.3,0,6.2-0.2,10.7l0.5,0.4l8.3-0.1h3.7c9.2,0,20.7,0,29.5-7.8c6.4-5.6,7.8-13.1,7.8-18.8 c0-4-0.6-9.3-4.2-14.2c-6.6-9-18.7-9.5-27.1-9.5c-2.2,0-4.4,0.1-6.7,0.1L202.3,5.2z M147.4,8.9c3.9-0.1,7.1-0.2,10.5-0.2 c5,0,16.3,0,16.3,9.5c0,6.1-4.9,8.3-7.7,9.2c-4,1.3-8.1,1.4-19,1.5V8.9z M141.5,5.2L141,5.6c0.6,12.7,0.8,25.6,0.8,38.4 c0,4.1,0,6.3-0.2,11.2l0.5,0.4l5.4-0.1l0.5-0.4c-0.5-9.9-0.5-12.6-0.6-22.5l8.1-0.1c1.2,1.1,1.7,1.6,8.1,8.5 c8,8.5,8.9,9.5,13.2,14.2l0.9,0.4c1.2-0.1,2.2-0.1,3.4-0.2h2.9l0.4-0.6c-1.5-1.5-8.2-8.3-9.5-9.8c-2-2.1-4-4.1-6.1-6.3l-6.5-6.8 c3.9-0.4,8.8-1.1,13-4.6c2.6-2.1,4.7-5.4,4.7-9.3c0-1.2-0.3-9.3-10.3-12.2c-3.7-1-7.9-1.1-15.4-1L141.5,5.2z M113.7,30.4 c0.1,9.3-4,17.2-11.7,20.5c-2.6,1.1-6.2,1.9-10.9,1.9c-18.5,0-22.5-14-22.5-22.5c0-9.1,4.4-15.6,8.6-18.6c3.3-2.3,8.2-3.8,14.7-3.8 c2.4,0,10.8,0,16.7,6.5C113.3,19.5,113.7,27.7,113.7,30.4 M119.7,30.4c0-15-8.5-26.2-28.1-26.2c-21,0-28.9,13.1-28.9,26.1 c0,8.2,2.7,15.8,9.5,21c4.4,3.4,10.9,5.3,19.3,5.3C109.2,56.6,119.7,46.3,119.7,30.4 M27.9,55l6.1-15.6L41,22.2l7-16.6l-0.4-0.5 h-5.3l-0.6,0.4c-2,6.3-2.7,7.9-4.6,13l-13,33.7L13.3,23.8c-3.1-8.3-4-10.6-6.6-18.5L6.2,4.9L0.4,5.3L0,5.8l5.9,14.7l7.6,19.2 l6.1,15.5l0.6,0.4l7.2-0.1L27.9,55z"/>
<path class="st4" d="M930.7,134.3l0.4-3.5l-0.4-0.4l-21.4,0.3h-7.7l-0.4-20.5h8.5c3-0.1,6.1-0.1,9.1-0.1c3.6,0,5.9,0.1,9.4,0.1 l0.8-0.4l0.2-3.2l-0.5-0.4l-18.7,0.1h-8.8V88l5.1,0.1l23.4,0.2l0.7-0.4l0.3-3.4l-0.5-0.4l-12.5,0.1h-15.9l-6.2-0.1l-0.5,0.4 c0.5,12.9,0.8,25.8,0.8,38.7c0,3.8-0.1,6.5-0.2,11l0.6,0.5l7.2-0.3h27.1L930.7,134.3z M870.7,134c-0.6-11.7-0.8-26.4-0.8-38.4 c0-4.6,0.1-7.5,0.2-11.2l-0.5-0.4l-4.7,0.1l-0.4,0.4c0.7,18.3,0.8,24.1,1,46.4l-18.6-26.4c-4.4-5.9-7.8-10.6-10.6-14.5 c-2.2-3.1-2.3-3.3-4.1-5.6l-0.8-0.4l-7.8,0.1l-0.5,0.4c0.4,13.9,0.7,21.9,0.7,33.6c0,5.3-0.1,10.6-0.1,15.9l0.5,0.4l4.7-0.1 l0.5-0.5c-0.4-11.1-0.5-12.6-0.6-25.1c-0.1-7-0.2-14.1-0.3-21.1l24.7,35c4.9,6.8,7,9.7,8.5,11.5l0.7,0.4l7.9-0.1L870.7,134z M797.9,84.1l-4.8,0.1l-0.5,0.5c0.4,8.8,0.4,10.8,0.4,25.7c0,8,0,10.5-1.5,13.7c-0.3,0.7-1,2.1-2.9,3.8c-4.1,3.5-9.7,3.7-12.7,3.7 c-3.4,0-10.2-0.3-14.1-5.6c-2.2-3.1-2.3-7-2.3-14.2c0-8.7,0.3-17.4,0.5-27.3l-0.4-0.4l-5.7,0.1l-0.5,0.5c0.2,4.1,0.2,5.7,0.2,8.5 l-0.2,21.3c0,4.8,0,9.8,2.8,13.6c1.9,2.6,5.3,4.9,8.8,6.1c3,1,6.9,1.5,10.5,1.5c12.2,0,19.8-5.1,21.9-11.4c1-2.8,1.1-6.8,1.1-10.9 l0.1-9.4V84.5L797.9,84.1z M729.4,134c-0.8-10.3-1.2-20.6-1.4-26.6l-0.7-22.9l-0.6-0.6c-3.3,0.1-4.4,0.2-7.8,0.2l-0.6,0.4 c-0.6,1.6-1.4,3.5-2,4.8c-0.5,1.4-3.2,7.4-3.7,8.7l-13.7,33L685,95.3c-1.9-5-4-10.4-4.1-10.8l-0.6-0.4c-3.7,0.1-4.4,0.1-8.2,0.1 l-0.4,0.4c-0.2,6.6-0.3,7.6-0.8,16.4l-1.1,15.6c-0.3,2.8-0.4,5.8-0.7,8.6c-0.3,4.1-0.4,6.1-0.8,8.8l0.5,0.6 c2.3-0.1,3.2-0.1,4.9-0.1l0.5-0.5c0.1-6.1,0.2-7.5,0.8-20.3l1.4-26.1l11.9,31.3c1.7,4.5,2,5.5,5.3,14.2l0.4,0.9l0.6,0.5 c3.5-0.1,4-0.1,7.2,0l0.7-0.4c1.8-4.3,4.6-11.3,6.4-15.6l13.1-31.8l0.7,30.6c0.1,3.1,0.2,5.7,0.2,8.5v8.3l0.5,0.5 c2.3-0.1,2.9-0.1,5.4-0.1L729.4,134z M646.4,134c-0.8-10.3-1.2-20.6-1.4-26.6l-0.7-22.9l-0.6-0.6c-3.3,0.1-4.4,0.2-7.8,0.2 l-0.6,0.4c-0.6,1.6-1.4,3.5-2,4.8c-0.5,1.4-3.2,7.4-3.7,8.7l-13.7,33L602,95.3c-1.9-5-4-10.4-4.1-10.8l-0.6-0.4 c-3.7,0.1-4.4,0.1-8.2,0.1l-0.4,0.4c-0.2,6.6-0.3,7.6-0.8,16.4l-1.1,15.6c-0.3,2.8-0.4,5.8-0.7,8.6c-0.3,4.1-0.4,6.1-0.8,8.8 l0.5,0.6c2.3-0.1,3.2-0.1,4.9-0.1l0.5-0.5c0.1-6.1,0.2-7.5,0.8-20.3l1.4-26.1l11.9,31.3c1.7,4.5,2,5.5,5.3,14.2l0.4,0.9l0.6,0.5 c3.5-0.1,4-0.1,7.2,0l0.7-0.4c1.8-4.3,4.6-11.3,6.4-15.6l13.1-31.8l0.7,30.6c0.1,3.1,0.2,5.7,0.2,8.5v8.3l0.5,0.5 c2.3-0.1,2.9-0.1,5.4-0.1L646.4,134z M559.5,109.4c0.1,9.3-4,17.2-11.7,20.5c-2.6,1.1-6.2,1.9-10.9,1.9c-18.5,0-22.5-14-22.5-22.5 c0-9.1,4.5-15.6,8.6-18.6c3.3-2.3,8.2-3.8,14.7-3.8c2.4,0,10.8,0,16.7,6.5C559.1,98.5,559.5,106.7,559.5,109.4 M565.5,109.4 c0-15-8.5-26.2-28.1-26.2c-21,0-28.9,13.1-28.9,26.1c0,8.2,2.7,15.8,9.5,21c4.5,3.4,10.9,5.3,19.3,5.3 C555,135.6,565.5,125.3,565.5,109.4 M457.5,134.1l-0.7-26.1c10.1,8.5,19.7,17.3,29,26.3l1,0.4c1.1-0.1,2.1-0.1,3.2-0.2h3.6l0.3-0.6 c-8.5-7.3-17-14.7-25.4-22.1l-4.9-4.3l10.6-9.2c10.7-9.1,11.8-10.1,16.1-13.6l-0.3-0.4h-6.5l-0.8,0.2c-3.1,3.1-4.2,4.1-13.8,12.5 l-12,10.7V84.5l-0.5-0.4l-5.3,0.1l-0.4,0.4c0.5,12.7,0.8,25.6,0.8,38.3c0,3.9-0.1,6.5-0.2,11.2l0.5,0.4l5.3-0.1L457.5,134.1z"/>
</g>
<path class="st0" d="M331.1,271.8c-4.9-2.5-11.5-7.3-17-12.3l34.7-46.2l0.1,64.3C347.6,277.3,338.7,275.7,331.1,271.8z"/>
</svg>
